<svg width="144" height="44" viewBox="0 0 144 44" fill="none" xmlns="http://www.w3.org/2000/svg">
<path d="M3.25131 21.5128C2.60966 21.5128 2.12063 21.5046 1.6316 21.5145C1.00308 21.526 0.432003 21.4538 0.128411 20.7826C-0.191592 20.0769 0.130052 19.5928 0.614158 19.1202C1.6874 18.0683 2.74259 16.9967 3.80598 15.9349C8.75864 10.9938 13.7097 6.0526 18.6656 1.11635C18.9741 0.809479 19.299 0.509169 19.6584 0.266295C20.2279 -0.117708 20.7891 -0.0848871 21.3208 0.354911C21.7196 0.68476 22.0773 1.06548 22.4449 1.43143C24.8868 3.85853 27.3254 6.28891 29.7705 8.71273C30.0167 8.9556 30.2956 9.16401 30.6731 9.48401C30.7174 9.14432 30.7617 8.94739 30.7633 8.74883C30.7715 8.01036 30.7453 7.27189 30.7699 6.53507C30.7929 5.82778 31.0161 5.61116 31.7233 5.59967C32.8425 5.58162 33.9634 5.58162 35.0826 5.59475C36.0294 5.6046 36.3527 5.92952 36.3576 6.89445C36.3708 9.27232 36.397 11.6518 36.3527 14.0297C36.338 14.8371 36.5677 15.4114 37.1749 15.9546C38.3138 16.9737 39.3772 18.0781 40.4668 19.1514C40.6211 19.304 40.7753 19.4665 40.8918 19.6486C41.3333 20.3313 41.074 21.1206 40.2961 21.3487C39.9138 21.4603 39.492 21.4505 39.0867 21.4669C38.6551 21.4849 38.2219 21.4718 37.7 21.4718C37.6738 21.8689 37.6344 22.184 37.6344 22.4991C37.6327 28.9517 37.6344 35.4042 37.6344 41.8568C37.6344 41.993 37.6377 42.1309 37.6344 42.2671C37.595 43.5356 37.1453 43.9918 35.8785 43.9934C27.1104 44 18.3423 44 9.57423 44C8.07268 44 6.56949 44 5.06794 43.9934C3.71736 43.9902 3.24474 43.5241 3.24474 42.1801C3.24474 35.6734 3.24474 29.165 3.24639 22.6583C3.24639 22.3104 3.24639 21.9625 3.24639 21.5178L3.25131 21.5128ZM14.3218 19.665C14.3743 19.9309 14.4235 20.0622 14.4235 20.1918C14.4268 23.8825 14.4334 27.5748 14.4202 31.2655C14.4169 31.9942 14.2118 32.155 13.4635 32.1714C12.8776 32.1829 12.2902 32.1796 11.6879 32.1829V35.1597H16.2615V38.4976H18.8543V35.2385H20.6529V38.4877H23.1079C23.3458 37.321 23.0619 36.1657 23.2999 35.0301C23.6084 35.0071 23.8496 34.9841 24.0909 34.9694C25.366 34.8906 26.5639 34.5657 27.6273 33.8338C29.288 32.6899 30.0183 31.085 29.7754 29.1026C29.5408 27.1826 28.3641 26.0372 26.5262 25.5317C26.3046 25.471 26.0946 25.366 25.6958 25.2117C26.0995 24.8934 26.3473 24.6603 26.6279 24.4815C28.392 23.3606 28.973 21.3651 28.0802 19.4812C27.5469 18.3555 26.5967 17.7532 25.4529 17.4398C24.7506 17.2478 24.0236 17.1526 23.1949 16.9918V13.7163H20.6709C20.538 14.8075 20.7202 15.8463 20.5594 16.826H18.8034V13.7031H16.2204V16.547C15.8758 16.57 15.6362 16.5979 15.3983 16.5996C14.3874 16.6012 13.3765 16.5848 12.3656 16.5963C11.6764 16.6045 11.6337 16.657 11.6255 17.3594C11.619 17.9058 11.619 18.4539 11.6354 19.0004C11.6551 19.6027 11.7043 19.6535 12.3016 19.6667C12.9531 19.6814 13.6046 19.6699 14.3218 19.6699V19.665Z" fill="#FF9916"/>
<path d="M18.7009 32.2795V27.3153C18.9109 27.2858 19.1144 27.2333 19.3195 27.2316C20.2467 27.2234 21.1755 27.207 22.1011 27.2431C22.5294 27.2595 22.9708 27.3367 23.3778 27.4729C24.2098 27.7502 24.7842 28.2917 24.8892 29.2173C25.0041 30.2347 24.8088 31.0963 23.8422 31.6821C23.1825 32.0809 22.4638 32.2155 21.7401 32.2647C20.7669 32.332 19.7839 32.2811 18.6992 32.2811L18.7009 32.2795Z" fill="#FF9916"/>
<path d="M18.6953 23.945V19.698C19.4239 19.698 20.1214 19.675 20.8155 19.7045C21.4621 19.7324 22.1316 19.7275 22.747 19.8965C23.8367 20.1968 24.2913 20.9648 24.2207 22.13C24.1698 22.9784 23.4461 23.8432 22.4878 23.9187C21.2537 24.0172 20.0049 23.9433 18.6953 23.9433V23.945Z" fill="#FF9916"/>
<path d="M53.2642 7.45455H57.0568L61.0625 17.2273H61.233L65.2386 7.45455H69.0312V22H66.0483V12.5327H65.9276L62.1634 21.929H60.1321L56.3679 12.4972H56.2472V22H53.2642V7.45455ZM71.5082 22V11.0909H74.5337V22H71.5082ZM73.0281 9.68466C72.5782 9.68466 72.1924 9.53551 71.8704 9.23722C71.5531 8.93419 71.3945 8.57197 71.3945 8.15057C71.3945 7.7339 71.5531 7.37642 71.8704 7.07812C72.1924 6.77509 72.5782 6.62358 73.0281 6.62358C73.4779 6.62358 73.8614 6.77509 74.1786 7.07812C74.5006 7.37642 74.6616 7.7339 74.6616 8.15057C74.6616 8.57197 74.5006 8.93419 74.1786 9.23722C73.8614 9.53551 73.4779 9.68466 73.0281 9.68466ZM66.098 32.5469H62.9872C62.9304 32.1444 62.8144 31.7869 62.6392 31.4744C62.464 31.1572 62.2391 30.8873 61.9645 30.6648C61.6899 30.4422 61.3726 30.2718 61.0128 30.1534C60.6577 30.035 60.2718 29.9759 59.8551 29.9759C59.1023 29.9759 58.4465 30.1629 57.8878 30.5369C57.3291 30.9062 56.8958 31.446 56.5881 32.1562C56.2803 32.8617 56.1264 33.7187 56.1264 34.7273C56.1264 35.7642 56.2803 36.6354 56.5881 37.3409C56.9006 38.0464 57.3362 38.5791 57.8949 38.9389C58.4536 39.2988 59.0999 39.4787 59.8338 39.4787C60.2457 39.4787 60.6269 39.4242 60.9773 39.3153C61.3324 39.2064 61.6473 39.0478 61.9219 38.8395C62.1965 38.6264 62.4238 38.3684 62.6037 38.0653C62.7884 37.7623 62.9162 37.4167 62.9872 37.0284L66.098 37.0426C66.0175 37.7102 65.8163 38.3542 65.4943 38.9744C65.1771 39.59 64.7486 40.1416 64.2088 40.6293C63.6738 41.1122 63.0346 41.4957 62.2912 41.7798C61.5526 42.0592 60.7169 42.1989 59.7841 42.1989C58.4867 42.1989 57.3267 41.9053 56.304 41.3182C55.286 40.7311 54.4811 39.8812 53.8892 38.7685C53.3021 37.6558 53.0085 36.3087 53.0085 34.7273C53.0085 33.1411 53.3068 31.7917 53.9034 30.679C54.5 29.5663 55.3097 28.7187 56.3324 28.1364C57.3551 27.5492 58.5057 27.2557 59.7841 27.2557C60.6269 27.2557 61.4081 27.3741 62.1278 27.6108C62.8523 27.8475 63.4938 28.1932 64.0526 28.6477C64.6113 29.0975 65.0658 29.6491 65.4162 30.3026C65.7713 30.956 65.9986 31.7041 66.098 32.5469ZM71.3572 42.206C70.6612 42.206 70.041 42.0852 69.4964 41.8438C68.9519 41.5975 68.5211 41.2353 68.2038 40.7571C67.8913 40.2741 67.7351 39.6728 67.7351 38.9531C67.7351 38.3471 67.8464 37.8381 68.0689 37.4261C68.2914 37.0142 68.5945 36.6828 68.978 36.4318C69.3615 36.1809 69.7971 35.9915 70.2848 35.8636C70.7772 35.7358 71.2933 35.6458 71.8331 35.5938C72.4676 35.5275 72.9789 35.4659 73.3672 35.4091C73.7554 35.3475 74.0372 35.2576 74.2124 35.1392C74.3875 35.0208 74.4751 34.8456 74.4751 34.6136V34.571C74.4751 34.1212 74.3331 33.7732 74.049 33.527C73.7696 33.2808 73.3719 33.1577 72.8558 33.1577C72.3113 33.1577 71.8781 33.2784 71.5561 33.5199C71.2341 33.7566 71.0211 34.0549 70.9169 34.4148L68.1186 34.1875C68.2607 33.5246 68.54 32.9517 68.9567 32.4688C69.3733 31.9811 69.9107 31.607 70.5689 31.3466C71.2318 31.0814 71.9988 30.9489 72.87 30.9489C73.4761 30.9489 74.0561 31.0199 74.6101 31.1619C75.1688 31.304 75.6636 31.5241 76.0945 31.8224C76.5301 32.1207 76.8733 32.5043 77.1243 32.973C77.3752 33.437 77.5007 33.9934 77.5007 34.642V42H74.6314V40.4872H74.5462C74.371 40.8281 74.1366 41.1288 73.843 41.3892C73.5495 41.6449 73.1967 41.8461 72.7848 41.9929C72.3729 42.1349 71.897 42.206 71.3572 42.206ZM72.2237 40.1179C72.6688 40.1179 73.0618 40.0303 73.4027 39.8551C73.7436 39.6752 74.0111 39.4337 74.2053 39.1307C74.3994 38.8277 74.4964 38.4844 74.4964 38.1009V36.9432C74.4018 37.0047 74.2715 37.0616 74.1058 37.1136C73.9448 37.161 73.7625 37.206 73.5589 37.2486C73.3554 37.2865 73.1518 37.322 72.9482 37.3551C72.7446 37.3835 72.5599 37.4096 72.3942 37.4332C72.0391 37.4853 71.7289 37.5682 71.4638 37.6818C71.1986 37.7955 70.9927 37.9493 70.8459 38.1435C70.6991 38.3329 70.6257 38.5696 70.6257 38.8537C70.6257 39.2656 70.7749 39.5805 71.0732 39.7983C71.3762 40.0114 71.7597 40.1179 72.2237 40.1179ZM88.9247 34.2017L86.1548 34.3722C86.1075 34.1354 86.0057 33.9223 85.8494 33.733C85.6932 33.5388 85.4872 33.3849 85.2315 33.2713C84.9806 33.1529 84.6799 33.0938 84.3295 33.0938C83.8608 33.0938 83.4654 33.1932 83.1435 33.392C82.8215 33.5862 82.6605 33.8466 82.6605 34.1733C82.6605 34.4337 82.7647 34.6539 82.973 34.8338C83.1813 35.0137 83.5388 35.1581 84.0455 35.267L86.0199 35.6648C87.0805 35.8826 87.8712 36.233 88.392 36.7159C88.9129 37.1989 89.1733 37.8333 89.1733 38.6193C89.1733 39.3343 88.9626 39.9616 88.5412 40.5014C88.1245 41.0412 87.5516 41.4626 86.8224 41.7656C86.098 42.0639 85.2623 42.2131 84.3153 42.2131C82.8712 42.2131 81.7206 41.9124 80.8636 41.3111C80.0114 40.705 79.5118 39.8812 79.3651 38.8395L82.3409 38.6832C82.4309 39.1236 82.6487 39.4598 82.9943 39.6918C83.34 39.919 83.7827 40.0327 84.3224 40.0327C84.8527 40.0327 85.2789 39.9309 85.6009 39.7273C85.9276 39.5189 86.0933 39.2514 86.098 38.9247C86.0933 38.6501 85.9773 38.4252 85.75 38.25C85.5227 38.0701 85.1723 37.9328 84.6989 37.8381L82.8097 37.4616C81.7443 37.2486 80.9512 36.8793 80.4304 36.3537C79.9143 35.8281 79.6562 35.1581 79.6562 34.3438C79.6562 33.643 79.8456 33.0393 80.2244 32.5327C80.608 32.026 81.1454 31.6354 81.8366 31.3608C82.5327 31.0862 83.3471 30.9489 84.2798 30.9489C85.6577 30.9489 86.742 31.2401 87.5327 31.8224C88.3281 32.4048 88.7921 33.1979 88.9247 34.2017ZM96.0501 42.2131C94.9279 42.2131 93.962 41.9858 93.1523 41.5312C92.3474 41.072 91.7272 40.4233 91.2915 39.5852C90.8559 38.7424 90.6381 37.7457 90.6381 36.5952C90.6381 35.473 90.8559 34.4882 91.2915 33.6406C91.7272 32.7931 92.3403 32.1326 93.131 31.6591C93.9265 31.1856 94.8593 30.9489 95.9293 30.9489C96.649 30.9489 97.319 31.0649 97.9393 31.2969C98.5643 31.5241 99.1088 31.8674 99.5728 32.3267C100.042 32.786 100.406 33.3636 100.667 34.0597C100.927 34.7509 101.057 35.5606 101.057 36.4886V37.3196H91.8455V35.4446H98.2092C98.2092 35.009 98.1145 34.6231 97.9251 34.2869C97.7357 33.9508 97.4729 33.688 97.1367 33.4986C96.8053 33.3045 96.4194 33.2074 95.979 33.2074C95.5198 33.2074 95.1126 33.3139 94.7575 33.527C94.4071 33.7353 94.1325 34.017 93.9336 34.3722C93.7347 34.7225 93.6329 35.1132 93.6282 35.544V37.3267C93.6282 37.8665 93.7276 38.3329 93.9265 38.7259C94.1301 39.1188 94.4165 39.4219 94.7859 39.6349C95.1552 39.848 95.5932 39.9545 96.0998 39.9545C96.436 39.9545 96.7437 39.9072 97.0231 39.8125C97.3024 39.7178 97.5415 39.5758 97.7404 39.3864C97.9393 39.197 98.0908 38.965 98.195 38.6903L100.993 38.875C100.851 39.5473 100.56 40.1345 100.12 40.6364C99.6841 41.1335 99.1206 41.5218 98.4293 41.8011C97.7428 42.0758 96.9497 42.2131 96.0501 42.2131Z" fill="white"/>
<path d="M77.0142 22V7.45455H82.8381C83.9081 7.45455 84.8007 7.61316 85.5156 7.9304C86.2306 8.24763 86.768 8.68797 87.1278 9.25142C87.4877 9.81013 87.6676 10.4541 87.6676 11.1832C87.6676 11.7514 87.554 12.2509 87.3267 12.6818C87.0994 13.108 86.7869 13.4583 86.3892 13.733C85.9962 14.0028 85.5464 14.1946 85.0398 14.3082V14.4503C85.5938 14.474 86.1122 14.6302 86.5952 14.919C87.0829 15.2079 87.4782 15.6127 87.7812 16.1335C88.0843 16.6496 88.2358 17.2652 88.2358 17.9801C88.2358 18.7519 88.044 19.4408 87.6605 20.0469C87.2817 20.6482 86.7206 21.1241 85.9773 21.4744C85.2339 21.8248 84.3177 22 83.2287 22H77.0142ZM80.0895 19.4858H82.5966C83.4536 19.4858 84.0786 19.3224 84.4716 18.9957C84.8646 18.6643 85.0611 18.224 85.0611 17.6747C85.0611 17.2723 84.964 16.9171 84.7699 16.6094C84.5758 16.3016 84.2988 16.0601 83.9389 15.8849C83.5838 15.7098 83.16 15.6222 82.6676 15.6222H80.0895V19.4858ZM80.0895 13.5412H82.3693C82.7907 13.5412 83.1648 13.4678 83.4915 13.321C83.8229 13.1695 84.0833 12.9564 84.2727 12.6818C84.4669 12.4072 84.5639 12.0781 84.5639 11.6946C84.5639 11.169 84.3769 10.7453 84.0028 10.4233C83.6335 10.1013 83.108 9.94034 82.4261 9.94034H80.0895V13.5412ZM90.18 22V11.0909H93.2056V22H90.18ZM91.6999 9.68466C91.2501 9.68466 90.8642 9.53551 90.5423 9.23722C90.225 8.93419 90.0664 8.57197 90.0664 8.15057C90.0664 7.7339 90.225 7.37642 90.5423 7.07812C90.8642 6.77509 91.2501 6.62358 91.6999 6.62358C92.1497 6.62358 92.5333 6.77509 92.8505 7.07812C93.1725 7.37642 93.3335 7.7339 93.3335 8.15057C93.3335 8.57197 93.1725 8.93419 92.8505 9.23722C92.5333 9.53551 92.1497 9.68466 91.6999 9.68466ZM101.432 11.0909V13.3636H94.8622V11.0909H101.432ZM96.3537 8.47727H99.3793V18.6477C99.3793 18.9271 99.4219 19.1449 99.5071 19.3011C99.5923 19.4527 99.7107 19.5592 99.8622 19.6207C100.018 19.6823 100.198 19.7131 100.402 19.7131C100.544 19.7131 100.686 19.7012 100.828 19.6776C100.97 19.6491 101.079 19.6278 101.155 19.6136L101.631 21.8651C101.479 21.9124 101.266 21.9669 100.991 22.0284C100.717 22.0947 100.383 22.1349 99.9901 22.1491C99.2609 22.1776 98.6217 22.0805 98.0724 21.858C97.5279 21.6354 97.1042 21.2898 96.8011 20.821C96.4981 20.3523 96.349 19.7604 96.3537 19.0455V8.47727ZM108.214 22.2131C107.097 22.2131 106.136 21.9763 105.331 21.5028C104.531 21.0246 103.915 20.3617 103.484 19.5142C103.058 18.6667 102.845 17.6913 102.845 16.5881C102.845 15.4706 103.061 14.4905 103.491 13.6477C103.927 12.8002 104.545 12.1397 105.345 11.6662C106.145 11.188 107.097 10.9489 108.2 10.9489C109.152 10.9489 109.985 11.1217 110.7 11.4673C111.415 11.813 111.981 12.2983 112.398 12.9233C112.814 13.5483 113.044 14.2822 113.087 15.125H110.232C110.151 14.5805 109.938 14.1425 109.592 13.8111C109.251 13.4749 108.804 13.3068 108.25 13.3068C107.781 13.3068 107.372 13.4347 107.021 13.6903C106.676 13.9413 106.406 14.3082 106.212 14.7912C106.018 15.2741 105.92 15.8589 105.92 16.5455C105.92 17.2415 106.015 17.8333 106.205 18.321C106.399 18.8087 106.671 19.1804 107.021 19.4361C107.372 19.6918 107.781 19.8196 108.25 19.8196C108.596 19.8196 108.906 19.7486 109.18 19.6065C109.46 19.4645 109.689 19.2585 109.869 18.9886C110.054 18.714 110.175 18.3849 110.232 18.0014H113.087C113.039 18.8348 112.812 19.5687 112.405 20.2031C112.002 20.8329 111.446 21.3253 110.736 21.6804C110.026 22.0355 109.185 22.2131 108.214 22.2131ZM119.953 22.2131C118.85 22.2131 117.895 21.9787 117.091 21.5099C116.29 21.0365 115.672 20.3783 115.237 19.5355C114.801 18.688 114.583 17.7055 114.583 16.5881C114.583 15.4612 114.801 14.4763 115.237 13.6335C115.672 12.786 116.29 12.1278 117.091 11.6591C117.895 11.1856 118.85 10.9489 119.953 10.9489C121.056 10.9489 122.008 11.1856 122.808 11.6591C123.613 12.1278 124.233 12.786 124.669 13.6335C125.104 14.4763 125.322 15.4612 125.322 16.5881C125.322 17.7055 125.104 18.688 124.669 19.5355C124.233 20.3783 123.613 21.0365 122.808 21.5099C122.008 21.9787 121.056 22.2131 119.953 22.2131ZM119.967 19.8693C120.469 19.8693 120.888 19.7273 121.224 19.4432C121.56 19.1544 121.814 18.7614 121.984 18.2642C122.159 17.767 122.247 17.2012 122.247 16.5668C122.247 15.9323 122.159 15.3665 121.984 14.8693C121.814 14.3722 121.56 13.9792 121.224 13.6903C120.888 13.4015 120.469 13.2571 119.967 13.2571C119.46 13.2571 119.034 13.4015 118.689 13.6903C118.348 13.9792 118.09 14.3722 117.914 14.8693C117.744 15.3665 117.659 15.9323 117.659 16.5668C117.659 17.2012 117.744 17.767 117.914 18.2642C118.09 18.7614 118.348 19.1544 118.689 19.4432C119.034 19.7273 119.46 19.8693 119.967 19.8693ZM127.289 22V11.0909H130.315V22H127.289ZM128.809 9.68466C128.359 9.68466 127.974 9.53551 127.652 9.23722C127.334 8.93419 127.176 8.57197 127.176 8.15057C127.176 7.7339 127.334 7.37642 127.652 7.07812C127.974 6.77509 128.359 6.62358 128.809 6.62358C129.259 6.62358 129.643 6.77509 129.96 7.07812C130.282 7.37642 130.443 7.7339 130.443 8.15057C130.443 8.57197 130.282 8.93419 129.96 9.23722C129.643 9.53551 129.259 9.68466 128.809 9.68466ZM135.764 15.6932V22H132.739V11.0909H135.622V13.0156H135.75C135.991 12.3812 136.396 11.8793 136.964 11.5099C137.533 11.1359 138.222 10.9489 139.031 10.9489C139.789 10.9489 140.449 11.1146 141.013 11.446C141.576 11.7775 142.014 12.2509 142.327 12.8665C142.639 13.4773 142.795 14.2064 142.795 15.054V22H139.77V15.5938C139.775 14.9261 139.604 14.4053 139.259 14.0312C138.913 13.6525 138.437 13.4631 137.831 13.4631C137.424 13.4631 137.064 13.5507 136.751 13.7259C136.444 13.901 136.202 14.1567 136.027 14.4929C135.857 14.8243 135.769 15.2244 135.764 15.6932Z" fill="#FF9916"/>
</svg>
