<svg width="23" height="22" viewBox="0 0 23 22" fill="none" xmlns="http://www.w3.org/2000/svg">
<path d="M22.0896 2.94824C22.1026 3.85907 21.8466 4.439 21.3571 4.92845C18.1375 8.14522 14.9187 11.3637 11.7026 14.5848C11.5466 14.7416 11.3777 14.8571 11.1657 14.9148C9.71528 15.3095 8.26576 15.7059 6.81538 16.1005C6.60597 16.1574 6.39397 16.1936 6.19662 16.0678C5.91912 15.8911 5.90361 15.6137 5.97083 15.3414C6.11389 14.764 6.28452 14.1936 6.44309 13.6197C6.68439 12.745 6.92655 11.8704 7.16699 10.9949C7.23248 10.7579 7.34279 10.558 7.52377 10.3779C10.7374 7.17407 13.9527 3.97281 17.1482 0.751736C18.1065 -0.214243 19.7335 -0.280594 20.7668 0.735363C21.0624 1.02576 21.358 1.32219 21.6053 1.65222C22.0112 2.19252 22.0914 2.51393 22.0905 2.94824H22.0896ZM11.139 13.3741C13.7864 10.7269 16.4432 8.07025 19.0639 5.44978C18.2659 4.65098 17.4386 3.82287 16.6371 3.02148C14.0104 5.64798 11.3561 8.30205 8.71217 10.9458C9.51966 11.7532 10.3513 12.5856 11.1398 13.3732L11.139 13.3741ZM20.0765 4.601C20.2385 4.42349 20.4066 4.2477 20.566 4.06415C20.99 3.57729 21.0848 3.00253 20.7461 2.45879C20.4652 2.00811 20.0894 1.62551 19.6353 1.35062C19.1803 1.07402 18.7046 1.05247 18.2366 1.3782C17.9522 1.57639 17.7394 1.83577 17.5213 2.04689C18.3719 2.8974 19.1975 3.72205 20.0757 4.60014L20.0765 4.601ZM7.35141 14.7451C8.26145 14.4926 9.13358 14.2504 10.0212 14.004C9.66444 13.5309 8.34332 12.2401 8.08306 12.1048C7.84263 12.9725 7.60305 13.8394 7.35141 14.7459V14.7451Z" fill="black"/>
<path d="M10.4914 21.9991C7.92152 21.9991 5.35081 22 2.78097 21.9991C1.48399 21.9991 0.380903 21.1986 0.0310187 19.7535C-0.0215501 19.5355 0.00861232 19.2959 0.00861232 19.0667C0.00775054 15.0322 0.00861232 10.9977 0.00861232 6.96313C0.00861232 6.21689 0.013783 5.46979 0.00861232 4.72354C0.00516518 4.17205 0.189587 3.68087 0.52913 3.26294C0.92986 2.76918 1.40126 2.35039 2.0588 2.22631C2.36473 2.16857 2.67411 2.09619 2.98263 2.09274C4.43301 2.07895 5.8834 2.08412 7.33292 2.09016C7.50097 2.09016 7.67505 2.11859 7.83448 2.17116C8.12145 2.26422 8.25934 2.51843 8.21366 2.80968C8.1766 3.04148 7.931 3.2707 7.68539 3.29483C7.58542 3.30431 7.48459 3.29741 7.38376 3.29741C5.86185 3.29741 4.33908 3.33188 2.81803 3.28535C1.84594 3.25605 1.13927 4.20824 1.14186 4.98033C1.15651 9.68959 1.14703 14.3988 1.15048 19.1081C1.15048 20.0517 1.65117 20.5497 2.27424 20.7393C2.52847 20.8169 2.80596 20.8531 3.07226 20.8539C7.99735 20.8608 12.9225 20.8625 17.8475 20.8539C18.3301 20.8531 18.8076 20.7867 19.2118 20.4541C19.4789 20.2335 19.6487 19.9577 19.7323 19.6441C19.8081 19.3597 19.8219 19.0521 19.8236 18.7548C19.8322 17.3907 19.8271 16.0266 19.8279 14.6625C19.8279 14.5617 19.8253 14.4617 19.8279 14.3609C19.84 13.9912 20.0684 13.7465 20.3984 13.7474C20.6837 13.7474 20.9388 14.0145 20.9663 14.3437C20.9715 14.4006 20.9681 14.4583 20.9681 14.516C20.9681 16.0955 20.9681 17.6751 20.9681 19.2537C20.9681 20.0069 20.6768 20.6635 20.1606 21.1753C19.647 21.6855 19.0058 22.0009 18.2457 22C15.6612 21.9965 13.0767 21.9983 10.4922 21.9991H10.4914Z" fill="black"/>
</svg>
