<svg width="30" height="30" viewBox="0 0 30 30" fill="none" xmlns="http://www.w3.org/2000/svg">
<path d="M4 26.5V21.1875L20.5 4.71875C20.75 4.48958 21.0262 4.3125 21.3287 4.1875C21.6312 4.0625 21.9487 4 22.2812 4C22.6137 4 22.9367 4.0625 23.25 4.1875C23.5633 4.3125 23.8342 4.5 24.0625 4.75L25.7812 6.5C26.0312 6.72917 26.2137 7 26.3287 7.3125C26.4437 7.625 26.5008 7.9375 26.5 8.25C26.5 8.58333 26.4429 8.90125 26.3287 9.20375C26.2146 9.50625 26.0321 9.78208 25.7812 10.0312L9.3125 26.5H4ZM22.25 10L24 8.25L22.25 6.5L20.5 8.25L22.25 10Z" fill="black"/>
</svg>
