<svg width="111" height="94" viewBox="0 0 111 94" fill="none" xmlns="http://www.w3.org/2000/svg">
<path d="M4.91515 87.117C4.91515 87.9879 4.01966 88.6866 2.90358 88.6866C1.7875 88.6866 0.904297 87.9871 0.904297 87.117C0.904297 86.247 1.7998 85.5352 2.90358 85.5352C4.00736 85.5352 4.91515 86.247 4.91515 87.117Z" fill="#0E2365"/>
<path d="M25.6601 88.7485C25.6051 88.7485 25.5494 88.7354 25.4985 88.7092L12.892 82.239C12.8493 82.2587 12.8059 82.2784 12.7616 82.2989C12.6812 82.335 12.5984 82.3686 12.5443 82.4047L3.68533 87.2938C3.51476 87.3897 3.29826 87.3258 3.20477 87.1552C3.10965 86.9838 3.17279 86.7689 3.34336 86.6746L12.1761 81.8011C12.2318 81.7626 12.3524 81.706 12.4746 81.6519C12.5549 81.6158 12.6377 81.5821 12.6919 81.5461C12.7977 81.4747 12.9354 81.4665 13.0511 81.5256L25.6347 87.9843L32.5567 83.2379C32.7166 83.1271 32.9372 83.1673 33.0487 83.3297C33.1594 83.4912 33.1184 83.711 32.9577 83.8217L25.8618 88.687C25.8019 88.728 25.7314 88.7494 25.6617 88.7494L25.6601 88.7485Z" fill="#0E2365"/>
<path d="M87.3319 84.3347C87.2778 84.3347 87.2245 84.3224 87.1745 84.2978L79.1889 80.3411C79.0134 80.2542 78.942 80.0418 79.029 79.8671C79.1167 79.6916 79.3307 79.6203 79.5029 79.7072L87.2926 83.5672L95.8604 77.1216C95.967 77.0413 96.1097 77.0289 96.2286 77.0863L108.355 83.0046C108.531 83.0899 108.603 83.3023 108.517 83.4778C108.431 83.6533 108.218 83.7255 108.044 83.641L96.1129 77.8178L87.5435 84.2642C87.4811 84.311 87.4057 84.3355 87.3303 84.3355L87.3319 84.3347Z" fill="#0E2365"/>
<path d="M99.2517 57.4844C99.2517 57.7673 99.1099 58.0363 98.8196 58.1921L53.4653 82.5155C53.4301 82.5368 53.3948 82.5507 53.3587 82.5581V92.1641C53.3587 92.3626 53.2029 92.5184 53.0044 92.5184C52.806 92.5184 52.6502 92.3626 52.6502 92.1641V82.4876L4.50616 58.2142C4.2093 58.0658 4.06006 57.7755 4.06006 57.4852V68.9388C4.08138 69.2078 4.2298 69.4628 4.49877 69.5973L52.7133 93.9067C52.947 94.0338 53.23 94.0273 53.4637 93.9067L98.8179 69.5768C99.0229 69.4702 99.1574 69.3004 99.214 69.1028C99.2567 68.9544 99.2567 68.7846 99.214 68.6354L99.2492 57.486L99.2517 57.4844ZM42.2807 82.6286C42.2241 82.7557 42.097 82.8336 41.9617 82.8336C41.9125 82.8336 41.8551 82.8197 41.8133 82.7984L14.2057 69.6383C14.0285 69.553 13.958 69.3406 14.0498 69.1643C14.1351 68.9872 14.3475 68.9232 14.5246 69.0085L15.1971 69.348L42.111 82.1612C42.2881 82.2465 42.366 82.4515 42.2807 82.6286ZM89.936 69.7736L66.4761 82.6573C66.4196 82.686 66.363 82.7 66.3064 82.7C66.1793 82.7 66.0587 82.6294 65.9948 82.5163C65.9029 82.3465 65.9661 82.1267 66.1367 82.0349L89.5965 69.1512C89.7662 69.0593 89.986 69.1159 90.0779 69.293C90.1697 69.4628 90.1058 69.6752 89.936 69.7744V69.7736Z" fill="#01B990"/>
<path d="M99.2517 57.2578V57.4702C99.2517 57.3997 99.2378 57.3283 99.2164 57.2578H99.2517Z" fill="#01B990"/>
<path d="M53.0789 82.965C52.8968 82.965 52.7164 82.9223 52.5532 82.8387L4.3493 58.5317C3.95486 58.3349 3.70886 57.9339 3.70886 57.487C3.70886 57.04 3.95486 56.6464 4.35012 56.448L34.6205 41.3411C34.7935 41.2541 35.0075 41.3247 35.0944 41.5002C35.1822 41.6748 35.1108 41.8872 34.9362 41.975L4.66667 57.081C4.51086 57.1589 4.41737 57.3106 4.41737 57.4861C4.41737 57.6616 4.51086 57.8207 4.66749 57.8986L52.8763 82.2081C53.0059 82.2753 53.1682 82.2729 53.306 82.2023L98.6553 57.8814C98.8136 57.7969 98.8997 57.6567 98.8997 57.4853C98.8997 57.4427 98.8931 57.405 98.8792 57.3582C98.8472 57.2328 98.7677 57.1335 98.6578 57.0728L67.3911 39.9634C67.2197 39.8699 67.1566 39.6551 67.2509 39.4829C67.3452 39.3115 67.5617 39.2483 67.7314 39.3426L98.9989 56.4521C99.281 56.6079 99.486 56.8695 99.5623 57.1721C99.5918 57.2713 99.6082 57.373 99.6082 57.4706C99.6082 57.915 99.377 58.2964 98.9899 58.5046L53.6357 82.828C53.4594 82.919 53.2691 82.9642 53.0805 82.9642L53.0789 82.965Z" fill="#0E2365"/>
<path d="M110.903 83.4686C110.903 84.3395 110.007 85.0382 108.891 85.0382C107.775 85.0382 106.892 84.3387 106.892 83.4686C106.892 82.5985 107.787 81.8867 108.891 81.8867C109.995 81.8867 110.903 82.5985 110.903 83.4686Z" fill="#0E2365"/>
<path d="M59.3607 72.7315C59.2344 72.7315 59.1123 72.6634 59.0483 72.5445C58.9564 72.3723 59.0212 72.1574 59.1943 72.0656L80.5852 60.6243C80.7574 60.5316 80.9714 60.5964 81.064 60.7694C81.1559 60.9416 81.0911 61.1565 80.9181 61.2483L59.5272 72.6896C59.4739 72.7183 59.4173 72.7315 59.3607 72.7315Z" fill="#0E2365"/>
<path d="M48.6692 74.0022C48.6216 74.0022 48.5732 73.9924 48.5265 73.9719L21.483 62.0804C21.3043 62.0016 21.2231 61.7934 21.3018 61.6138C21.3805 61.4342 21.5896 61.3538 21.7684 61.4325L48.8118 73.324C48.9906 73.4028 49.0718 73.611 48.9931 73.7906C48.9349 73.9235 48.8053 74.0022 48.6692 74.0022Z" fill="#0E2365"/>
<path d="M75.2614 27.2923C76.3373 24.4607 76.2381 21.2182 75.4173 18.2882C74.9146 16.5464 74.1929 14.8547 73.0883 13.4458C71.6016 11.5556 69.5843 10.2673 67.5456 9.11354C66.555 8.55427 63.9776 8.05157 63.716 6.94779C63.5602 6.26797 63.9497 5.12812 64.0129 4.42042C64.0982 3.47163 64.1613 2.51628 64.2466 1.57486C64.2679 1.36247 64.2818 1.12876 64.2113 0.937687C64.126 0.753997 63.9424 0.654765 63.7792 0.541599C62.6541 -0.109518 54.7677 0.0389001 54.7677 0.0389001L54.7037 0.0175781C54.7037 0.0175781 54.6963 0.0249722 54.6824 0.0315325C54.5619 0.152079 53.7271 0.965559 53.4999 1.21403C53.2449 1.49039 53.0677 3.13213 53.0612 3.31664C53.0612 3.53641 54.1158 6.12693 55.2769 6.75016C55.4114 6.82069 55.5746 6.87072 55.7583 6.88466C55.8288 7.08967 55.9281 7.28812 56.0486 7.47181C55.673 7.50051 55.2769 7.53578 54.9022 7.5571C53.7976 7.62106 52.0779 7.28812 52.5806 5.64556C53.0128 4.28675 52.9628 2.98369 52.8496 1.47644C52.8144 1.21485 52.8004 0.938501 52.6446 0.726109C52.3617 0.443193 51.8721 0.464519 50.6839 0.464519C48.5107 0.457139 44.6311 0.528485 44.6311 0.528485C44.6311 0.528485 44.6237 0.535853 44.6172 0.535853C44.4122 0.684281 42.4014 2.10707 41.9127 3.25432C41.5945 3.99072 41.6437 5.36347 41.8274 6.53204C41.3747 6.51072 40.9139 6.48283 40.4612 6.46807C39.3353 6.41149 38.2028 6.36228 37.0564 6.31964C36.8727 6.29832 36.6742 6.29833 36.5258 6.43282C36.4553 6.48202 36.3987 6.55335 36.3626 6.6452C36.2847 6.81495 36.2707 7.03472 36.2707 7.23973C36.2707 8.66251 36.2421 10.0853 36.2216 11.4941C36.2355 11.905 36.2355 12.2937 36.4266 12.6406C36.7234 13.1785 37.3754 13.2851 37.9133 13.3622C38.9187 13.4614 39.8954 13.5606 40.8794 13.6804C40.8934 13.6451 40.9073 13.6164 40.9286 13.5885C40.9499 13.5533 40.9713 13.5106 40.9991 13.4828C41.2115 13.2064 41.5797 13.0793 42.1956 13.0506C46.0539 12.8456 50.1951 13.3835 53.9681 14.4807C56.1626 15.1179 58.5694 16.0027 59.9004 18.1832C62.5688 22.5647 59.688 28.6741 55.8018 30.4298C55.2991 30.6635 54.7825 30.8259 54.2584 30.9464C52.5454 31.336 50.7331 31.208 48.9634 31.0104C47.7957 30.8833 46.6271 30.7127 45.452 30.6356C44.4114 30.5651 43.137 30.848 42.139 30.4159C41.6363 30.1961 41.3813 29.8213 41.2402 29.3752C41.41 36.221 41.5732 42.8748 40.8934 49.2458C39.6264 48.8349 38.7834 48.8563 37.5451 49.2105C37.4319 49.2392 37.2975 49.2745 37.2474 49.3876C37.2122 49.4729 37.2261 49.5574 37.1982 49.614C37.2261 51.1147 37.3614 52.594 37.6443 54.0594C37.6796 54.2644 37.7149 54.4982 37.8994 54.6326C37.9986 54.7179 38.1331 54.7532 38.2536 54.8024C39.3156 55.0714 40.3775 55.2912 41.4395 55.4609C41.3329 55.6306 41.2624 55.8004 41.2345 55.971C41.1139 56.8984 41.0147 58.4984 41.355 59.284C41.688 60.0983 44.7886 61.9672 44.7886 61.9672L49.2266 61.6555C49.7293 61.7121 50.2386 61.7547 50.7413 61.7687C50.8192 61.7687 50.911 61.7687 50.9537 61.7334C51.0529 61.6842 51.0594 61.5776 51.0594 61.4645C51.1726 60.0909 51.2718 58.7181 51.3784 57.3093C51.4063 56.814 51.4277 56.276 51.1447 55.8512C51.4777 55.8726 51.7959 55.9004 52.1288 55.9078C51.9804 57.3659 51.9303 59.5538 52.0648 59.8719C52.2772 60.3246 52.8291 62.1869 52.8291 62.1869H52.8504L55.8592 62.2156C56.7793 62.3993 57.7067 62.3993 58.6055 62.2369C59.1927 62.1377 59.7667 61.9819 60.3112 61.7343C60.5162 61.635 60.736 61.5292 60.8491 61.3447C60.9836 61.1463 60.9697 60.8773 60.9976 60.6436C60.9484 59.8719 60.9689 59.0724 61.0681 58.3007C61.1173 57.7767 60.9336 56.6934 61.1526 56.276C61.2657 56.071 61.5208 56.021 61.7545 55.9857C62.2358 55.9004 62.7246 55.8086 63.2125 55.7241C64.2318 55.5331 65.2864 55.3559 66.2779 55.0378C70.6454 53.6642 74.1068 49.6296 74.73 45.0922C75.3951 40.491 73.0662 35.5854 69.0316 33.136C71.8632 32.5201 74.2134 30.1272 75.2606 27.2956L75.2614 27.2923ZM58.6547 49.4139C57.5362 50.4258 56.2339 50.9925 54.8538 51.2967C52.907 51.7215 50.7979 51.6436 48.8084 51.6083C47.8736 51.587 41.9209 51.7568 41.9061 50.1716C41.8987 49.8674 42.0406 49.5344 42.0406 49.2015C42.0406 48.8333 42.0266 48.4651 42.0119 48.0969C41.9627 46.8652 41.8134 45.6335 41.7716 44.3944C41.6798 41.7112 41.6158 39.0075 41.5805 36.2677C41.5666 35.2623 41.5026 34.5686 42.5433 34.4981C45.7496 34.2783 49.0274 34.5268 52.2624 34.6465C54.903 34.7457 57.8265 34.972 59.7167 36.968C60.3465 37.6331 60.8065 38.4548 61.1394 39.3109C62.5409 42.9142 61.2813 47.0202 58.6547 49.4122V49.4139ZM63.1568 48.4446C63.0862 48.5512 62.9731 48.6078 62.8591 48.6078C62.7951 48.6078 62.7246 48.5865 62.668 48.5512C62.5048 48.4446 62.4556 48.2256 62.5614 48.0624C64.6427 44.8766 64.5787 40.4811 62.413 37.3592C62.2998 37.2034 62.3424 36.9771 62.4983 36.8705C62.6614 36.7573 62.8804 36.7926 62.9936 36.9557C65.3225 40.304 65.393 45.0324 63.1568 48.4446ZM64.4172 26.5986C64.3532 26.7052 64.24 26.7544 64.1269 26.7544C64.0564 26.7544 63.985 26.733 63.9284 26.6904C63.7652 26.5838 63.7234 26.3648 63.8366 26.2017C65.0396 24.4394 65.3446 22.0178 64.6509 19.7315C64.0424 17.7207 62.6967 15.81 60.7573 14.1954C60.6089 14.0748 60.5876 13.8485 60.7147 13.7001C60.8418 13.5516 61.0615 13.5303 61.21 13.6508C63.256 15.35 64.6788 17.3812 65.3299 19.5191C66.0876 22.0178 65.7473 24.6657 64.4163 26.5977L64.4172 26.5986Z" fill="#0E2365"/>
<path d="M68.5008 27.3645C69.5414 24.5189 69.3856 21.2904 68.5221 18.3456C68.012 16.6039 67.2478 14.9121 66.1292 13.5033C64.6285 11.627 62.576 10.3387 60.5086 9.17095C59.532 8.61906 56.9341 8.10244 56.6651 7.0044C56.5019 6.33196 56.8635 5.18472 56.9127 4.4844C56.9906 3.5356 57.0398 2.58761 57.1251 1.63882C57.1391 1.42643 57.1538 1.19273 57.0612 1.00166C56.9767 0.824534 56.8135 0.711354 56.6503 0.619509C56.0558 0.28001 55.4186 0.109434 54.7675 0.0389103C54.7396 0.0389103 54.7109 0.0315427 54.683 0.0315427C53.7556 -0.0603025 51.5201 0.0381047 50.6837 0.463709C49.7578 0.935235 49.7349 1.68475 49.8768 2.70734C50.0326 3.86115 50.1949 5.01495 50.3507 6.16875C50.4073 6.56484 50.4426 7.02571 50.181 7.27992C50.0112 7.44967 49.7636 7.47838 49.5299 7.49232C48.9706 7.53496 48.4113 7.5776 47.852 7.61286C46.7409 7.69815 45.0344 7.3439 45.5157 5.71611C45.9266 4.34991 45.8552 3.04766 45.7142 1.5396C45.656 0.819598 45.4723 0.599012 44.7802 0.541609C44.7236 0.541609 44.6736 0.534221 44.617 0.534221C43.0736 0.463697 41.5377 0.619516 40.0584 1.0156C39.7041 2.79264 39.8533 4.72466 40.4618 6.46644C40.5044 6.58699 40.5471 6.70753 40.5963 6.82725C39.1874 6.77067 37.7786 6.70671 36.3632 6.64356C34.2467 6.55828 32.1302 6.46643 30.0136 6.37459C29.8225 6.36721 29.6175 6.36721 29.4683 6.4812C29.2559 6.65095 29.2419 6.99783 29.2419 7.30206V11.5565C29.2419 11.946 29.2559 12.3634 29.4543 12.7029C29.7733 13.2335 30.4171 13.354 30.969 13.418C32.0522 13.5385 33.1347 13.6591 34.2114 13.7788C33.9137 26.1738 35.4644 38.1653 34.4238 49.3007C33.1634 48.8833 32.2933 48.9112 31.0756 49.2581C30.9624 49.2868 30.8419 49.336 30.7853 49.4418C30.75 49.5123 30.75 49.5976 30.75 49.6755C30.7787 51.1622 30.9411 52.6555 31.2388 54.1136C31.2814 54.326 31.338 54.5523 31.5004 54.6942C31.6061 54.7795 31.7406 54.8147 31.8686 54.85C34.0138 55.4019 36.1869 55.7422 38.3461 55.8619C38.8414 55.8906 39.3515 55.9046 39.7902 55.7061C39.9952 57.4684 40.201 59.2175 40.3987 60.9585C40.4126 61.0438 40.4265 61.1356 40.4766 61.2135C40.5618 61.3267 40.7103 61.3693 40.8448 61.3907C42.0412 61.6244 43.2516 61.7663 44.4546 61.8228C44.5251 61.8302 44.603 61.8302 44.6596 61.7876C44.7375 61.731 44.7515 61.6178 44.7588 61.5186C44.8433 60.1385 44.9286 58.7575 45.0139 57.3634C45.0491 56.8681 45.0631 56.3228 44.7662 55.9054C45.2402 55.948 45.7216 55.9833 46.2029 56.0046C47.0312 56.0473 47.8594 56.0612 48.6803 56.0473C48.7156 57.9161 48.7443 59.7637 48.7795 61.6039C48.7795 61.717 48.7869 61.8376 48.8435 61.9434C48.9353 62.1066 49.1404 62.1697 49.3249 62.2124C50.4926 62.4813 51.7104 62.4674 52.8502 62.1836C53.2537 62.0844 53.6432 61.9499 54.018 61.7802C54.223 61.6883 54.4354 61.5817 54.5559 61.3841C54.6765 61.1856 54.6765 60.9314 54.6691 60.6903C54.6264 59.9113 54.6338 59.1257 54.7183 58.354C54.7823 57.83 54.5551 56.7402 54.7888 56.3228C54.902 56.1317 55.1496 56.0677 55.3768 56.0325C55.8655 55.9406 56.3469 55.8554 56.8283 55.7709C57.8615 55.5872 58.9022 55.4027 59.9002 55.0845C64.2325 53.7109 67.6307 49.6903 68.2039 45.1595C68.7919 40.5369 66.413 35.6314 62.3357 33.1958C65.1673 32.566 67.4749 30.1805 68.5016 27.3629L68.5008 27.3645ZM62.4981 36.8713C62.6612 36.7581 62.8802 36.7934 62.9934 36.9566C65.3223 40.3048 65.3928 45.0332 63.1566 48.4454C63.086 48.552 62.9729 48.6086 62.8589 48.6086C62.7949 48.6086 62.7244 48.5873 62.6678 48.552C62.5046 48.4454 62.4554 48.2265 62.5612 48.0633C64.6425 44.8774 64.5785 40.482 62.4128 37.36C62.2996 37.2042 62.3423 36.9779 62.4981 36.8713ZM53.9679 14.4808C56.1624 15.1179 58.5692 16.0027 59.9002 18.1833C62.5686 22.5648 59.6878 28.6741 55.8016 30.4298C55.2989 30.6635 54.7823 30.8259 54.2582 30.9465C52.5452 31.336 50.7329 31.2081 48.9632 31.0104C47.7955 30.8833 46.6269 30.7127 45.4518 30.6357C44.4112 30.5651 43.1368 30.8481 42.1388 30.4159C41.6361 30.1961 41.3811 29.8214 41.24 29.3753C41.0916 28.9078 41.0842 28.3559 41.0703 27.8319C40.9423 23.6128 40.7939 19.3157 40.7308 14.9482C40.7234 14.3815 40.7595 13.9715 40.8792 13.6812C40.8932 13.6459 40.9071 13.6173 40.9284 13.5894C40.9497 13.5541 40.9711 13.5115 40.9989 13.4836C41.2113 13.2072 41.5795 13.0801 42.1954 13.0514C46.0537 12.8464 50.1949 13.3843 53.9679 14.4816V14.4808ZM38.0189 22.1966C38.0189 21.9981 38.1821 21.8423 38.3732 21.8423C38.5642 21.8423 38.7274 21.9981 38.7274 22.1966V39.0305C38.7274 39.2289 38.5716 39.3847 38.3732 39.3847C38.1747 39.3847 38.0189 39.2289 38.0189 39.0305V22.1966ZM58.6545 49.4147C57.536 50.4267 56.2337 50.9933 54.8536 51.2975C52.9068 51.7223 50.7977 51.6444 48.8082 51.6092C47.8734 51.5878 41.9207 51.7576 41.9059 50.1724C41.8985 49.8682 42.0404 49.5353 42.0404 49.2023C42.0404 48.8341 42.0264 48.4659 42.0117 48.0977C41.9625 46.866 41.8132 45.6343 41.7714 44.3952C41.6796 41.712 41.6156 39.0083 41.5803 36.2686C41.5664 35.2632 41.5024 34.5694 42.5431 34.4989C45.7494 34.2791 49.0272 34.5276 52.2622 34.6473C54.9028 34.7465 57.8263 34.9729 59.7165 36.9689C60.3463 37.6339 60.8063 38.4556 61.1392 39.3117C62.5407 42.915 61.2811 47.021 58.6545 49.4131V49.4147ZM64.417 26.5994C64.353 26.706 64.2398 26.7552 64.1267 26.7552C64.0562 26.7552 63.9848 26.7339 63.9282 26.6912C63.765 26.5846 63.7232 26.3657 63.8364 26.2025C65.0394 24.4402 65.3444 22.0186 64.6507 19.7323C64.0422 17.7216 62.6965 15.8109 60.7571 14.1962C60.6087 14.0757 60.5874 13.8493 60.7145 13.7009C60.8416 13.5525 61.0613 13.5311 61.2098 13.6517C63.2558 15.3508 64.6786 17.3821 65.3297 19.5199C66.0874 22.0186 65.7471 24.6665 64.4161 26.5986L64.417 26.5994Z" fill="#FBD072"/>
<path d="M44.5085 62.1797C44.4806 62.1797 44.4552 62.178 44.4347 62.1772C43.2177 62.1198 41.9885 61.973 40.7805 61.7418C40.6428 61.7155 40.3549 61.6606 40.1844 61.4162C40.0794 61.2653 40.0605 61.098 40.0491 60.998L39.4857 56.172C39.1052 56.2483 38.7083 56.2368 38.3261 56.2155C36.1415 56.0908 33.9389 55.7481 31.7814 55.1945C31.6387 55.1576 31.4452 55.1068 31.2762 54.9682C31.0204 54.7583 30.9408 54.4548 30.8875 54.1875C30.5882 52.7008 30.4234 51.1853 30.3955 49.683C30.3939 49.5903 30.3897 49.4321 30.4676 49.2787C30.5972 49.0245 30.8654 48.9482 30.9794 48.9162C32.1807 48.5776 33.0459 48.548 34.1119 48.8375C34.6606 42.5552 34.4055 36.0735 34.1357 29.2196C33.9422 24.3018 33.7421 19.2208 33.8512 14.0963L30.9261 13.7699C30.4914 13.7215 29.5878 13.6215 29.1507 12.8875C28.8915 12.4546 28.8907 11.9379 28.8899 11.5607L28.8842 7.30384C28.8842 7.02174 28.8825 6.49692 29.2491 6.20662C29.5057 6.00243 29.8198 6.01554 30.0281 6.02456L40.0835 6.45182C39.4832 4.68216 39.3496 2.74848 39.7112 0.9493C39.7375 0.817273 39.8359 0.712302 39.9662 0.67704C41.5342 0.254716 43.162 0.089073 44.802 0.191579C45.0177 0.2047 45.4671 0.232577 45.7631 0.576996C45.9919 0.843511 46.0403 1.18302 46.0698 1.50776C46.2051 3.01664 46.2831 4.38202 45.8566 5.81546C45.7377 6.21728 45.7689 6.52315 45.9534 6.75195C46.2937 7.17509 47.1359 7.31532 47.8256 7.26448C48.0183 7.25217 48.1896 7.3965 48.2036 7.59167C48.2183 7.78684 48.0716 7.95578 47.8764 7.97054C47.0301 8.03041 45.937 7.86064 45.4015 7.19558C45.1702 6.90857 44.9439 6.40098 45.1776 5.61373C45.5688 4.29838 45.4974 3.05683 45.3638 1.57172C45.3138 1.01573 45.2408 0.928791 44.7586 0.899269C43.2686 0.807424 41.7917 0.945208 40.364 1.30603C40.0499 3.08471 40.2483 4.99132 40.9273 6.69865C40.9716 6.81018 40.956 6.93645 40.8871 7.03404C40.8174 7.13162 40.7035 7.18821 40.5837 7.18247L29.9986 6.73309C29.9018 6.72817 29.7403 6.72241 29.6894 6.7626C29.591 6.83968 29.5918 7.18903 29.5927 7.30384L29.5984 11.5607C29.5984 11.9559 29.6115 12.2782 29.7591 12.5259C29.9732 12.8842 30.4119 13.0015 31.0048 13.0679L34.253 13.4304C34.4359 13.4509 34.572 13.6067 34.5679 13.7904C34.4424 19.0026 34.6466 24.1837 34.8442 29.1933C35.1214 36.2285 35.383 42.8733 34.7795 49.3369C34.7696 49.4444 34.7106 49.5411 34.6204 49.6002C34.5302 49.6592 34.4178 49.674 34.3161 49.6395C33.1837 49.2656 32.3923 49.2558 31.1745 49.5993C31.1352 49.6108 31.1098 49.619 31.095 49.6256C31.104 49.6313 31.104 49.6576 31.1048 49.6699C31.1311 51.132 31.2918 52.6048 31.5821 54.0497C31.6124 54.1973 31.651 54.3605 31.7272 54.4229C31.7756 54.4631 31.874 54.4876 31.9593 54.5106C34.0718 55.0526 36.2285 55.3889 38.368 55.5111C38.8346 55.5365 39.2848 55.548 39.6456 55.3872C39.7481 55.3405 39.867 55.3462 39.9654 55.4028C40.063 55.4586 40.1286 55.5578 40.1417 55.6693L40.7535 60.9193C40.7568 60.9472 40.7625 61.0029 40.7707 61.0201C40.7707 61.0144 40.8076 61.0292 40.9142 61.0488C42.0705 61.2703 43.2456 61.4113 44.4101 61.4703L44.6635 57.3439C44.6922 56.874 44.6995 56.4262 44.4789 56.1171C44.3658 55.958 44.4027 55.7366 44.5618 55.6234C44.7217 55.5102 44.9423 55.5471 45.0554 55.7054C45.44 56.245 45.3982 56.9322 45.3703 57.3865L45.1153 61.5441C45.1087 61.6581 45.0923 61.9279 44.8586 62.0862C44.7373 62.169 44.6069 62.183 44.5109 62.183L44.5085 62.1797Z" fill="#0E2365"/>
<path d="M50.9005 51.9921C50.3478 51.9921 49.7951 51.9814 49.2489 51.9708L48.8012 51.9626C48.606 51.9593 48.4502 51.7978 48.4535 51.6026C48.4568 51.4091 48.615 51.2549 48.8077 51.2549C48.8094 51.2549 48.8119 51.2549 48.8135 51.2549L49.2621 51.2631C51.1113 51.2984 53.0179 51.3353 54.7752 50.9498C56.2538 50.6251 57.4453 50.0371 58.4179 49.1507C61.0986 46.7094 62.0826 42.7166 60.8107 39.4421C60.4622 38.5417 60.0063 37.7914 59.4577 37.2116C57.7003 35.3558 54.931 35.1033 52.2454 35.0032C51.5606 34.9778 50.8734 34.9466 50.1846 34.9155C47.672 34.8015 45.0733 34.6834 42.5664 34.8556C42.3917 34.8769 42.2031 34.7228 42.1892 34.5268C42.176 34.3316 42.3237 34.1627 42.518 34.1496C45.0659 33.9741 47.6843 34.093 50.2166 34.2078C50.903 34.2389 51.5893 34.2701 52.2724 34.2955C55.1041 34.4005 58.0316 34.6752 59.9727 36.7245C60.5844 37.3707 61.0887 38.1989 61.4709 39.1855C62.8453 42.7264 61.7866 47.039 58.8951 49.6738C57.8274 50.6456 56.5293 51.2893 54.9269 51.6411C53.6198 51.9281 52.2569 51.9921 50.9005 51.9921Z" fill="#0E2365"/>
<path d="M51.7616 31.5496C50.8087 31.5496 49.8533 31.4652 48.9283 31.3618C48.579 31.3225 48.2288 31.2798 47.8795 31.238C47.0758 31.1396 46.2443 31.0387 45.4308 30.9854C45.1126 30.9649 44.7641 30.9789 44.3976 30.9945C43.5849 31.0281 42.7443 31.0633 41.9956 30.7353C41.8161 30.6574 41.7349 30.4483 41.8128 30.2687C41.8915 30.0891 42.0998 30.0079 42.2794 30.0867C42.878 30.3483 43.6357 30.3179 44.368 30.2868C44.7379 30.272 45.1208 30.2556 45.4767 30.2786C46.3115 30.3327 47.1521 30.4352 47.9664 30.5344C48.3133 30.5771 48.6602 30.6189 49.007 30.6574C50.9792 30.8772 52.6144 30.9518 54.1791 30.5984C54.7006 30.4803 55.1976 30.3155 55.6576 30.1072C57.6479 29.2059 59.4249 27.0328 60.1834 24.5702C60.8764 22.3241 60.6681 20.119 59.5971 18.3633C58.3146 16.2591 55.9692 15.4308 53.8724 14.8191C50.0747 13.7112 45.9343 13.2068 42.2162 13.4004C42.0211 13.4069 41.8546 13.2601 41.8447 13.0658C41.8349 12.8706 41.9842 12.7042 42.1802 12.6943C45.9753 12.495 50.1986 13.01 54.0708 14.1409C56.4588 14.8371 58.8541 15.7867 60.2015 17.9959C61.3791 19.9279 61.6128 22.3372 60.86 24.7802C60.0317 27.4691 58.1497 29.7578 55.9495 30.7542C55.4468 30.9813 54.904 31.1617 54.3357 31.2905C53.4968 31.4799 52.6308 31.5496 51.7632 31.5496H51.7616Z" fill="#0E2365"/>
<path d="M48.2208 51.5681C48.1331 51.5468 48.0011 51.614 47.9076 51.614C47.8395 51.614 47.7682 51.5984 47.6985 51.5976C47.5599 51.596 47.4213 51.5952 47.2827 51.5927C46.9727 51.5878 46.6619 51.5796 46.352 51.5665C45.6836 51.5386 45.0153 51.491 44.3527 51.3983C43.7844 51.3188 43.1989 51.2146 42.6683 50.9859C42.3411 50.8448 41.9442 50.6144 41.8975 50.2224C41.895 50.2027 41.8934 50.183 41.8934 50.1634C41.8975 49.8673 42.0402 49.527 42.0418 49.2088C42.0402 48.8267 42.0393 48.465 42.0147 48.1034C41.9557 46.8643 41.8261 45.6408 41.7663 44.3886C41.6834 41.7111 41.6236 39.0033 41.5875 36.2644C41.5695 35.2549 41.5006 34.5792 42.5453 34.5021C44.0279 34.3988 45.518 34.4078 47.0334 34.439C46.716 34.4414 46.3987 34.4447 46.083 34.4701C45.0374 34.5472 45.1014 35.2221 45.1129 36.2324C45.1293 38.9722 45.1686 41.68 45.2326 44.3583C45.2834 45.6105 45.404 46.834 45.454 48.073C45.4843 48.8168 45.3663 49.6033 45.7845 50.265C46.0371 50.6644 46.4373 50.9531 46.867 51.1499C47.2967 51.3467 47.76 51.4574 48.2192 51.5681H48.2208Z" fill="#0E2365"/>
<path d="M46.4766 30.7044C46.165 30.7044 45.7377 30.6544 45.4482 30.6347C44.4109 30.5757 43.1234 30.8389 42.1369 30.4125C41.0979 29.9631 41.0987 28.8569 41.0807 27.8392C40.9511 23.6086 40.7937 19.3041 40.7371 14.9481C40.7248 13.5778 40.9232 13.1087 42.1935 13.048C43.2858 12.9882 44.4084 13.0021 45.5589 13.0652C44.5708 13.1727 44.4215 13.6655 44.4166 14.9136C44.442 19.2697 44.5675 23.5749 44.6659 27.8064C44.6799 28.4099 44.6602 29.0537 44.9226 29.6129C45.2178 30.2427 45.8944 30.4043 46.4758 30.7036L46.4766 30.7044Z" fill="#0E2365"/>
<path d="M56.3562 26.8022C56.3144 26.8022 56.2718 26.7948 56.23 26.7784C56.0471 26.7087 55.9561 26.5045 56.0258 26.3216C56.9155 23.9886 56.4063 21.1594 54.7588 19.2824C54.63 19.1356 54.6448 18.9117 54.7908 18.7829C54.9376 18.655 55.1614 18.6682 55.291 18.8158C57.1066 20.8847 57.6683 24.0017 56.6875 26.5734C56.6334 26.7144 56.4998 26.8014 56.3571 26.8014L56.3562 26.8022Z" fill="#0E2365"/>
<path d="M55.0711 49.2953C55.0113 49.2953 54.9514 49.2805 54.8965 49.2485C54.7267 49.1518 54.6668 48.9361 54.7636 48.7663C56.0445 46.5071 55.8813 43.4565 54.3651 41.3474C54.2511 41.1883 54.2872 40.9677 54.4463 40.8529C54.6045 40.7406 54.8259 40.775 54.9399 40.9341C56.6382 43.2975 56.8145 46.585 55.3786 49.1157C55.3139 49.2305 55.1941 49.2953 55.0711 49.2953Z" fill="#0E2365"/>
<path d="M28.4233 57.3548C28.3733 57.3548 28.3233 57.3441 28.2749 57.3219C25.7237 56.1427 24.2214 53.0733 24.8553 50.3351C24.8988 50.1457 25.089 50.0244 25.2801 50.0703C25.4703 50.1146 25.5892 50.3048 25.545 50.4951C24.9841 52.9191 26.3133 55.6351 28.5717 56.6799C28.7489 56.7619 28.8268 56.9718 28.7448 57.1497C28.6849 57.2793 28.557 57.3556 28.4233 57.3556V57.3548Z" fill="#0E2365"/>
<path d="M79.1761 55.5032C79.0785 55.5032 78.9809 55.463 78.9112 55.3843C78.7816 55.2384 78.7948 55.0145 78.9407 54.8849C80.3963 53.5942 80.6185 51.1201 79.4172 49.5899C79.2966 49.4357 79.3229 49.2135 79.477 49.0929C79.6288 48.9724 79.8518 48.9994 79.9732 49.1528C81.3943 50.9618 81.1311 53.8877 79.4106 55.4147C79.3426 55.4745 79.2597 55.504 79.1753 55.504L79.1761 55.5032Z" fill="#0E2365"/>
</svg>
