<svg width="174" height="92" viewBox="0 0 174 92" fill="none" xmlns="http://www.w3.org/2000/svg">
<path d="M110.272 22.4068C108.053 19.2522 97.2598 19.2688 93.1724 21.2409C91.0304 22.2669 91.4802 23.3828 91.4968 25.3016C91.5368 26.4709 91.5734 27.5802 91.8533 28.6328C93.0325 28.7161 109.009 27.6768 109.292 27.6668C110.651 27.5935 111.408 28.2931 110.981 25.3183C110.858 24.0491 110.785 23.133 110.272 22.4068Z" fill="#558DFD"/>
<path d="M128.417 22.2235C125.629 22.4367 124.972 22.3468 123.43 22.4701C121.984 22.5866 120.619 22.8331 119.932 21.7072C119.146 20.408 118.766 19.7152 118.153 19.0856C112.787 13.5891 92.8461 13.8822 86.0804 19.6252C85.6274 20.0049 84.9577 19.9083 84.6346 19.4386C81.3867 14.7782 57.7084 15.601 52.6616 23.2628C50.8894 25.9511 49.8234 25.2982 46.6121 25.3749C45.9892 25.3882 42.6713 25.4248 42.3748 25.5047C41.9518 25.8912 41.9484 26.1577 42.3082 27.1071C42.598 27.8633 43.9171 27.6634 44.7666 27.5702C49.6835 27.1071 51.519 26.3743 52.0619 28.1498L52.3585 29.1058C52.7882 30.4916 51.8155 32.0906 49.0406 31.8474C47.3317 31.7042 45.1497 31.8307 43.5441 32.0106C43.6107 32.4437 43.7773 32.8735 44.0404 33.2965C53.3745 33.6196 51.5657 29.429 52.2186 39.1961C52.4984 39.1928 58.8111 39.0462 59.3874 38.873L59.6272 37.8836C59.7371 37.5238 59.5073 36.0314 60.6965 35.9981C77.6424 35.555 94.9248 33.9761 111.817 33.9761C112.957 33.9761 113.296 34.8755 112.887 35.5017C112.68 35.8215 112.62 35.9082 112.907 36.2713C116.604 36.118 119.802 35.7549 120.212 35.675C120.778 34.4624 121.062 33.2566 121.062 32.0807C120.335 31.531 120.712 30.2651 121.585 30.1885L129.936 29.4456C130.022 29.1291 130.086 28.816 130.119 28.5062C122.757 28.7227 122.427 28.7194 121.861 28.9127C121.178 29.1392 120.505 28.6029 120.555 27.9066C120.875 23.5794 117.8 24.8452 130.322 23.9758C130.369 23.9758 130.432 23.9691 130.496 23.9658C130.622 23.4261 130.326 22.8864 129.609 22.3568C129.32 22.1436 129.017 22.1836 128.417 22.2202V22.2235ZM81.5333 28.1065C82.3828 31.6109 78.1088 30.968 74.1946 31.3111C70.397 31.5243 66.5995 31.7375 62.7985 31.9207C61.3395 31.9873 59.967 32.0107 59.5872 30.5683C59.0509 28.5296 59.354 26.231 60.4433 24.0923C61.0996 22.8031 62.1256 21.3674 64.7439 20.488C69.2211 18.9889 78.6284 19.3587 81.0436 22.8132C82.446 24.8219 81.2502 26.9505 81.5333 28.1065ZM109.939 29.6455C109.546 29.6289 94.1819 30.6082 92.2465 30.6082C91.1938 30.6082 90.3343 30.4284 90.0445 29.4856C89.5548 27.9033 89.5482 26.271 89.4816 24.3356C89.4183 23.1363 89.3017 20.9077 92.3164 19.4653C96.0474 17.6664 103.786 17.2667 108.709 19.0622C111.767 20.1782 112.63 21.8371 112.893 24.6487C112.923 24.9285 112.967 25.3182 112.937 25.0384C113.326 27.7967 112.783 29.7621 109.939 29.6455Z" fill="#558DFD"/>
<path d="M165.227 19.6891C157.365 12.6036 146.945 9.14579 136.705 6.52412C98.6321 -3.22969 56.339 -3.48282 22.0641 15.725C13.3196 20.6252 2.6797 28.5635 0.714283 38.8436C-1.30444 49.4036 0.867503 64.1908 8.35941 72.2257C12.9931 77.1959 19.529 79.8776 25.9583 82.0595C63.2246 94.7215 104.455 95.3045 142.035 83.7085C152.741 80.404 163.921 75.5037 169.53 65.7866C176.036 54.5204 175.247 28.7167 165.227 19.6858V19.6891ZM140.692 38.6371C127.654 46.682 97.7061 49.89 81.2066 49.89C64.707 49.89 23.13 46.9252 25.0821 30.972C25.8983 24.3295 35.2124 18.6598 43.657 15.5684C65.3099 7.64013 93.3921 5.93783 122.73 10.7781C129.606 11.9107 136.698 13.4164 141.985 16.7177C151.442 22.6273 150.473 32.601 140.692 38.6371Z" fill="#558DFD"/>
<path d="M79.7109 25.9018C79.8109 25.0857 79.7976 24.4693 79.4278 23.9397C78.1586 22.1308 73.0319 21.5879 70.7067 21.5879C68.8645 21.5879 66.9924 21.8143 65.3734 22.354C63.338 23.0369 62.6918 24.0297 62.2021 24.9857C61.336 26.6913 61.0828 28.4935 61.4992 30.0625C61.4925 29.9759 61.9489 29.9825 62.7084 29.9492C63.2548 29.9226 79.2912 29.1797 79.7309 28.82C79.6177 28.8766 79.5044 27.9238 79.5044 27.7939C79.5111 27.3309 79.5744 26.8712 79.6443 26.4082L79.7143 25.9018H79.7109Z" fill="#558DFD"/>
<path d="M140.939 18.3935C130.618 11.9443 102.873 10.0488 90.6605 10.0488C73.5513 10.0488 57.6947 12.5306 44.3365 17.4209C34.4128 21.0552 27.6238 26.4684 27.0409 31.2121C26.7077 33.937 28.3533 36.5454 31.9277 38.9638C36.9546 42.365 44.1567 44.0273 49.8697 45.0966C88.4186 52.302 128.06 44.1139 139.653 36.9584C148.101 31.7451 149.207 23.5603 140.935 18.3935H140.939ZM131.201 25.8454C130.732 25.972 130.705 25.9321 122.52 26.3985C122.53 26.5284 122.537 26.6616 122.544 26.7915C123.35 26.7183 123.996 26.7315 130.449 26.5883C130.882 26.5783 131.205 26.585 131.498 26.7283C131.828 26.8882 132.117 27.3512 132.127 27.7176C132.144 28.6204 132.004 29.5264 131.701 30.4225C131.528 30.9622 131.121 31.1954 130.815 31.2987C130.472 31.412 130.715 31.362 123.037 32.0449C122.95 32.7578 123.12 34.2335 121.911 36.7086C121.854 36.8285 121.694 37.155 121.288 37.3815C120.378 37.8945 114.006 38.2109 113.016 38.2509C112.44 38.2842 111.947 38.1877 111.547 37.7246C111.147 37.2583 110.758 36.6786 110.741 35.9591C94.4981 36.0224 77.8953 37.4948 61.6089 37.9545C61.4191 38.6074 61.8288 40.2063 59.9633 40.766C59.427 40.9292 58.8207 40.9592 58.1978 40.9792C52.2449 41.1758 52.4781 41.1724 52.1949 41.1724C51.1456 41.1724 50.3161 40.846 50.2761 39.81L50.0463 34.8331C47.931 35.2062 45.6324 35.3527 43.4671 35.2528C43.1773 35.2395 42.9075 35.0963 42.7309 34.8664C41.6849 33.4973 40.8255 30.9955 42.3945 30.2793C43.3605 29.8429 47.5445 29.7463 49.2068 29.8863C50.2395 29.9662 50.4826 29.723 50.4859 29.7197L50.2561 28.9802C49.38 28.9202 44.5464 29.7596 43.0374 29.6164C41.7249 29.4932 40.8821 28.9036 40.469 27.8109C40.1559 26.9814 39.5729 25.4357 40.9821 24.1066C41.1386 23.9567 41.4051 23.7335 41.8515 23.6069C42.591 23.4037 47.0482 23.4004 47.6911 23.4171C49.9996 23.4803 50.1195 23.5436 51.019 22.1778C51.9251 20.802 54.4401 18.6733 57.3116 17.4274C63.9507 14.5359 80.1471 12.7638 85.5604 17.5407C94.0516 11.5379 113.809 11.8044 119.569 17.7073C120.305 18.4602 120.671 19.1097 121.624 20.6821C122.037 20.5155 128.986 20.1491 129.682 20.279C130.202 20.3723 130.548 20.5888 130.788 20.7687C133.35 22.6641 132.69 25.419 131.208 25.8421L131.201 25.8454Z" fill="#558DFD"/>
<path d="M28.9135 52.2783C19.6827 49.6699 8.4832 45.4126 3.74954 35.5689C3.18323 34.393 4.96205 33.5402 5.52836 34.7127C9.9189 43.8469 20.6188 47.8844 29.4499 50.3795C77.576 63.9875 127.311 55.796 146.712 44.3766C154.794 39.6163 160.807 32.9472 163.638 25.5985C164.104 24.3826 165.95 25.0889 165.48 26.3081C162.489 34.0698 156.179 41.092 147.711 46.0755C128.031 57.6581 77.9357 66.1361 28.9135 52.2783Z" fill="#0E2365"/>
<path d="M14.6661 74.7203C14.1331 74.7203 13.6966 74.2972 13.68 73.7642C13.4568 66.329 14.3496 58.9236 16.3317 51.7582C16.6748 50.5023 18.5803 51.022 18.2338 52.2812C16.305 59.2601 15.4389 66.4689 15.6555 73.7043C15.6721 74.2506 15.2423 74.7037 14.6994 74.7203H14.6694H14.6661Z" fill="#0E2365"/>
<path d="M45.8729 82.4788L48.5911 63.3776C48.7743 62.0884 50.7298 62.3615 50.5433 63.6574L47.8249 82.7586C47.6417 84.0478 45.6863 83.7746 45.8729 82.4788Z" fill="#0E2365"/>
<path d="M85.4042 87.8683C84.6513 87.6318 84.6946 86.8822 84.598 86.0861C84.1983 85.7963 84.2382 85.2466 84.4681 84.9568C83.7019 77.7148 84.0284 70.4294 85.4542 63.2739C85.7107 61.988 87.6427 62.3844 87.3896 63.6603C85.9671 70.8124 85.6673 78.0945 86.4968 85.3299C87.3862 86.5158 86.5401 88.2214 85.4075 87.8683H85.4042Z" fill="#0E2365"/>
<path d="M125.039 85.3742C124.583 80.1642 123.194 75.134 120.912 70.427C120.342 69.2511 122.114 68.3949 122.687 69.5675C125.076 74.491 126.528 79.7511 127.008 85.201C127.118 86.4968 125.159 86.6767 125.039 85.3742Z" fill="#0E2365"/>
<path d="M157.638 69.8009C157.115 69.8009 156.682 69.3944 156.656 68.8681C155.836 54.2141 153.641 52.2719 155.56 51.9222C156.113 51.8256 156.609 52.1787 156.706 52.7117C157.678 58.005 158.325 63.4016 158.621 68.7582C158.654 69.3011 158.235 69.7676 157.692 69.7975C157.672 69.7975 157.655 69.7975 157.638 69.7975V69.8009Z" fill="#0E2365"/>
</svg>
