<svg width="135" height="142" viewBox="0 0 135 142" fill="none" xmlns="http://www.w3.org/2000/svg">
<path d="M-3.77877 95.4143C-3.86048 94.8276 -3.45136 94.2838 -2.86473 94.2021C6.76535 92.8472 16.5246 90.3384 23.1083 83.1225C6.92412 78.3767 2.58761 62.3883 10.0575 56.1711C20.7483 47.2696 38.6545 64.6529 26.9013 81.7882C44.731 84.6413 58.7125 71.6669 67.5194 55.8984C67.8094 55.3811 68.4639 55.1961 68.98 55.4839C69.495 55.7696 69.6842 56.4216 69.3945 56.9445C62.2218 69.7872 53.4378 78.2879 43.2832 82.2041C37.4165 84.4679 31.147 84.883 25.4484 83.7048C18.5785 91.9256 8.08495 94.8289 -2.56351 96.3237C-3.13781 96.407 -3.6898 96.0139 -3.77563 95.4097L-3.77877 95.4143ZM11.4314 57.8208C5.08073 63.1075 9.6291 77.6197 24.5976 81.3225C35.8795 66.2149 20.4479 50.3155 11.4314 57.8208Z" fill="#0E2365"/>
<path d="M98.0691 97.4762C94.9075 86.033 91.7472 74.592 88.5857 63.1488C99.8445 67.1029 111.913 71.1047 123.484 68.1825C86.2377 53.3255 88.2048 54.3118 87.466 53.3479C86.2199 51.7181 87.5423 49.4443 88.7391 47.7786C94.5056 39.7649 97.9111 30.0729 98.4249 20.214C92.6094 28.5284 86.7951 36.845 80.9797 45.1593C79.8503 34.7631 74.419 24.8995 66.2364 18.3899C66.6738 31.3127 68.3466 44.194 71.2224 56.8015C61.3148 50.8707 49.51 48.1657 38.0101 49.1948C46.0277 55.8276 54.6015 61.7407 63.9842 66.2068C62.9651 73.2349 61.9469 80.2595 60.9278 87.2876C65.8231 81.9797 70.7194 76.6685 75.6147 71.3607C77.1911 72.9034 78.7381 74.3115 80.4561 75.633C83.7342 78.1559 86.0829 83.0756 88.6409 86.3354C91.6462 90.1635 94.7903 93.883 98.0681 97.4796L98.0691 97.4762Z" fill="#01B990"/>
<path d="M70.1758 57.0393C67.288 44.3845 65.6024 31.3936 65.1618 18.4242C65.1422 17.8314 65.6058 17.3343 66.1985 17.3146C66.7912 17.295 67.2884 17.7585 67.3081 18.3512C67.7437 31.1838 69.4131 44.0386 72.2661 56.559C72.3998 57.1367 72.0366 57.7119 71.4589 57.8455C70.8801 57.977 70.3015 57.6128 70.1746 57.0371L70.1758 57.0393Z" fill="#0E2365"/>
<path d="M87.8659 47.1519C93.4834 39.3463 96.8514 29.7606 97.3509 20.1574C97.3825 19.5647 97.8868 19.1102 98.4796 19.1418C99.0724 19.1734 99.5269 19.6778 99.4953 20.2706C98.9759 30.2778 95.4644 40.2708 89.6099 48.4076C89.2638 48.8907 88.5914 48.9974 88.1117 48.6523C87.6412 48.3134 87.5135 47.6442 87.8671 47.1541L87.8659 47.1519Z" fill="#0E2365"/>
<path d="M97.0347 97.7612C87.4111 62.0824 86.9443 63.2079 87.8523 62.3636C88.1442 62.09 88.5624 62.0024 88.9415 62.1359C99.0248 65.6768 111.572 70.0838 123.219 67.1393C124.601 66.7885 125.121 68.8736 123.746 69.2208C112.225 72.1318 100.166 68.3246 90.1672 64.839L99.1041 97.1872C99.2609 97.7605 98.9262 98.3511 98.3563 98.5089C97.7809 98.667 97.1922 98.3256 97.0368 97.76L97.0347 97.7612Z" fill="#0E2365"/>
<path d="M59.8639 87.1316L62.919 66.0488C63.0055 65.4625 63.551 65.0563 64.136 65.1406C64.7257 65.2281 65.1264 65.7738 65.0464 66.3565L62.4873 84.0083L74.8247 70.628C75.2274 70.1903 75.9045 70.1636 76.341 70.5641C76.7811 70.9711 76.8032 71.645 76.4027 72.0815L61.7171 88.0105C61.0129 88.7813 59.7201 88.1827 59.8649 87.1283L59.8639 87.1316Z" fill="#0E2365"/>
<path d="M54.4559 36.9498L49.0664 24.3636C48.8339 23.8182 49.0866 23.1878 49.6308 22.9532C50.1762 22.7207 50.8113 22.9765 51.0413 23.5176L56.4308 36.1037C56.6632 36.6492 56.4105 37.2796 55.8663 37.5142C55.3144 37.7503 54.6835 37.4865 54.4559 36.9498Z" fill="#0E2365"/>
<path d="M83.1325 26.8087C82.7852 26.1848 83.0268 26.5372 85.0677 14.3732C85.1698 13.7895 85.7272 13.3995 86.3109 13.5017C86.8945 13.6039 87.2855 14.1579 87.1823 14.7449L85.1279 26.4752C84.9538 27.4718 83.6204 27.6902 83.1315 26.8121L83.1325 26.8087Z" fill="#0E2365"/>
<path d="M100.817 50.2484C105.612 48.53 110.575 47.0915 115.561 45.9727C116.139 45.8446 116.716 46.2065 116.842 46.7856C116.972 47.3657 116.608 47.9409 116.031 48.069C111.129 49.1662 106.254 50.5819 101.542 52.271C100.192 52.7519 99.4745 50.7312 100.817 50.2484Z" fill="#0E2365"/>
<path d="M108.249 76.8907C108.725 76.5377 109.397 76.6359 109.752 77.1136C111.778 79.8491 114.099 82.3699 116.648 84.6178C117.086 85.0094 117.137 85.6898 116.746 86.1326C116.353 86.5788 115.674 86.6212 115.231 86.2299C112.568 83.8857 110.144 81.2513 108.028 78.395C107.671 77.913 107.779 77.2434 108.252 76.895L108.249 76.8907Z" fill="#0E2365"/>
</svg>
