<svg width="126" height="66" viewBox="0 0 126 66" fill="none" xmlns="http://www.w3.org/2000/svg">
<path d="M79.6553 16.0747C78.0637 13.8115 70.3208 13.8235 67.3885 15.2382C65.8519 15.9743 66.1745 16.7749 66.1865 18.1514C66.2151 18.9902 66.2414 19.786 66.4422 20.5412C67.2882 20.6009 78.7496 19.8553 78.9527 19.8482C79.9277 19.7956 80.4702 20.2974 80.1643 18.1633C80.0759 17.2528 80.0234 16.5956 79.6553 16.0747Z" fill="#558DFD"/>
<path d="M92.6736 15.9438C90.6734 16.0968 90.2026 16.0322 89.0961 16.1207C88.059 16.2043 87.0792 16.3811 86.5869 15.5734C86.0229 14.6414 85.7504 14.1443 85.3107 13.6927C81.4607 9.74952 67.1555 9.95979 62.3018 14.0798C61.9768 14.3522 61.4964 14.2829 61.2646 13.9459C58.9346 10.6026 41.948 11.1929 38.3274 16.6894C37.0561 18.618 36.2914 18.1496 33.9876 18.2046C33.5407 18.2141 31.1605 18.2404 30.9478 18.2977C30.6443 18.5749 30.6419 18.7661 30.9 19.4472C31.1079 19.9897 32.0543 19.8464 32.6637 19.7794C36.191 19.4473 37.5077 18.9215 37.8973 20.1953L38.11 20.8811C38.4183 21.8753 37.7205 23.0224 35.7298 22.8479C34.5038 22.7451 32.9385 22.8359 31.7866 22.965C31.8344 23.2757 31.9539 23.584 32.1427 23.8875C38.8389 24.1193 37.5412 21.1129 38.0096 28.1198C38.2104 28.1174 42.739 28.0123 43.1525 27.888L43.3245 27.1782C43.4034 26.9201 43.2385 25.8495 44.0916 25.8256C56.2485 25.5077 68.6467 24.375 80.7653 24.375C81.5826 24.375 81.8264 25.0202 81.5324 25.4695C81.3843 25.6989 81.3413 25.7611 81.5468 26.0215C84.1994 25.9116 86.4936 25.6511 86.7876 25.5938C87.1938 24.7239 87.397 23.8588 87.397 23.0152C86.876 22.6209 87.1461 21.7128 87.7722 21.6578L93.7633 21.1249C93.8255 20.8978 93.8709 20.6732 93.8948 20.4509C88.6133 20.6063 88.3768 20.6039 87.9705 20.7425C87.4806 20.905 86.9979 20.5203 87.0337 20.0208C87.2631 16.9165 85.0574 17.8246 94.0406 17.2009C94.074 17.2009 94.1195 17.1961 94.1649 17.1937C94.2557 16.8065 94.0429 16.4194 93.5291 16.0394C93.3212 15.8865 93.1038 15.9151 92.6736 15.9414V15.9438ZM59.0398 20.1642C59.6492 22.6782 56.5831 22.217 53.7751 22.4632C51.0507 22.6161 48.3264 22.769 45.5996 22.9005C44.5529 22.9483 43.5683 22.965 43.2958 21.9303C42.9111 20.4677 43.1285 18.8187 43.91 17.2845C44.3808 16.3596 45.1168 15.3297 46.9952 14.6988C50.2071 13.6234 56.9558 13.8886 58.6884 16.3668C59.6945 17.8079 58.8366 19.3349 59.0398 20.1642ZM79.4175 21.2683C79.1355 21.2563 68.1138 21.9589 66.7253 21.9589C65.9701 21.9589 65.3535 21.8299 65.1456 21.1536C64.7943 20.0184 64.7896 18.8474 64.7418 17.459C64.6964 16.5987 64.6127 14.9999 66.7755 13.9651C69.452 12.6746 75.0035 12.3878 78.5356 13.6759C80.7294 14.4765 81.3484 15.6666 81.5372 17.6836C81.5587 17.8843 81.5898 18.1639 81.5683 17.9632C81.8479 19.9419 81.4584 21.3519 79.4175 21.2683Z" fill="#558DFD"/>
<path d="M119.081 14.1248C113.441 9.04171 105.966 6.56111 98.6195 4.68035C71.3067 -2.31695 40.9659 -2.49855 16.3774 11.281C10.1042 14.7963 2.47122 20.4912 1.06125 27.8661C-0.386963 35.4417 1.17117 46.05 6.5458 51.8141C9.86999 55.3797 14.5588 57.3035 19.1711 58.8688C45.9056 67.9524 75.484 68.3706 102.443 60.0518C110.124 57.6811 118.144 54.1657 122.169 47.1947C126.836 39.1124 126.269 20.6011 119.081 14.1224V14.1248ZM101.48 27.7179C92.1265 33.4893 70.6423 35.7906 58.8057 35.7906C46.9691 35.7906 17.1421 33.6637 18.5425 22.219C19.128 17.4538 25.8099 13.3864 31.868 11.1687C47.4016 5.48096 67.5475 4.25975 88.5944 7.73211C93.5269 8.54464 98.6148 9.62484 102.407 11.9931C109.192 16.2326 108.497 23.3876 101.48 27.7179Z" fill="#558DFD"/>
<path d="M57.7309 18.5816C57.8026 17.9961 57.7931 17.5539 57.5278 17.174C56.6173 15.8763 52.9394 15.4868 51.2714 15.4868C49.9498 15.4868 48.6068 15.6493 47.4453 16.0364C45.9852 16.5263 45.5215 17.2385 45.1702 17.9244C44.5489 19.148 44.3672 20.4408 44.666 21.5664C44.6612 21.5043 44.9886 21.509 45.5335 21.4851C45.9254 21.466 57.4298 20.9331 57.7453 20.675C57.664 20.7157 57.5828 20.0322 57.5828 19.939C57.5876 19.6068 57.6329 19.277 57.6831 18.9448L57.7333 18.5816H57.7309Z" fill="#558DFD"/>
<path d="M101.656 13.1954C94.252 8.56879 74.3475 7.20898 65.5865 7.20898C53.3125 7.20898 41.9371 8.98941 32.3541 12.4976C25.2349 15.1049 20.3645 18.9883 19.9463 22.3913C19.7074 24.3462 20.8879 26.2174 23.4521 27.9524C27.0583 30.3923 32.2251 31.5848 36.3236 32.3519C63.9782 37.521 92.4166 31.647 100.733 26.5137C106.794 22.7737 107.587 16.902 101.653 13.1954H101.656ZM94.6702 18.5413C94.3332 18.6322 94.3141 18.6035 88.4424 18.9381C88.4496 19.0313 88.4544 19.1269 88.4591 19.2201C89.0375 19.1675 89.5011 19.177 94.1301 19.0743C94.4408 19.0671 94.6726 19.0719 94.8829 19.1747C95.1195 19.2894 95.3274 19.6216 95.3346 19.8844C95.3465 20.5321 95.2461 21.1821 95.0287 21.8249C94.9044 22.2121 94.6129 22.3794 94.393 22.4534C94.1469 22.5347 94.3213 22.4989 88.8128 22.9888C88.7507 23.5002 88.8726 24.5589 88.0051 26.3345C87.9645 26.4205 87.8497 26.6547 87.5582 26.8172C86.9058 27.1852 82.3341 27.4122 81.6244 27.4409C81.2109 27.4648 80.8572 27.3955 80.5704 27.0634C80.2837 26.7288 80.0041 26.313 79.9921 25.7968C68.3395 25.8422 56.4288 26.8985 44.7452 27.2282C44.6089 27.6966 44.9029 28.8437 43.5646 29.2452C43.1799 29.3623 42.7449 29.3838 42.298 29.3982C38.0275 29.5392 38.1948 29.5368 37.9916 29.5368C37.2388 29.5368 36.6438 29.3026 36.6151 28.5594L36.4502 24.989C34.9327 25.2566 33.2838 25.3618 31.7304 25.2901C31.5225 25.2805 31.3289 25.1778 31.2023 25.0129C30.4519 24.0307 29.8353 22.236 30.9609 21.7222C31.6539 21.4091 34.6555 21.3398 35.848 21.4402C36.5888 21.4975 36.7632 21.3231 36.7656 21.3207L36.6007 20.7902C35.9722 20.7472 32.5047 21.3494 31.4221 21.2466C30.4805 21.1582 29.8759 20.7352 29.5796 19.9513C29.3549 19.3563 28.9367 18.2474 29.9476 17.2939C30.0599 17.1863 30.2511 17.0262 30.5713 16.9354C31.1019 16.7896 34.2994 16.7873 34.7606 16.7992C36.4167 16.8446 36.5028 16.89 37.148 15.9102C37.798 14.9232 39.6023 13.3961 41.6623 12.5023C46.4251 10.428 58.0443 9.15666 61.9277 12.5836C68.0193 8.27722 82.1931 8.4684 86.3251 12.7031C86.8532 13.2432 87.1161 13.7092 87.7996 14.8372C88.0959 14.7177 93.081 14.4548 93.5804 14.548C93.9532 14.6149 94.2018 14.7703 94.3739 14.8993C96.2116 16.2591 95.7384 18.2354 94.675 18.5389L94.6702 18.5413Z" fill="#558DFD"/>
<path d="M21.2896 37.504C14.6675 35.6328 6.63305 32.5787 3.23716 25.5169C2.8309 24.6733 4.107 24.0615 4.51327 24.9027C7.66301 31.4555 15.339 34.3519 21.6743 36.1418C56.1996 45.9041 91.8791 40.0276 105.797 31.8354C111.595 28.4204 115.908 23.6361 117.94 18.3642C118.274 17.4919 119.598 17.9986 119.261 18.8732C117.115 24.4414 112.589 29.4791 106.514 33.0542C92.3953 41.3635 56.4577 47.4455 21.2896 37.504Z" fill="#0E2365"/>
<path d="M11.0692 53.604C10.6869 53.604 10.3738 53.3005 10.3618 52.9181C10.2017 47.5841 10.8422 42.2716 12.2641 37.1312C12.5103 36.2302 13.8772 36.6031 13.6287 37.5064C12.245 42.513 11.6237 47.6845 11.779 52.8751C11.7909 53.2671 11.4826 53.5921 11.0931 53.604H11.0716H11.0692Z" fill="#0E2365"/>
<path d="M33.456 59.1699L35.4061 45.4669C35.5375 44.542 36.9403 44.7379 36.8065 45.6676L34.8564 59.3706C34.725 60.2955 33.3222 60.0995 33.456 59.1699Z" fill="#0E2365"/>
<path d="M61.8159 63.0364C61.2758 62.8667 61.3069 62.329 61.2376 61.7578C60.9508 61.5499 60.9794 61.1556 61.1443 60.9477C60.5947 55.7523 60.8289 50.5258 61.8517 45.3926C62.0358 44.4701 63.4218 44.7545 63.2402 45.6698C62.2197 50.8006 62.0047 56.0247 62.5997 61.2153C63.2378 62.0661 62.6308 63.2897 61.8183 63.0364H61.8159Z" fill="#0E2365"/>
<path d="M90.2479 61.2465C89.9205 57.5088 88.9239 53.9002 87.2869 50.5235C86.8783 49.6799 88.1496 49.0657 88.5607 49.9069C90.2741 53.439 91.3161 57.2125 91.6603 61.1222C91.7391 62.0518 90.3339 62.1809 90.2479 61.2465Z" fill="#0E2365"/>
<path d="M113.636 50.0743C113.261 50.0743 112.95 49.7827 112.931 49.4051C112.343 38.8924 110.768 37.4992 112.145 37.2482C112.541 37.1789 112.897 37.4323 112.967 37.8146C113.665 41.612 114.128 45.4835 114.341 49.3262C114.365 49.7158 114.064 50.0504 113.674 50.0719C113.66 50.0719 113.648 50.0719 113.636 50.0719V50.0743Z" fill="#0E2365"/>
</svg>
