<svg width="42" height="34" viewBox="0 0 42 34" fill="none" xmlns="http://www.w3.org/2000/svg">
<path d="M19.232 29.4947C20.7168 30.6668 22.3979 31.4363 24.2386 31.8299C31.6152 33.4098 38.6517 28.6879 39.9875 21.1769C41.339 13.5701 35.9591 6.64067 28.6929 5.71155C22.5241 4.92427 16.422 8.80036 14.5743 14.8681C14.5147 15.0649 14.4691 15.2723 14.3745 15.4514C14.1641 15.8468 13.8363 16.1057 13.3753 15.9905C12.8949 15.8717 12.632 15.5294 12.6828 15.0099C12.7056 14.7776 12.7547 14.54 12.8441 14.3255C13.384 13.0293 13.9397 11.7402 14.513 10.3997C14.2956 10.3873 14.0221 10.3572 13.7469 10.3572C10.9141 10.3536 8.08121 10.3572 5.24662 10.3536C4.98367 10.3536 4.71196 10.3802 4.46303 10.3164C4.03179 10.2065 3.75307 9.92276 3.74956 9.43515C3.74606 8.9493 3.99498 8.64964 4.44901 8.55744C4.73124 8.49893 5.02925 8.49715 5.31849 8.49715C8.70703 8.49361 12.0956 8.49183 15.4824 8.49715C15.9364 8.49715 16.301 8.41736 16.6569 8.06451C19.1934 5.55906 22.2542 4.17955 25.7724 3.81783C25.8583 3.80897 25.9425 3.78414 26.102 3.75045V1.88511C25.7935 1.86915 25.4814 1.86915 25.1747 1.83014C24.654 1.76453 24.2596 1.35848 24.2894 0.902786C24.3227 0.395667 24.612 0.0374925 25.1098 0.0250805C26.421 -0.00860921 27.7358 -0.0103824 29.047 0.0321731C29.5431 0.0481313 29.8464 0.422264 29.8341 0.929383C29.8236 1.43296 29.5046 1.74326 29.0172 1.82127C28.7052 1.87269 28.3844 1.85851 28.011 1.87624V3.7735C31.3995 4.06607 34.3761 5.29309 36.9636 7.54498C37.4123 7.07509 37.833 6.63358 38.2801 6.16547C38.0627 5.92255 37.833 5.69736 37.6385 5.44203C37.3071 5.00584 37.3299 4.47567 37.7016 4.17246C38.089 3.85684 38.5412 3.83379 38.8971 4.17601C39.8279 5.07144 40.7395 5.98993 41.6178 6.93679C41.9508 7.29674 41.9228 7.77194 41.5774 8.13898C41.2286 8.51134 40.7974 8.5202 40.3924 8.217C40.1365 8.0255 39.9138 7.78967 39.6824 7.57867C39.267 8.04146 38.8656 8.49183 38.4115 8.99541C38.4589 9.06279 38.6009 9.27556 38.7569 9.4777C45.6777 18.4569 40.9376 31.5232 29.9025 33.6917C24.9836 34.6581 20.5871 33.33 16.8725 29.8919C16.3764 29.4326 15.9013 29.25 15.2492 29.2553C11.6275 29.2784 8.00583 29.2677 4.38415 29.2624C4.0651 29.2624 3.7408 29.2465 3.43052 29.1791C3.00103 29.0851 2.80645 28.7482 2.8047 28.328C2.80294 27.9024 3.02382 27.5833 3.43227 27.468C3.67944 27.3989 3.95116 27.4077 4.21235 27.4059C9.79038 27.4024 15.3702 27.4024 20.9482 27.4059C21.9211 27.4059 22.3401 27.6985 22.3313 28.3528C22.3225 28.9947 21.9176 29.2571 20.9096 29.2642C20.3609 29.2695 19.8105 29.2642 19.2618 29.2642C19.2495 29.3387 19.2373 29.4131 19.2268 29.4876L19.232 29.4947Z" fill="black"/>
<path d="M14.0456 19.7817C14.0456 21.3102 14.4365 22.5957 14.9151 23.8653C15.0168 24.1383 15.122 24.4203 15.1553 24.7075C15.2044 25.1366 14.9975 25.4646 14.5803 25.5852C14.1911 25.6987 13.8107 25.6402 13.5706 25.2643C13.4303 25.0444 13.3041 24.7997 13.234 24.5497C12.8098 23.023 12.4013 21.4928 11.949 19.8154C11.8193 19.8101 11.5108 19.7835 11.2005 19.7835C7.92943 19.7799 4.65834 19.7835 1.38901 19.7799C0.400318 19.7799 -0.018648 19.4962 0.000634944 18.8544C0.0181649 18.2479 0.419601 17.9838 1.3557 17.9838C6.02743 17.982 10.7009 17.982 15.3726 17.9838C16.3438 17.9838 16.7032 18.2178 16.7277 18.842C16.7523 19.5051 16.3631 19.7729 15.3621 19.7782C14.9589 19.7799 14.5558 19.7782 14.0456 19.7782V19.7817Z" fill="black"/>
<path d="M27.9561 17.9866C28.4364 17.9866 28.7537 17.9866 29.0728 17.9866C30.2385 17.9866 31.4042 17.9742 32.57 17.9937C33.2274 18.0043 33.5429 18.3093 33.5552 18.8608C33.5674 19.4175 33.2501 19.7633 32.6156 19.7721C30.7802 19.7952 28.943 19.7987 27.1077 19.7846C26.4696 19.7792 26.1821 19.4973 26.1786 18.8608C26.1663 16.061 26.1716 13.2594 26.1891 10.4596C26.1926 9.80354 26.5186 9.48438 27.0673 9.48438C27.6178 9.48438 27.9421 9.80177 27.9473 10.4578C27.9649 12.6104 27.9561 14.7612 27.9561 16.9138C27.9561 17.2295 27.9561 17.5469 27.9561 17.9866Z" fill="black"/>
<path d="M11.9052 4.71491C12.8115 4.71491 13.7161 4.70604 14.6224 4.71668C15.3621 4.72555 15.7934 5.05358 15.8232 5.60148C15.853 6.15825 15.434 6.5572 14.7048 6.56607C12.8063 6.58735 10.9078 6.58912 9.00929 6.5643C8.2853 6.55543 7.95574 6.21853 7.961 5.64049C7.96626 5.07663 8.32913 4.73619 9.0163 4.722C9.98045 4.70072 10.9446 4.71668 11.9087 4.71668L11.9052 4.71491Z" fill="black"/>
<path d="M5.96951 24.5397C5.12632 24.5397 4.28313 24.5521 3.43994 24.5361C2.74225 24.5219 2.37938 24.2116 2.35309 23.6566C2.32504 23.0591 2.6844 22.6991 3.43994 22.6885C5.15612 22.6655 6.87231 22.6672 8.58673 22.6885C9.37208 22.6974 9.72092 23.0165 9.71917 23.6141C9.71566 24.2028 9.33877 24.5255 8.58673 24.5379C7.71374 24.5521 6.8425 24.5414 5.96951 24.5414V24.5397Z" fill="black"/>
<path d="M12.0389 33.0513C11.194 33.0513 10.3508 33.0655 9.50582 33.0478C8.81339 33.0336 8.44 32.7109 8.41897 32.1612C8.39618 31.6115 8.76431 31.2161 9.44096 31.2055C11.2167 31.1789 12.9925 31.1789 14.7683 31.2055C15.438 31.2144 15.8359 31.6115 15.8271 32.1364C15.8184 32.6559 15.3976 33.0336 14.7473 33.0478C13.8445 33.0673 12.9417 33.0531 12.0407 33.0531L12.0389 33.0513Z" fill="black"/>
<path d="M8.01683 13.2255C8.68823 13.2255 9.36138 13.2113 10.0328 13.2291C10.734 13.2468 11.0968 13.5589 11.1179 14.1156C11.1407 14.6919 10.8041 15.0554 10.1029 15.0696C8.64265 15.0997 7.18241 15.0979 5.72216 15.0713C5.04726 15.0589 4.64933 14.6688 4.65634 14.1422C4.66335 13.6209 5.08583 13.245 5.73969 13.2291C6.49874 13.2095 7.25779 13.2237 8.01859 13.2237L8.01683 13.2255Z" fill="black"/>
</svg>
