<svg width="37" height="44" viewBox="0 0 37 44" fill="none" xmlns="http://www.w3.org/2000/svg">
<path d="M25.536 40.4814C25.1647 40.7472 24.8559 40.9741 24.5417 41.1903C21.8819 43.0318 18.9186 43.9073 15.6875 43.9924C12.9063 44.0668 10.2394 43.6167 7.74735 42.376C4.06288 40.5434 1.46912 37.7502 0.406977 33.7306C-0.499859 30.3011 0.157062 27.0701 1.89755 24.027C3.44524 21.3207 5.40529 18.9103 7.44746 16.5637C7.99191 15.9399 8.54708 15.3249 9.1451 14.6514C8.03297 13.9141 7.3707 12.9304 7.6099 11.5587C7.85446 10.1567 8.81128 9.45843 10.2412 9.15359C9.49676 8.41098 8.79343 7.70914 8.09188 7.00907C7.52065 6.43837 7.22789 5.76311 7.23503 4.94607C7.25109 2.94687 9.15581 1.58749 11.0748 2.22022C11.1587 2.24857 11.2408 2.28402 11.3247 2.31592C12.1102 2.62076 12.0995 2.61722 12.4243 1.89056C12.5547 1.59813 12.7028 1.29683 12.9063 1.05225C14.2844 -0.594253 16.8693 -0.252192 17.7904 1.68497C18.0689 2.27339 18.5288 2.45653 19.1703 2.23439C20.3984 1.81081 21.7765 2.23085 22.5067 3.25349C23.2564 4.30271 23.2386 5.7064 22.4477 6.71309C22.23 6.99134 21.9747 7.24301 21.723 7.49291C21.2017 8.01398 20.6716 8.52796 20.0575 9.13232C21.4445 9.47084 22.412 10.139 22.6655 11.5214C22.9137 12.8844 22.3085 13.8591 21.1393 14.6177C22.3513 16.0161 23.5242 17.3701 24.7488 18.7845C24.8291 18.6498 24.9023 18.5417 24.9612 18.4282C25.3075 17.7565 25.8841 17.4286 26.6195 17.4198C28.2851 17.4003 29.9506 17.3879 31.6143 17.4233C32.7246 17.4464 33.4119 18.1712 33.403 19.3038C33.378 22.315 33.3958 25.3262 33.3958 28.3374C33.3958 29.8137 33.3958 31.2901 33.3958 32.7664C33.3958 33.0535 33.3958 33.3407 33.3958 33.7323C33.9653 33.7323 34.433 33.7323 34.9007 33.7323C35.197 33.7323 35.4987 33.7128 35.7914 33.7501C36.9393 33.8936 37.3713 34.918 36.6554 35.8202C36.1395 36.4688 35.5879 37.0891 35.0506 37.7183C33.453 39.5846 31.8606 41.4562 30.2487 43.31C30.0238 43.5688 29.731 43.8311 29.4168 43.9339C28.8456 44.1235 28.3922 43.8276 28.0209 43.388C27.2211 42.4381 26.4107 41.4952 25.5449 40.4779L25.536 40.4814ZM24.5488 39.3312C23.7259 38.3688 22.9404 37.4525 22.1586 36.5326C21.9086 36.2402 21.6391 35.9584 21.4284 35.6394C20.9429 34.8985 21.2624 34.0478 22.1139 33.8263C22.4245 33.7447 22.7601 33.7465 23.085 33.7377C23.6116 33.7235 24.14 33.7341 24.7095 33.7341C24.7345 33.4133 24.7684 33.1847 24.7684 32.9561C24.772 29.2643 24.7612 25.5725 24.7827 21.8807C24.7862 21.3951 24.6274 21.0229 24.3328 20.6791C22.8101 18.9032 21.2767 17.138 19.7647 15.3532C19.4666 15.0023 19.1364 14.8871 18.6829 14.8906C16.3337 14.9101 13.9827 14.9137 11.6335 14.8889C11.1087 14.8836 10.7463 15.0448 10.4107 15.4418C8.99693 17.1149 7.51886 18.7366 6.14254 20.4381C4.76622 22.1413 3.497 23.9278 2.57053 25.9252C1.56016 28.1034 1.20314 30.3755 1.67976 32.7345C2.33311 35.9761 4.17713 38.429 6.92442 40.228C9.59494 41.9755 12.5689 42.6348 15.7357 42.5302C18.6865 42.4345 21.407 41.6299 23.8187 39.9001C24.0561 39.7299 24.2775 39.5403 24.547 39.3276L24.5488 39.3312ZM29.1116 42.3991C31.1394 39.9727 33.1602 37.7201 35.1792 35.2388C34.3098 35.2388 33.6297 35.2601 32.9496 35.2335C32.1837 35.2034 31.9481 34.9499 31.9124 34.2038C31.9017 33.9982 31.9106 33.7908 31.9106 33.5835C31.9106 29.0693 31.9106 24.557 31.9106 20.0428C31.9106 19.699 31.891 19.3552 31.8803 18.9759H26.3018C26.2839 19.3729 26.2536 19.7185 26.2536 20.0623C26.25 24.6048 26.2518 29.1491 26.2518 33.6916C26.2518 33.9574 26.2482 34.2233 26.2411 34.4874C26.2286 34.9092 25.9912 35.1449 25.5878 35.1945C25.2647 35.2353 24.9362 35.2335 24.6113 35.2388C24.1472 35.2459 23.6848 35.2388 22.9976 35.2388C25.1183 37.7201 27.089 40.0259 29.1133 42.3973L29.1116 42.3991ZM15.1324 9.21208C15.9053 9.21208 16.68 9.23335 17.4512 9.19967C17.6922 9.18904 17.9868 9.09511 18.1563 8.93382C19.1828 7.95018 20.1949 6.95058 21.1821 5.92794C21.6659 5.42637 21.6909 4.64654 21.3196 4.13611C20.9233 3.592 20.2485 3.40059 19.5684 3.65404C19.4023 3.71607 19.2578 3.85785 19.09 3.88444C18.7186 3.94293 18.3277 4.01736 17.9635 3.96597C17.2495 3.86672 16.8496 3.36337 16.5712 2.73242C16.4212 2.39213 16.2641 2.00399 15.9928 1.77536C15.2038 1.11251 14.147 1.50065 13.7275 2.55519C13.1598 3.98369 12.2976 4.33816 10.8588 3.73025C10.7499 3.68417 10.6446 3.62391 10.5321 3.59555C9.67527 3.38464 8.83984 3.89507 8.71488 4.70503C8.63277 5.24028 8.81128 5.68513 9.19686 6.06618C10.1465 7.00198 11.0998 7.93423 12.0298 8.88774C12.2851 9.14828 12.5564 9.22449 12.9028 9.2174C13.6454 9.20322 14.3898 9.21208 15.1324 9.21208ZM15.1234 13.4409C16.5515 13.4409 17.9796 13.4462 19.4059 13.4356C19.6987 13.4338 20.0039 13.4072 20.2824 13.3221C20.9465 13.1201 21.2714 12.5955 21.2124 11.8972C21.1625 11.3017 20.7019 10.7912 20.095 10.6849C19.8915 10.6494 19.679 10.6654 19.472 10.6636C16.5872 10.6636 13.7025 10.6636 10.816 10.6636C10.6071 10.6636 10.3965 10.6494 10.193 10.6831C9.57709 10.7824 9.11296 11.2804 9.05406 11.8741C8.98622 12.5671 9.30397 13.1059 9.96625 13.3133C10.2715 13.4072 10.6071 13.432 10.9302 13.4338C12.3279 13.4462 13.7257 13.4391 15.1234 13.4391V13.4409Z" fill="black"/>
<path d="M14.3347 35.0332C14.0134 34.9393 13.701 34.8631 13.3993 34.755C12.0962 34.2853 11.1447 33.4541 10.7627 32.0947C10.6984 31.8696 10.7323 31.5577 10.8466 31.3556C11.0751 30.9516 11.582 30.9303 11.9087 31.267C12.0069 31.368 12.0676 31.5116 12.1301 31.641C13.0458 33.5551 15.57 34.1772 17.3319 32.9632C18.353 32.2595 18.1459 30.7194 17.3176 30.2408C16.7142 29.8917 16.0234 29.6826 15.3558 29.4592C14.5453 29.1898 13.6831 29.0463 12.903 28.7131C12.0301 28.3409 11.4089 27.6639 11.1697 26.7033C10.7823 25.1436 11.4874 23.6389 13.0012 22.8786C13.3939 22.6818 13.8241 22.556 14.34 22.3593C14.3525 22.1129 14.3561 21.7974 14.3882 21.4837C14.4293 21.0796 14.6988 20.7908 15.0362 20.7571C15.404 20.7199 15.7699 21.0141 15.8252 21.443C15.8627 21.7319 15.8324 22.0296 15.8324 22.3557C16.1698 22.4692 16.4732 22.5613 16.7714 22.673C17.8549 23.0753 18.6422 23.7949 19.0956 24.8583C19.2812 25.2925 19.1741 25.6664 18.8367 25.8525C18.5047 26.0369 18.0781 25.9181 17.8281 25.5672C17.7764 25.4963 17.746 25.4112 17.705 25.3315C17.0552 24.0554 15.4825 23.4563 13.9491 24.0678C13.6278 24.1972 13.3065 24.3939 13.0619 24.6349C12.214 25.4679 12.3621 26.7759 13.4243 27.32C14.0687 27.6497 14.8095 27.8251 15.5253 27.9864C16.3411 28.169 17.1373 28.3763 17.8567 28.8123C18.967 29.4858 19.5311 30.4837 19.5061 31.7562C19.4794 33.0713 18.7332 33.9574 17.5693 34.4944C17.0641 34.7266 16.5125 34.8613 15.8663 35.0775C15.8592 35.276 15.8663 35.5632 15.8342 35.845C15.7824 36.3465 15.4557 36.6638 15.0487 36.6372C14.6578 36.6124 14.4221 36.3359 14.3793 35.8432C14.3668 35.6961 14.3793 35.5472 14.3722 35.4001C14.3668 35.2849 14.3472 35.1715 14.3311 35.0297L14.3347 35.0332Z" fill="black"/>
</svg>
