<svg width="24" height="22" viewBox="0 0 24 22" fill="none" xmlns="http://www.w3.org/2000/svg">
<path d="M2.16905 7.33689C1.83982 7.26583 1.58129 7.24214 1.33933 7.14888C0.884143 6.97568 0.636662 6.54341 0.606832 5.90981C0.589154 5.54119 0.586945 5.16962 0.603517 4.801C0.630033 4.22218 0.865361 3.90242 1.30287 3.86541C2.24418 3.78547 3.15677 3.8506 3.84508 5.05563C4.12128 4.32432 4.36103 3.67592 4.60961 3.03196C5.14324 1.65225 5.94756 0.688523 7.07117 0.263656C7.45564 0.118579 7.86443 0.0238349 8.26217 0.0208741C10.748 -0.0013315 13.2339 -0.0102137 15.7197 0.016433C17.3471 0.0341975 18.568 1.03049 19.3535 2.94758C19.6187 3.59302 19.854 4.26215 20.1203 4.96533C20.2429 4.81581 20.349 4.69294 20.4506 4.56414C20.8119 4.10523 21.2372 3.8432 21.7388 3.82692C22.0515 3.81656 22.3653 3.80027 22.6768 3.821C23.1508 3.85505 23.3762 4.16296 23.4005 4.78916C23.4126 5.10892 23.4115 5.43164 23.4005 5.75141C23.3662 6.60558 22.9895 7.10595 22.3498 7.15036C22.1719 7.1622 21.994 7.15184 21.7024 7.15184C21.8482 7.32801 21.9023 7.41535 21.9719 7.47456C23.206 8.52563 23.9209 10.0208 23.9783 11.9808C24.0258 13.6048 23.9849 15.2332 23.954 16.8601C23.9407 17.5604 23.7364 18.194 23.4336 18.7772C23.3375 18.9623 23.2966 19.2213 23.2778 19.4523C23.2513 19.7942 23.2856 20.1436 23.2624 20.4871C23.2027 21.3827 22.7862 21.9497 22.1178 21.9748C21.2527 22.0074 20.3865 22.0089 19.5225 21.9748C18.8077 21.9467 18.4133 21.3827 18.389 20.4264C18.3757 19.9082 18.3857 19.3901 18.3835 18.872C18.3802 18 18.336 17.9349 17.6985 17.9305C15.912 17.9186 14.1266 17.9142 12.3401 17.8979C10.4066 17.8801 8.47429 17.8505 6.54085 17.8268C6.37513 17.8253 6.20719 17.8076 6.04478 17.8357C5.77521 17.8816 5.61501 18.0696 5.62053 18.4723C5.62937 19.1133 5.63158 19.7558 5.61832 20.3968C5.59733 21.3975 5.2018 21.9526 4.45052 21.9778C3.60422 22.0074 2.75572 22.0074 1.90942 21.9778C1.21449 21.9526 0.793547 21.3723 0.739411 20.4412C0.726153 20.2206 0.727258 19.9971 0.736096 19.775C0.753773 19.322 0.697427 18.9341 0.472043 18.5433C0.13949 17.9675 0.0256934 17.2406 0.0179597 16.5211C0.00138727 14.9682 -0.0196044 13.4123 0.0367417 11.8624C0.101926 10.046 0.770346 8.64406 1.87738 7.61076C1.9514 7.54118 2.02432 7.47308 2.17237 7.33393L2.16905 7.33689ZM3.55561 7.55746C3.13246 7.91275 2.75351 8.21327 2.38781 8.54043C1.3791 9.44198 0.87199 10.7195 0.854313 12.3361C0.83995 13.6181 0.834426 14.9016 0.859837 16.1821C0.868675 16.6396 0.949327 17.1074 1.05429 17.547C1.20565 18.1836 1.41225 18.3583 1.90942 18.3672C2.46183 18.3775 3.01425 18.3938 3.56555 18.3583C3.77105 18.345 3.99423 18.2428 4.16879 18.0963C4.55658 17.7691 4.93001 17.4034 5.28908 17.02C5.50563 16.7891 5.7288 16.7106 5.99949 16.7121C9.99232 16.7299 13.9863 16.7432 17.9791 16.7432C18.2553 16.7432 18.4763 16.8557 18.6884 17.0674C19.0718 17.4493 19.454 17.8357 19.8518 18.191C19.9954 18.3198 20.181 18.4338 20.3467 18.4338C20.9721 18.4382 21.5974 18.3938 22.2227 18.3657C22.5498 18.3509 22.7972 18.1347 22.9011 17.7306C23.0138 17.2924 23.1287 16.832 23.1386 16.3761C23.1685 14.9712 23.1729 13.5648 23.1431 12.1599C23.1121 10.7521 22.6647 9.58706 21.8217 8.73732C21.3985 8.31097 20.9301 7.96161 20.4506 7.55006C19.7292 9.14591 18.9149 10.5952 17.883 11.895C17.683 11.6078 17.4985 11.3443 17.3007 11.0585C18.1371 9.95567 18.8829 8.81134 19.464 7.46568C18.8784 7.30136 4.97089 7.32801 4.55437 7.49529C5.12999 8.83059 5.88016 9.96603 6.70547 11.0674C6.49887 11.362 6.31657 11.6226 6.12433 11.895C5.088 10.5937 4.28369 9.16219 3.55782 7.55598L3.55561 7.55746ZM19.6076 6.17775C19.2508 5.21995 18.9458 4.35393 18.61 3.51308C18.0023 1.99421 17.0555 1.18741 15.7551 1.18445C13.2516 1.18001 10.7491 1.17705 8.24559 1.18445C6.92312 1.18889 5.97186 2.01938 5.36642 3.57822C5.09463 4.27695 4.835 4.98309 4.57536 5.69071C4.52344 5.83283 4.49582 5.99123 4.44941 6.17775H19.6076ZM4.79081 19.0866C4.76098 19.0511 4.73225 19.017 4.70242 18.9815C4.24392 19.6255 3.6672 19.5796 3.0949 19.5692C2.72699 19.5618 2.35798 19.5618 1.99007 19.5707C1.86965 19.5737 1.75033 19.6151 1.61443 19.6418C1.61443 19.886 1.6078 20.0829 1.61554 20.2798C1.63321 20.7594 1.68735 20.8572 2.03537 20.866C2.80875 20.8838 3.58213 20.8705 4.3544 20.872C4.65712 20.872 4.78528 20.6484 4.7897 20.268C4.79302 19.8742 4.7897 19.4804 4.7897 19.0866H4.79081ZM19.3071 19.0896C19.274 19.1222 19.2408 19.1547 19.2088 19.1858C19.2088 19.5026 19.2033 19.8194 19.2099 20.1362C19.2242 20.7491 19.306 20.8631 19.7634 20.8705C20.3677 20.8808 20.9732 20.8734 21.5775 20.8734C22.4106 20.8734 22.4492 20.8142 22.3631 19.7025C22.3597 19.664 22.3178 19.6314 22.2857 19.584C21.8173 19.584 21.3411 19.5677 20.866 19.5885C20.3158 19.6122 19.7645 19.6743 19.3071 19.0896ZM20.7666 6.04304C21.2759 6.04304 21.7642 6.04896 22.2526 6.04008C22.4448 6.03564 22.5619 5.88316 22.5697 5.62409C22.5752 5.4124 22.5553 5.19923 22.5476 4.99641C21.5179 4.81137 21.0859 5.05859 20.7677 6.04304H20.7666ZM1.48406 6.05044H3.21974C2.88609 5.0808 2.2718 4.78472 1.41335 5.18738C1.43545 5.45977 1.45976 5.74104 1.48517 6.05044H1.48406Z" fill="#FF9916"/>
<path d="M16.6154 13.8523V14.7613C16.221 14.9478 7.91937 14.9996 7.23438 14.819C7.23438 14.517 7.23438 14.2046 7.23438 13.8938C7.61443 13.7443 15.8697 13.6998 16.6165 13.8538L16.6154 13.8523Z" fill="#FF9916"/>
<path d="M5.66113 15.5926C5.59705 15.6119 5.52744 15.6503 5.45784 15.6503C4.63143 15.6548 3.80391 15.6814 2.97751 15.6459C2.09254 15.6074 1.67934 15.0271 1.64619 13.8428C1.63625 13.4994 1.63625 13.15 1.67492 12.8125C1.73458 12.2899 1.93786 11.979 2.32124 11.9613C2.8858 11.9346 3.47357 11.8961 4.01715 12.0634C5.16506 12.4157 5.84232 13.9435 5.66002 15.5911L5.66113 15.5926ZM4.77837 14.5119C4.40052 13.2388 3.6625 12.8169 2.51016 13.1678C2.51016 13.3513 2.50795 13.5453 2.51016 13.7377C2.5179 14.4024 2.5864 14.5016 3.08578 14.5105C3.63377 14.5193 4.18287 14.5119 4.77837 14.5119Z" fill="#FF9916"/>
<path d="M18.3425 15.5906C18.1381 13.7254 18.9976 12.1784 20.3632 11.9696C20.762 11.9089 21.1708 11.903 21.573 11.9356C22.0657 11.977 22.3132 12.3012 22.3441 12.96C22.3673 13.4471 22.353 13.9474 22.2911 14.4271C22.2082 15.0681 21.8901 15.5433 21.4084 15.5714C20.3875 15.6321 19.3633 15.5892 18.3425 15.5892V15.5906ZM21.468 13.1258C20.1533 12.9097 19.5213 13.3035 19.2506 14.5129C19.6981 14.5129 20.1367 14.5129 20.5753 14.5129C21.5365 14.5129 21.5387 14.51 21.468 13.1258Z" fill="#FF9916"/>
</svg>
