<svg width="22" height="23" viewBox="0 0 22 23" fill="none" xmlns="http://www.w3.org/2000/svg">
<path d="M20.9869 14.1624V9.79867C20.6201 9.73619 20.2481 9.66601 19.8736 9.60953C19.4091 9.53936 18.9429 9.47603 18.4766 9.41869C18.1235 9.37504 17.8895 9.22014 17.7318 8.87439C17.5202 8.40969 17.2588 7.96381 16.9768 7.53677C16.7857 7.24665 16.7308 6.9959 16.8714 6.66556C17.161 5.98433 17.413 5.28685 17.6796 4.59622C17.7301 4.46442 17.7781 4.33177 17.845 4.1512C16.6408 3.43574 15.4435 2.72371 14.2154 1.99371C14.0482 2.20252 13.8897 2.39936 13.7328 2.59705C13.3335 3.09941 12.9246 3.59492 12.5407 4.10841C12.3264 4.3951 12.0736 4.46956 11.7248 4.44217C11.2457 4.40366 10.758 4.40366 10.2789 4.44046C9.93183 4.46784 9.67643 4.40024 9.46302 4.11097C8.94708 3.41178 8.41142 2.72713 7.86034 2.00569C6.61847 2.72371 5.39032 3.43403 4.14245 4.15633C4.4647 4.97705 4.75267 5.76525 5.08435 6.53547C5.25405 6.93086 5.24034 7.24323 4.97808 7.60181C4.70211 7.97836 4.46813 8.39685 4.28815 8.82732C4.12017 9.23041 3.84334 9.3759 3.44396 9.4281C2.69575 9.52566 1.95012 9.64804 1.20449 9.76101C1.14963 9.76957 1.0965 9.78754 1.01679 9.80808V14.1599C1.40332 14.2223 1.79242 14.2891 2.18238 14.3473C2.6469 14.4166 3.11314 14.4799 3.57852 14.5424C3.90162 14.586 4.10646 14.7461 4.25387 15.0525C4.48785 15.5386 4.76124 16.0093 5.05178 16.4645C5.22234 16.7316 5.2609 16.9669 5.14006 17.2622C4.82638 18.0264 4.53498 18.7992 4.23502 19.5694C4.21016 19.6345 4.19216 19.7021 4.15874 19.8056C5.36375 20.5219 6.56276 21.234 7.78235 21.9597C8.25544 21.3632 8.71567 20.7838 9.17505 20.2044C9.19305 20.1822 9.21105 20.1599 9.22648 20.136C9.53244 19.6456 9.90869 19.388 10.5429 19.542C10.9029 19.6293 11.31 19.56 11.6905 19.5138C12.0522 19.4701 12.3213 19.5429 12.5441 19.8518C12.9615 20.4295 13.4037 20.9892 13.8374 21.5557C13.9317 21.6798 14.032 21.7996 14.1451 21.9409C14.4811 21.7611 14.8024 21.5788 15.1333 21.4154C15.2567 21.3538 15.4015 21.2999 15.5361 21.3016C15.7375 21.3041 15.8729 21.4419 15.9475 21.6268C16.028 21.8262 15.9706 22.0204 15.8086 22.1231C15.3647 22.4056 14.9207 22.7017 14.4408 22.9079C14.0585 23.0722 13.6754 22.9225 13.4072 22.5904C13.0403 22.136 12.6495 21.6927 12.341 21.1997C12.017 20.6811 11.6194 20.5288 11.01 20.5271C10.3852 20.5254 9.96697 20.6717 9.64557 21.2186C9.39446 21.6456 9.05507 22.0222 8.74567 22.4133C8.25972 23.0277 7.8192 23.1193 7.14642 22.7265C6.01254 22.0649 4.8838 21.3948 3.75935 20.7188C3.17999 20.3704 3.03343 19.9357 3.27255 19.299C3.53309 18.6058 3.80392 17.916 4.08418 17.2305C4.16302 17.0379 4.15188 16.8924 4.03704 16.717C3.84249 16.4192 3.67108 16.106 3.50909 15.7893C3.41653 15.6096 3.30854 15.5146 3.09342 15.4872C2.38722 15.3965 1.68529 15.2767 0.981653 15.1671C0.308011 15.0627 0.00547257 14.7196 0.00290142 14.0435C-0.000526783 12.6605 -0.00138383 11.2775 0.00290142 9.89366C0.00461552 9.24753 0.318296 8.88809 0.955941 8.78796C1.67329 8.67499 2.39064 8.55603 3.11057 8.46275C3.31197 8.43622 3.40539 8.3455 3.49195 8.17948C3.66251 7.8517 3.84591 7.52821 4.04389 7.21584C4.14588 7.05495 4.16388 6.91802 4.09103 6.74087C3.81592 6.0682 3.55452 5.3904 3.28883 4.71432C3.17742 4.42933 3.12085 4.14178 3.22798 3.83968C3.31797 3.58636 3.4791 3.39637 3.70879 3.2603C4.88723 2.56282 6.06053 1.85592 7.24583 1.16956C7.79863 0.849492 8.24344 0.935073 8.64882 1.43144C9.09878 1.98429 9.52901 2.5534 9.94983 3.12936C10.1015 3.33732 10.2661 3.4229 10.5232 3.40493C10.8497 3.38182 11.1806 3.3861 11.5079 3.40493C11.7333 3.41862 11.8799 3.34503 12.0127 3.16445C12.4181 2.61331 12.8372 2.07158 13.2555 1.529C13.4886 1.2269 13.7568 0.961603 14.1777 1.00354C14.3696 1.02237 14.5753 1.07457 14.7407 1.17042C15.9252 1.85849 17.1045 2.55426 18.2769 3.26287C18.8074 3.58294 18.9497 4.02882 18.7295 4.62275C18.4775 5.30397 18.2161 5.98177 17.9367 6.65186C17.839 6.88635 17.8338 7.06522 17.9847 7.28088C18.1715 7.54875 18.3258 7.84058 18.4706 8.13412C18.5666 8.32924 18.6789 8.43879 18.9129 8.46874C19.6191 8.55775 20.3218 8.67499 21.0255 8.78539C21.67 8.88637 21.9871 9.23897 21.9897 9.88082C21.9948 11.2784 21.9948 12.6759 21.9897 14.0734C21.9871 14.6956 21.6708 15.0619 21.0649 15.1612C20.5447 15.2459 20.0245 15.3272 19.5025 15.3991C19.3791 15.4162 19.2428 15.411 19.1237 15.3768C18.9214 15.3186 18.7757 15.0739 18.7946 14.8762C18.8134 14.6768 18.9763 14.4911 19.2137 14.4457C19.5771 14.3755 19.9447 14.3267 20.3107 14.2685C20.5215 14.2352 20.7324 14.2018 20.9869 14.1616V14.1624Z" fill="#FF9916"/>
<path d="M22.0044 20.5733C21.947 21.6046 21.4576 22.3654 20.5046 22.7659C19.5661 23.1604 18.6671 23.0107 17.9283 22.3012C16.7875 21.2041 15.6811 20.0701 14.5609 18.9524C13.8136 18.207 13.0628 17.465 12.3232 16.7119C12.1398 16.5245 11.9786 16.4595 11.6932 16.504C9.18551 16.8959 6.90404 15.2177 6.45923 12.7581C6.40352 12.4526 6.37609 12.1325 6.39838 11.8244C6.43866 11.2681 6.80719 11.0884 7.29314 11.3717C7.95821 11.7594 8.61557 12.1616 9.27635 12.5561C9.67917 12.7958 9.73145 12.7855 10.0965 12.4748C10.4771 12.1505 10.7342 11.7474 10.8696 11.269C10.963 10.9378 10.9305 10.8676 10.6253 10.6836C9.92942 10.2634 9.23093 9.8475 8.53415 9.42901C8.41159 9.35541 8.28475 9.2878 8.17247 9.20051C7.88022 8.97458 7.85622 8.63311 8.14162 8.40119C8.7964 7.86973 9.54118 7.52313 10.3845 7.42214C12.2203 7.20306 13.5745 8.01607 14.6509 9.42045C15.2877 10.2506 15.6365 11.1783 15.6254 12.2309C15.6194 12.7863 15.8251 13.2587 16.1747 13.6755C16.3307 13.8612 16.4961 14.0384 16.6676 14.2095C18.1897 15.7329 19.7127 17.2562 21.2399 18.7753C21.7396 19.2725 22.019 19.8553 22.0035 20.5742L22.0044 20.5733ZM7.50226 12.6451C7.51597 12.8223 7.50997 12.9079 7.5314 12.9866C7.99849 14.7487 9.926 15.9203 11.6932 15.4796C12.1586 15.3632 12.4586 15.4659 12.7885 15.7996C14.5918 17.6285 16.4164 19.4368 18.236 21.2503C18.3868 21.4009 18.5436 21.5498 18.7133 21.6782C19.2876 22.1112 20.0906 22.0556 20.5928 21.5575C21.0934 21.0611 21.1542 20.2524 20.7231 19.6816C20.586 19.5001 20.4257 19.335 20.2655 19.1741C18.7425 17.6499 17.2204 16.1248 15.6914 14.6066C14.9655 13.8861 14.6038 13.0217 14.5943 12.0016C14.5918 11.7619 14.5849 11.5095 14.5112 11.2853C14.0767 9.9656 13.2342 8.99255 11.9118 8.52528C11.077 8.23003 10.2328 8.33615 9.38863 8.7709C9.55918 8.88215 9.68602 8.96944 9.81715 9.04818C10.3794 9.38708 10.9322 9.74224 11.5081 10.0555C11.8801 10.2574 12.0035 10.5347 11.9452 10.9335C11.7755 12.1051 11.2141 13.0071 10.1771 13.6165C9.79915 13.8381 9.48376 13.8638 9.11094 13.6156C8.61471 13.2853 8.09105 12.9969 7.50226 12.6451Z" fill="#FF9916"/>
</svg>
