<svg width="24" height="24" viewBox="0 0 24 24" fill="none" xmlns="http://www.w3.org/2000/svg">
<path d="M8.76367 0.865234C10.9317 0.846068 13.1002 0.844148 15.2676 0.865234C16.3571 0.875855 17.4483 0.977485 18.5166 1.28223C20.7917 1.92966 22.1888 3.42562 22.7764 5.69727C23.0417 6.72429 23.1213 7.7706 23.1377 8.8125C23.1588 10.1383 23.1464 11.4664 23.1416 12.7891L23.1377 12.9287C23.1283 13.0704 23.1033 13.2157 23.0576 13.3516V13.3525C22.92 13.7557 22.4984 13.9981 22.1016 13.9375C21.6835 13.874 21.3755 13.5673 21.3271 13.1416L21.3145 12.9111C21.3135 12.8358 21.3144 12.7625 21.3145 12.6943C21.3135 11.4313 21.3267 10.1725 21.3086 8.91406C21.2943 7.96358 21.2224 7.02631 20.9893 6.10645C20.7655 5.2218 20.3719 4.52607 19.8223 4.00879C19.2726 3.49155 18.5584 3.14439 17.6807 2.96973C16.8672 2.80771 16.0273 2.7193 15.1973 2.70508C13.0809 2.66871 10.962 2.68102 8.84375 2.69922C7.93001 2.70682 7.0256 2.79045 6.1377 3.01465C5.25486 3.23723 4.55969 3.62939 4.04199 4.17871C3.52413 4.72841 3.17577 5.44367 2.99902 6.32227C2.83545 7.13581 2.74664 7.97726 2.73242 8.80859C2.69611 10.9448 2.70841 13.0827 2.72754 15.2207C2.73608 16.1199 2.81709 17.0107 3.03711 17.8848C3.26164 18.7783 3.65917 19.4732 4.21484 19.9922C4.77104 20.5116 5.49464 20.8633 6.38086 21.0576C7.25782 21.2498 8.15131 21.3078 9.05371 21.3154C10.3123 21.326 11.5667 21.3155 12.8291 21.3193C13.1579 21.3198 13.4358 21.3894 13.6367 21.541C13.8431 21.6968 13.9501 21.9256 13.958 22.2002C13.9666 22.4831 13.8533 22.7281 13.6445 22.8984C13.4389 23.0662 13.1518 23.152 12.8193 23.1484H12.8184C11.0522 23.1303 9.28093 23.122 7.5127 23.0674C6.535 23.0371 5.58503 22.8115 4.68066 22.4336C2.8351 21.6609 1.76146 20.2355 1.26367 18.3486C0.980766 17.2755 0.906949 16.1795 0.890625 15.0898C0.875848 14.0877 0.886897 13.0838 0.887695 12.085L0.847656 12.0654L0.849609 11.9707C0.886839 10.4743 0.903651 8.9699 0.969727 7.4707C1.01552 6.44485 1.24488 5.44617 1.66797 4.50293C2.46334 2.73056 3.87273 1.70934 5.7002 1.22949C6.70876 0.964784 7.73757 0.873933 8.76367 0.865234Z" fill="#FF9916" stroke="#FF9916" stroke-width="0.3"/>
<path d="M18.6377 14.1504C19.1467 14.1488 19.6477 14.3893 20.0303 14.8545H20.0293C20.2698 15.1465 20.4625 15.4868 20.6152 15.8252L20.667 15.9258C20.7214 16.0166 20.784 16.0814 20.8545 16.1299C20.9503 16.1957 21.0712 16.238 21.2295 16.2656H21.2305C21.4561 16.3055 21.6899 16.3639 21.9121 16.4502L22.1299 16.5459L22.2988 16.6406C22.6763 16.8756 22.9392 17.2058 23.0625 17.5859C23.2035 18.0206 23.1577 18.5088 22.9131 18.9736C22.752 19.2792 22.5279 19.569 22.2734 19.8027L22.2725 19.8018C22.1391 19.9247 22.0657 20.045 22.0312 20.167C21.9967 20.2897 21.998 20.4291 22.04 20.5986C22.1597 21.0793 22.1599 21.5711 21.9941 22.0508C21.729 22.8205 20.9628 23.2899 20.1562 23.1025C19.7269 23.0035 19.3165 22.8149 18.9346 22.6279C18.8171 22.5706 18.7241 22.5437 18.6396 22.542C18.5579 22.5404 18.4712 22.5617 18.3662 22.625C18.1161 22.7759 17.8458 22.9099 17.5654 23.0068C16.9186 23.2297 16.3181 23.1657 15.875 22.833C15.4334 22.5013 15.1779 21.9247 15.1709 21.1836L15.168 20.8164L15.207 20.8555C15.2216 20.734 15.2428 20.5968 15.2764 20.4668C15.3076 20.3459 15.305 20.2511 15.2803 20.1699C15.2552 20.0878 15.2037 20.0067 15.1162 19.9199C14.9456 19.751 14.7727 19.5708 14.6211 19.374C14.1802 18.7994 14.0559 18.1603 14.2314 17.6016C14.4071 17.043 14.8739 16.5899 15.5625 16.3701C15.6653 16.3374 15.8225 16.2749 15.9746 16.2725L16.1162 16.2607C16.2485 16.2404 16.3542 16.1944 16.4414 16.1289C16.5592 16.0404 16.6565 15.9056 16.7363 15.7139L16.8398 15.4883C16.9526 15.2656 17.0909 15.0523 17.2471 14.8613L17.3955 14.6973C17.7541 14.3386 18.1924 14.1519 18.6377 14.1504ZM18.6592 16.0576C18.518 16.1906 18.4442 16.3489 18.3633 16.5283L18.252 16.7637C17.901 17.4484 17.3693 17.9049 16.5723 18.0234C16.3975 18.0493 16.2347 18.1006 16.0107 18.166C16.1778 18.3641 16.3029 18.5168 16.4443 18.6592L16.5518 18.7725C17.0307 19.3085 17.2247 19.93 17.1006 20.6475L17.0693 20.8027C17.0484 20.8934 17.0387 20.9897 17.0322 21.1016C17.0297 21.146 17.0259 21.1944 17.0234 21.2451C17.2532 21.1539 17.4662 21.0404 17.6963 20.9316C17.9864 20.7945 18.296 20.6725 18.6572 20.6709H18.6582C19.0232 20.67 19.3325 20.8 19.6182 20.9395C19.8449 21.0501 20.0529 21.1627 20.2764 21.2461C20.275 21.2113 20.274 21.1781 20.2725 21.1475C20.2676 21.0515 20.26 20.97 20.2422 20.8945V20.8936C20.1391 20.4498 20.1363 20.031 20.249 19.6406C20.3619 19.2497 20.5879 18.8963 20.9268 18.5801C21.001 18.5108 21.0687 18.4305 21.1445 18.333C21.1834 18.283 21.2257 18.2275 21.2715 18.168C21.2344 18.155 21.2001 18.144 21.1699 18.1338C21.0878 18.1059 21.0278 18.0887 20.9707 18.082C20.4661 18.0222 20.0398 17.8543 19.6914 17.5791C19.3435 17.3042 19.0806 16.9281 18.8916 16.4648C18.8559 16.3774 18.8072 16.2921 18.75 16.2012C18.7221 16.1568 18.6914 16.1076 18.6592 16.0576Z" fill="#FF9916" stroke="#FF9916" stroke-width="0.3"/>
<path d="M16.1699 8.78809C16.5069 8.49225 16.9956 8.46827 17.3428 8.74414V8.74512C17.5303 8.89449 17.6483 9.09117 17.6826 9.30957C17.7167 9.52753 17.666 9.75604 17.5371 9.9668C17.4818 10.0574 17.4049 10.1458 17.3555 10.21C16.6556 11.1165 15.9518 12.028 15.252 12.9346C14.8589 13.4446 14.3568 13.7989 13.6289 13.793L13.6143 13.7949C13.1207 13.8313 12.6898 13.6184 12.3154 13.3223L10.7793 12.1055C10.6809 12.0283 10.6117 11.9788 10.5576 11.9492C10.5049 11.9204 10.4836 11.921 10.4766 11.9219C10.4695 11.9228 10.4479 11.9278 10.4033 11.9697C10.3582 12.0122 10.3036 12.0778 10.2275 12.1768C9.55813 13.0494 8.88924 13.9221 8.21875 14.7949C8.12511 14.9163 8.02262 15.0572 7.90332 15.1777V15.1787C7.57549 15.5081 7.06852 15.5506 6.70703 15.2803C6.32152 14.9921 6.21431 14.48 6.4834 14.0586C6.64194 13.8101 6.84246 13.5793 7.00977 13.3613C7.6413 12.5412 8.26984 11.7162 8.9082 10.8994C9.27844 10.4261 9.74867 10.1466 10.2559 10.085C10.7629 10.0235 11.2891 10.1816 11.7666 10.5508C12.2913 10.9559 12.8243 11.3923 13.3428 11.7959C13.4367 11.8691 13.502 11.9156 13.5527 11.9434C13.6012 11.9699 13.6193 11.9693 13.624 11.9688C13.6285 11.9682 13.6478 11.9646 13.6904 11.9248C13.7336 11.8845 13.7862 11.8215 13.8604 11.7266L15.7637 9.27148C15.8664 9.13822 15.977 8.98443 16.1045 8.85059L16.1699 8.78809Z" fill="#FF9916" stroke="#FF9916" stroke-width="0.3"/>
</svg>
