<svg width="22" height="22" viewBox="0 0 22 22" fill="none" xmlns="http://www.w3.org/2000/svg">
<path d="M0.0222929 10.985C0.0222929 9.60018 7.58414e-05 8.21536 0.0290546 6.83152C0.0522375 5.73082 0.269578 4.66008 0.691701 3.63572C1.25196 2.27313 2.21212 1.30579 3.55866 0.71727C4.58934 0.265974 5.6799 0.0340443 6.79365 0.0214814C9.6413 -0.00847615 12.4909 -0.0123416 15.3385 0.0253469C16.5025 0.0408089 17.6375 0.313326 18.6952 0.824538C20.3364 1.61793 21.2618 2.98535 21.6704 4.71226C21.8433 5.44284 21.9669 6.20337 21.9756 6.95231C22.0104 9.68908 22.0046 12.4259 21.9795 15.1626C21.9688 16.2798 21.737 17.3669 21.2994 18.4029C20.7266 19.7577 19.7636 20.7241 18.4083 21.2962C17.3728 21.733 16.2861 21.9669 15.1695 21.9765C12.4175 22.0007 9.66544 22.0123 6.9144 21.9688C6.12038 21.9562 5.31187 21.8074 4.53911 21.6093C2.05274 20.9725 0.688803 19.2765 0.233838 16.8103C0.0976375 16.071 0.040646 15.3105 0.018429 14.5577C-0.0163454 13.3671 0.00876946 12.1756 0.00876946 10.984C0.0135992 10.984 0.0174631 10.984 0.0222929 10.984V10.985ZM11.0159 1.40436C9.82483 1.40436 8.6338 1.3947 7.44278 1.40726C6.53864 1.41692 5.6461 1.53192 4.77673 1.78608C3.25149 2.23254 2.25752 3.22211 1.80255 4.74512C1.55237 5.58296 1.42776 6.44497 1.42293 7.31567C1.40748 9.76253 1.40844 12.2104 1.42293 14.6572C1.42776 15.5279 1.55044 16.3899 1.79772 17.2287C2.22468 18.6735 3.13171 19.6582 4.57485 20.1394C5.43842 20.4274 6.32903 20.5705 7.23027 20.5782C9.74079 20.6014 12.2513 20.6023 14.7618 20.5782C15.7114 20.5695 16.6522 20.4226 17.5554 20.0989C18.8005 19.6524 19.6476 18.8097 20.0978 17.567C20.4252 16.6644 20.574 15.7231 20.5827 14.7732C20.6068 12.2616 20.6059 9.74997 20.5827 7.23836C20.575 6.33673 20.4339 5.44574 20.1499 4.58083C19.6689 3.11581 18.674 2.20162 17.2067 1.77738C16.3508 1.52999 15.4747 1.41692 14.587 1.40629C13.396 1.3918 12.2049 1.40243 11.0139 1.40243L11.0159 1.40436Z" fill="#FF9916"/>
<path d="M14.0498 8.46833C13.2626 8.46833 12.4744 8.4693 11.6871 8.46737C11.5432 8.46737 11.3954 8.4693 11.2543 8.44417C10.9201 8.38619 10.6719 8.09048 10.6719 7.77158C10.6719 7.45944 10.9279 7.14537 11.2437 7.08255C11.3374 7.06419 11.4359 7.06322 11.5316 7.06322C13.2355 7.06226 14.9395 7.06226 16.6425 7.06322C16.7391 7.06322 16.8366 7.06322 16.9303 7.08159C17.2703 7.14923 17.5311 7.48166 17.5109 7.81216C17.4906 8.133 17.2336 8.40648 16.8926 8.4519C16.7497 8.47123 16.6038 8.46737 16.4599 8.46833C15.6562 8.4693 14.8525 8.46833 14.0489 8.46833H14.0498Z" fill="#FF9916"/>
<path d="M14.0972 14.2885C14.869 14.2885 15.6398 14.2885 16.4116 14.2895C16.572 14.2895 16.7343 14.2875 16.8927 14.3098C17.2472 14.36 17.4935 14.6209 17.5119 14.9456C17.5302 15.2839 17.2849 15.5979 16.9304 15.6753C16.8222 15.6984 16.7072 15.6994 16.5952 15.6994C14.9241 15.7004 13.253 15.7004 11.5818 15.6994C11.4853 15.6994 11.3877 15.6994 11.294 15.681C10.9337 15.6134 10.6681 15.31 10.6719 14.9824C10.6767 14.6258 10.9588 14.3185 11.351 14.303C11.9605 14.2798 12.572 14.2904 13.1824 14.2875C13.4877 14.2866 13.7929 14.2875 14.0982 14.2875L14.0972 14.2885Z" fill="#FF9916"/>
<path d="M5.98857 14.6982C6.1866 14.5156 6.36433 14.359 6.53337 14.1938C6.94584 13.7889 7.35154 13.3782 7.764 12.9732C7.9939 12.7481 8.275 12.7094 8.56768 12.8109C8.8198 12.8979 8.97435 13.1105 8.96855 13.3598C8.96372 13.5685 8.90383 13.8285 8.76763 13.9715C8.02868 14.7514 7.2675 15.5119 6.49474 16.2589C6.17597 16.5672 5.78669 16.5546 5.4544 16.2599C5.20325 16.0367 4.96369 15.796 4.74056 15.5448C4.4131 15.1766 4.40344 14.8074 4.68936 14.5117C4.94341 14.2489 5.33752 14.2382 5.69686 14.4847C5.7751 14.5388 5.85141 14.5968 5.98857 14.6963V14.6982Z" fill="#FF9916"/>
<path d="M6.013 7.47202C6.41387 7.0758 6.78963 6.70375 7.16538 6.33266C7.35954 6.14036 7.545 5.93742 7.75365 5.76154C8.11299 5.45713 8.51676 5.4581 8.79592 5.74318C9.07122 6.02439 9.06832 6.45346 8.74762 6.78299C8.01832 7.53193 7.28033 8.27218 6.52978 8.99985C6.17528 9.34388 5.76957 9.33035 5.4141 9.00082C5.19 8.79402 4.97363 8.57658 4.76594 8.35238C4.42303 7.98226 4.39598 7.6305 4.67032 7.31933C4.92436 7.03135 5.2837 7.00429 5.67298 7.24685C5.76668 7.30484 5.85844 7.36862 6.01396 7.47105L6.013 7.47202Z" fill="#FF9916"/>
</svg>
