<svg width="22" height="22" viewBox="0 0 22 22" fill="none" xmlns="http://www.w3.org/2000/svg">
<path d="M18.9974 19.9825H9.59192C9.59192 20.25 9.59375 20.4848 9.59192 20.7197C9.59008 20.8625 9.59925 21.0101 9.56991 21.1481C9.49378 21.5076 9.19754 21.7367 8.87195 21.7089C8.55002 21.6821 8.28955 21.4069 8.27212 21.0398C8.25561 20.7072 8.26846 20.3736 8.26846 20.0055C8.05292 19.9768 7.87591 19.9547 7.6989 19.9308C7.01837 19.8359 6.60473 19.4083 6.59464 18.7009C6.57721 17.5363 6.56254 16.3697 6.61115 15.206C6.66985 13.7902 7.68881 12.7981 9.04437 12.7214C10.6228 12.6323 11.7518 13.796 11.8151 15.2022C11.8206 15.3258 11.8591 15.4476 11.8876 15.5952H16.6788C16.7137 15.4006 16.7559 15.2175 16.7788 15.0325C16.9164 13.9359 17.74 12.7703 19.3303 12.661C20.6593 12.569 21.9451 13.818 21.9827 15.2223C22.013 16.3707 22.0011 17.5209 21.9901 18.6693C21.9837 19.3767 21.5819 19.8272 20.9133 19.925C20.7336 19.9509 20.5538 19.971 20.3254 19.9998C20.3254 20.3334 20.3254 20.6487 20.3254 20.9651C20.3254 21.0772 20.3309 21.1894 20.3218 21.3005C20.2878 21.7204 20.0145 22.0041 19.6522 22.0003C19.29 21.9965 19.0166 21.7089 19.002 21.2852C18.9882 20.873 18.9992 20.4589 18.9992 19.9825H18.9974ZM20.6244 18.5869C20.6574 18.4249 20.6969 18.3185 20.6978 18.2121C20.7015 17.3024 20.7116 16.3918 20.6886 15.4821C20.6822 15.2357 20.6125 14.9712 20.5043 14.7526C20.253 14.2455 19.6495 13.9656 19.1487 14.0749C18.5296 14.2101 18.1087 14.6989 18.0509 15.3766C18.0289 15.6307 18.0445 15.8876 18.0408 16.1425C18.0325 16.7694 17.8097 17.0072 17.2098 17.0119C16.522 17.0177 15.835 17.0129 15.1472 17.0129C13.9099 17.0129 12.6717 17.0148 11.4345 17.0129C10.7503 17.0119 10.5476 16.7924 10.5393 16.0658C10.5366 15.8109 10.5485 15.5521 10.5127 15.3009C10.4073 14.5609 9.87807 14.0605 9.21863 14.0519C8.55094 14.0433 7.94561 14.5647 7.90067 15.3191C7.84198 16.3055 7.87866 17.2976 7.87591 18.2878C7.87591 18.4814 7.96946 18.583 8.1584 18.5821C8.25011 18.5821 8.34183 18.5859 8.43354 18.5859C12.3296 18.5859 16.2257 18.5859 20.1218 18.5859C20.286 18.5859 20.4511 18.5859 20.6253 18.5859L20.6244 18.5869Z" fill="#FF9916"/>
<path d="M5.17347 20.0368C5.52107 20.0368 5.80906 20.0349 6.09705 20.0368C6.23371 20.0387 6.37495 20.0301 6.50702 20.0608C6.82894 20.1346 7.03255 20.4212 7.02155 20.7567C7.01146 21.0884 6.784 21.3568 6.46025 21.4133C6.38596 21.4267 6.308 21.4229 6.23187 21.4229C5.0093 21.4229 3.78673 21.421 2.56415 21.4248C2.32477 21.4248 2.09915 21.3913 1.94232 21.19C1.77998 20.982 1.7167 20.75 1.824 20.4778C1.93773 20.1892 2.14776 20.0579 2.42474 20.0426C2.72924 20.0253 3.03557 20.0397 3.3419 20.0349C3.49048 20.033 3.63906 20.0177 3.81424 20.0071C3.82708 19.8355 3.84909 19.6965 3.84726 19.5576C3.79957 15.916 3.74912 12.2754 3.70235 8.63378C3.69409 8.01551 3.70143 7.39724 3.70143 6.71091C3.59687 6.70612 3.43821 6.69078 3.27954 6.69366C2.48528 6.70995 1.69102 6.732 0.895838 6.74925C0.773856 6.75213 0.649122 6.75596 0.530809 6.72912C0.18504 6.65052 -0.0204042 6.37158 0.00160764 6.00157C0.0107792 5.84533 0.0529686 5.68813 0.0979094 5.53763C0.561075 3.9723 1.02791 2.40505 1.49749 0.839721C1.70386 0.150515 1.83318 0.0383637 2.54856 0.0259024C3.77113 0.00577258 4.99371 0.00385546 6.21628 2.1213e-05C6.69504 -0.00189591 6.87113 0.125593 7.02797 0.601998C7.45995 1.91235 7.88276 3.22558 8.30924 4.53785C8.41746 4.86951 8.52844 5.20022 8.63116 5.5338C8.85495 6.25463 8.58714 6.6534 7.87084 6.66011C7.06099 6.66682 6.25113 6.6649 5.44128 6.67065C5.27894 6.67161 5.11661 6.68886 5.01113 6.69461C5.01113 7.1298 5.00746 7.50843 5.01113 7.88802C5.04874 11.4817 5.08726 15.0753 5.12761 18.669C5.1322 19.0984 5.15513 19.5278 5.17255 20.0368H5.17347ZM7.09125 5.2654C7.07933 5.14654 7.08575 5.06698 7.06282 4.99796C6.70329 3.88315 6.33368 2.77218 5.98241 1.6545C5.9072 1.41486 5.7632 1.3861 5.56602 1.38802C4.74241 1.39473 3.9188 1.40623 3.09519 1.39185C2.79252 1.3861 2.67513 1.51742 2.59258 1.80691C2.29359 2.85845 1.96525 3.90041 1.65341 4.94716C1.61948 5.06027 1.62131 5.18488 1.59747 5.37372C3.45104 5.33729 5.25785 5.30182 7.09125 5.26636V5.2654Z" fill="#FF9916"/>
<path d="M14.2965 7.38056C15.3962 7.38056 16.4959 7.40453 17.5937 7.37385C18.7062 7.34318 20.0086 8.18767 20.0434 9.90254C20.0563 10.5246 20.0554 11.1477 20.0416 11.7689C20.0315 12.2405 19.7738 12.5223 19.3868 12.529C18.9988 12.5357 18.7337 12.2788 18.7236 11.8446C18.7099 11.2388 18.7218 10.632 18.7181 10.0252C18.7126 9.16828 18.3311 8.76856 17.5112 8.7676C15.3586 8.76568 13.206 8.76568 11.0534 8.7676C10.2518 8.7676 9.87397 9.16157 9.86938 9.99264C9.86572 10.5994 9.87672 11.2052 9.8648 11.812C9.85563 12.2433 9.63368 12.4916 9.26956 12.5175C8.88344 12.5453 8.56243 12.3315 8.55876 11.9471C8.55051 11.0566 8.51199 10.1527 8.63947 9.27851C8.80273 8.16275 9.78042 7.39302 10.8618 7.38248C12.0064 7.37098 13.1519 7.3796 14.2965 7.3796V7.38056Z" fill="#FF9916"/>
</svg>
