<svg width="40" height="44" viewBox="0 0 40 44" fill="none" xmlns="http://www.w3.org/2000/svg">
<path d="M3.16379 21.5128C2.53942 21.5128 2.06355 21.5046 1.58768 21.5145C0.976084 21.526 0.420375 21.4538 0.124954 20.7826C-0.186435 20.0769 0.126551 19.5928 0.597627 19.1202C1.64198 18.0683 2.66876 16.9967 3.70353 15.9349C8.52288 10.9938 13.3406 6.0526 18.1632 1.11635C18.4634 0.809479 18.7796 0.509169 19.1293 0.266295C19.6834 -0.117708 20.2295 -0.0848871 20.7469 0.354911C21.1349 0.68476 21.4831 1.06548 21.8408 1.43143C24.2169 3.85853 26.5898 6.28891 28.9692 8.71273C29.2087 8.9556 29.4802 9.16401 29.8474 9.48401C29.8906 9.14432 29.9337 8.94739 29.9353 8.74883C29.9433 8.01036 29.9177 7.27189 29.9417 6.53507C29.964 5.82778 30.1812 5.61116 30.8694 5.59967C31.9585 5.58162 33.0492 5.58162 34.1382 5.59475C35.0596 5.6046 35.3742 5.92952 35.379 6.89445C35.3918 9.27232 35.4173 11.6518 35.3742 14.0297C35.3598 14.8371 35.5834 15.4114 36.1742 15.9546C37.2825 16.9737 38.3172 18.0781 39.3775 19.1514C39.5277 19.304 39.6778 19.4665 39.7911 19.6486C40.2207 20.3313 39.9684 21.1206 39.2115 21.3487C38.8394 21.4603 38.429 21.4505 38.0346 21.4669C37.6146 21.4849 37.193 21.4718 36.6852 21.4718C36.6597 21.8689 36.6214 22.184 36.6214 22.4991C36.6198 28.9517 36.6214 35.4042 36.6214 41.8568C36.6214 41.993 36.6245 42.1309 36.6214 42.2671C36.583 43.5356 36.1455 43.9918 34.9127 43.9934C26.3806 44 17.8486 44 9.31652 44C7.85539 44 6.39266 44 4.93152 43.9934C3.6173 43.9902 3.1574 43.5241 3.1574 42.1801C3.1574 35.6734 3.1574 29.165 3.159 22.6583C3.159 22.3104 3.159 21.9625 3.159 21.5178L3.16379 21.5128ZM13.9363 19.665C13.9874 19.9309 14.0353 20.0622 14.0353 20.1918C14.0385 23.8825 14.0448 27.5748 14.0321 31.2655C14.0289 31.9942 13.8293 32.155 13.1011 32.1714C12.531 32.1829 11.9593 32.1796 11.3733 32.1829V35.1597H15.8238V38.4976H18.3468V35.2385H20.097V38.4877H22.4859C22.7174 37.321 22.4412 36.1657 22.6727 35.0301C22.9729 35.0071 23.2077 34.9841 23.4424 34.9694C24.6832 34.8906 25.8489 34.5657 26.8837 33.8338C28.4997 32.6899 29.2103 31.085 28.974 29.1026C28.7456 27.1826 27.6007 26.0372 25.8122 25.5317C25.5966 25.471 25.3922 25.366 25.0041 25.2117C25.397 24.8934 25.6381 24.6603 25.9112 24.4815C27.6278 23.3606 28.1931 21.3651 27.3244 19.4812C26.8054 18.3555 25.8808 17.7532 24.7678 17.4398C24.0844 17.2478 23.3769 17.1526 22.5705 16.9918V13.7163H20.1145C19.9852 14.8075 20.1624 15.8463 20.0059 16.826H18.2973V13.7031H15.7838V16.547C15.4485 16.57 15.2153 16.5979 14.9838 16.5996C14.0001 16.6012 13.0165 16.5848 12.0328 16.5963C11.3621 16.6045 11.3206 16.657 11.3126 17.3594C11.3062 17.9058 11.3062 18.4539 11.3222 19.0004C11.3413 19.6027 11.3893 19.6535 11.9705 19.6667C12.6045 19.6814 13.2384 19.6699 13.9363 19.6699V19.665Z" fill="#FF9916"/>
<path d="M18.1969 32.28V27.3158C18.4013 27.2863 18.5993 27.2338 18.7989 27.2321C19.7012 27.2239 20.605 27.2075 21.5056 27.2436C21.9224 27.26 22.352 27.3371 22.748 27.4733C23.5576 27.7507 24.1165 28.2922 24.2187 29.2178C24.3305 30.2352 24.1404 31.0968 23.1999 31.6826C22.558 32.0814 21.8585 32.2159 21.1543 32.2652C20.2074 32.3325 19.2508 32.2816 18.1953 32.2816L18.1969 32.28Z" fill="#FF9916"/>
<path d="M18.1934 23.945V19.698C18.9024 19.698 19.581 19.675 20.2565 19.7045C20.8857 19.7324 21.5372 19.7275 22.136 19.8965C23.1963 20.1968 23.6387 20.9648 23.57 22.13C23.5205 22.9784 22.8163 23.8432 21.8837 23.9187C20.6829 24.0172 19.4677 23.9433 18.1934 23.9433V23.945Z" fill="#FF9916"/>
</svg>
