<svg width="30" height="30" viewBox="0 0 30 30" fill="none" xmlns="http://www.w3.org/2000/svg">
<path d="M29.551 18.6287C27.5474 26.6644 19.4076 31.5548 11.37 29.5509C3.33573 27.5475 -1.55526 19.4082 0.449326 11.373C2.45204 3.33634 10.5918 -1.55455 18.627 0.448869C26.6641 2.45229 31.5547 10.5925 29.551 18.6287Z" fill="#F7931A"/>
<path d="M21.6142 12.8629C21.9128 10.867 20.393 9.79402 18.3148 9.07825L18.9889 6.37452L17.343 5.96437L16.6866 8.59684C16.2539 8.48903 15.8095 8.38732 15.3679 8.28654L16.0289 5.63671L14.3839 5.22656L13.7093 7.92934C13.3511 7.84778 12.9995 7.76717 12.6582 7.68233L12.6601 7.67389L10.3902 7.10717L9.95234 8.86496C9.95234 8.86496 11.1736 9.1448 11.1478 9.16215C11.8144 9.32855 11.9349 9.76964 11.9147 10.1193L11.1468 13.1995C11.1928 13.2112 11.2523 13.228 11.318 13.2543C11.2631 13.2407 11.2045 13.2257 11.144 13.2112L10.0677 17.526C9.98608 17.7285 9.77935 18.0322 9.31337 17.9169C9.32977 17.9408 8.11699 17.6183 8.11699 17.6183L7.29987 19.5022L9.44181 20.0361C9.84029 20.1359 10.2308 20.2405 10.6152 20.3389L9.93406 23.0736L11.5781 23.4837L12.2527 20.7781C12.7018 20.9 13.1378 21.0125 13.5644 21.1184L12.8922 23.8114L14.5381 24.2215L15.2193 21.492C18.026 22.0231 20.1365 21.8089 21.0249 19.2706C21.7408 17.2269 20.9893 16.048 19.5126 15.2793C20.588 15.0313 21.3981 14.324 21.6142 12.8629ZM17.8535 18.1358C17.3448 20.1795 13.9034 19.0747 12.7876 18.7977L13.6915 15.1747C14.8072 15.4532 18.3851 16.0044 17.8535 18.1358ZM18.3626 12.8334C17.8985 14.6924 15.0341 13.7479 14.105 13.5163L14.9244 10.2304C15.8536 10.462 18.8459 10.8942 18.3626 12.8334Z" fill="white"/>
</svg>
