<svg width="34" height="34" viewBox="0 0 34 34" fill="none" xmlns="http://www.w3.org/2000/svg">
<path d="M17 0.5C26.1127 0.5 33.5 7.8873 33.5 17C33.5 26.1127 26.1127 33.5 17 33.5C7.8873 33.5 0.5 26.1127 0.5 17C0.5 7.8873 7.8873 0.5 17 0.5Z" stroke="#031A26" stroke-opacity="0.1"/>
<path d="M17.1392 18.6785L16.1696 19.7076L17.1372 21.7615L18.0892 20.695L17.1392 18.6785ZM17.7562 23.0756L18.6628 25L19.6149 23.9334L18.7083 22.009L17.7562 23.0756ZM25.194 14.7431L24.2538 15.7965L26.0598 16.7132L27 15.6598L25.194 14.7431ZM21.278 14.2859L23.0205 15.1704L23.9607 14.1171L22.2535 13.2505L21.278 14.2859ZM19.8624 20.716L21.022 22.3569L21.9297 21.3402L20.7701 19.6992L19.8624 20.716ZM19.9782 18.5787L18.8018 16.9139L17.8726 17.9002L19.0706 19.5955L19.9782 18.5787ZM19.5762 16.0921L21.0675 17.3584L21.9654 16.3525L20.5017 15.1097L19.5762 16.0921ZM22.0869 18.2239L23.5798 19.4915L24.4777 18.4856L22.9848 17.2181L22.0869 18.2239ZM21.5253 10.3449L20.4585 11.477L19.4536 10.4105C19.0323 9.96332 18.5321 9.60859 17.9816 9.36658C17.4311 9.12456 16.841 9 16.2452 9C15.6493 9 15.0593 9.12456 14.5088 9.36658C13.9583 9.60859 13.4581 9.96332 13.0367 10.4105C13.0228 10.4252 13.0094 10.4402 12.9957 10.4551C12.521 10.1002 11.9635 9.89043 11.3841 9.8488C10.8047 9.80717 10.2257 9.93525 9.71026 10.2191C9.19479 10.5029 8.76268 10.9315 8.46108 11.4582C8.15948 11.9848 7.99999 12.5893 8 13.2057V23.6049H9.30095V13.2057C9.30094 12.8441 9.39405 12.4894 9.57021 12.1799C9.74638 11.8704 9.99889 11.6179 10.3005 11.4496C10.602 11.2814 10.9412 11.2039 11.2813 11.2254C11.6214 11.2469 11.9494 11.3666 12.23 11.5717C11.78 12.4818 11.6155 13.5206 11.7606 14.5368C11.9057 15.553 12.3528 16.4934 13.0367 17.2211L14.0416 18.2876L13.0691 19.3197L13.8822 20.1827L22.3384 11.2078L21.5253 10.3449ZM14.8709 17.2151L13.9566 16.2448C13.3555 15.5993 13.0196 14.7276 13.0221 13.82C13.0246 12.9125 13.3654 12.0429 13.97 11.4012C14.5746 10.7594 15.3939 10.3977 16.249 10.395C17.1041 10.3923 17.9254 10.7489 18.5336 11.3868L19.4479 12.3572L14.8709 17.2151Z" fill="#FF9916"/>
</svg>
