<svg width="34" height="34" viewBox="0 0 34 34" fill="none" xmlns="http://www.w3.org/2000/svg">
<path d="M17 0.5C26.1127 0.5 33.5 7.8873 33.5 17C33.5 26.1127 26.1127 33.5 17 33.5C7.8873 33.5 0.5 26.1127 0.5 17C0.5 7.8873 7.8873 0.5 17 0.5Z" stroke="#031A26" stroke-opacity="0.1"/>
<path d="M25 19.9724L23.1147 21.8578L20.2951 19.0382L19.0382 20.2951L21.8578 23.1147L19.9724 25H25V19.9724ZM9 14.0276L10.8853 12.1422L13.7049 14.9618L14.9618 13.7049L12.1422 10.8853L14.0276 9H9V14.0276ZM25 9H19.9724L21.8578 10.8853L19.0382 13.7049L20.2951 14.9618L23.1147 12.1422L25 14.0276V9ZM9 25H14.0276L12.1422 23.1147L14.9618 20.2951L13.7049 19.0382L10.8853 21.8578L9 19.9724V25Z" fill="#FF9916"/>
</svg>
