<svg width="34" height="34" viewBox="0 0 34 34" fill="none" xmlns="http://www.w3.org/2000/svg">
<path d="M17 0.5C26.1127 0.5 33.5 7.8873 33.5 17C33.5 26.1127 26.1127 33.5 17 33.5C7.8873 33.5 0.5 26.1127 0.5 17C0.5 7.8873 7.8873 0.5 17 0.5Z" stroke="#031A26" stroke-opacity="0.1"/>
<path d="M26.3491 22.4258C26.3491 22.8266 26.3547 23.1964 26.3475 23.5654C26.341 23.8978 26.2483 23.9877 25.9137 23.9972C25.659 24.0044 25.4035 23.9948 25.1479 23.9996C24.9101 24.0036 24.7731 23.9018 24.7279 23.6656C24.6505 23.2624 24.5618 22.8616 24.4724 22.4345H9.52486C9.4386 22.8401 9.34509 23.2385 9.27173 23.6394C9.22578 23.893 9.09035 24.0068 8.83238 23.9996C8.59054 23.9933 8.34869 24.0028 8.10685 23.9972C7.74086 23.9893 7.65299 23.9066 7.64654 23.5511C7.64009 23.1829 7.64493 22.8139 7.64493 22.4226C7.5361 22.4162 7.45952 22.4099 7.38293 22.4075C7.11449 22.4019 6.9984 22.2596 7.00002 22.0027C7.00243 21.7108 7.00002 21.4197 7.00002 21.1279C7.00002 20.5473 7.02017 20.5259 7.64493 20.4766C7.64493 20.1807 7.64493 19.8801 7.64493 19.5795C7.64493 19.0888 7.64332 18.5989 7.64493 18.1082C7.64816 17.2923 8.00125 16.8604 8.80739 16.6823C8.84367 16.6743 8.87752 16.6592 8.93476 16.6393C8.93476 16.4922 8.93476 16.3483 8.93476 16.2035C8.93476 14.613 8.93315 13.0232 8.93476 11.4327C8.93718 10.5094 9.44505 10.0012 10.3745 10.0012C14.7938 9.9996 19.2139 9.9996 23.6332 10.0012C24.5401 10.0012 25.0568 10.5126 25.0584 11.4072C25.0617 13.0105 25.0592 14.6146 25.0592 16.2179C25.0592 16.3618 25.0592 16.5057 25.0592 16.5694C25.3954 16.7459 25.6993 16.8588 25.9436 17.0465C26.2427 17.2772 26.3515 17.6255 26.3499 18.0025C26.3475 18.6912 26.3499 19.3807 26.3499 20.0694C26.3499 20.199 26.3499 20.3294 26.3499 20.4805C26.4853 20.4893 26.5893 20.4893 26.6917 20.5036C26.8755 20.5298 26.9867 20.6404 26.9891 20.8225C26.9964 21.2464 27.0117 21.6718 26.9843 22.0941C26.9609 22.4568 26.6417 22.3932 26.3491 22.425V22.4258ZM17.3186 16.6632C17.3186 16.2719 17.317 15.9164 17.3186 15.5602C17.3227 14.6392 17.8305 14.1374 18.7665 14.1358C19.9483 14.1334 21.1309 14.1334 22.3127 14.1358C23.268 14.1374 23.7662 14.6376 23.7686 15.5928C23.7694 15.9459 23.7686 16.2998 23.7686 16.6513H24.4119V16.2688C24.4119 14.6782 24.4119 13.0884 24.4119 11.4979C24.4119 10.8434 24.2063 10.6382 23.5526 10.6374C19.1873 10.6374 14.8212 10.6374 10.456 10.6374C9.7925 10.6374 9.58209 10.8402 9.58129 11.4828C9.58048 13.0861 9.58129 14.6893 9.58129 16.2934V16.6561H10.2246C10.2246 16.2648 10.2222 15.8958 10.2246 15.5276C10.231 14.6567 10.7478 14.139 11.6249 14.1358C12.8341 14.1318 14.0425 14.1326 15.2517 14.1358C16.1562 14.1382 16.6689 14.6488 16.6745 15.5451C16.677 15.9125 16.6745 16.2799 16.6745 16.6624H17.3178L17.3186 16.6632ZM25.7025 20.4837C25.7025 19.6487 25.7066 18.8558 25.7009 18.0629C25.6977 17.5515 25.4575 17.3201 24.927 17.3193C19.6379 17.3177 14.3488 17.3177 9.05891 17.3193C8.53249 17.3193 8.29549 17.5539 8.29226 18.0693C8.28743 18.7842 8.28985 19.5 8.29226 20.2149C8.29226 20.3024 8.31161 20.3899 8.32209 20.4837H25.7025ZM26.3289 21.1621H7.66428V21.7498H26.3289V21.1621ZM16.0288 16.6672C16.0288 16.2576 16.0329 15.8894 16.028 15.5212C16.0208 15.0074 15.7862 14.7784 15.259 14.7744C14.6963 14.7697 14.1328 14.7736 13.5701 14.7736C12.9131 14.7736 12.2569 14.7697 11.5999 14.7752C11.192 14.7792 10.9082 14.9772 10.8848 15.324C10.855 15.7661 10.8776 16.2115 10.8776 16.6672H16.028H16.0288ZM17.9668 16.6537H23.1221C23.1221 16.2194 23.1342 15.8107 23.118 15.4035C23.1035 15.0313 22.8544 14.7808 22.4755 14.7776C21.1889 14.7673 19.9023 14.7673 18.6157 14.7776C18.2368 14.7808 17.9853 15.0305 17.9708 15.4011C17.9547 15.8091 17.9668 16.2171 17.9668 16.6537ZM8.85576 22.4353H8.31564V23.3698C8.4551 23.3546 8.56716 23.3419 8.67438 23.33C8.73726 23.0175 8.79449 22.7367 8.85576 22.4353ZM25.6832 22.4266H25.1358C25.2027 22.7479 25.264 23.0469 25.3261 23.3435H25.6832V22.4266Z" fill="#FF9916"/>
</svg>
