<svg width="44" height="44" viewBox="0 0 44 44" fill="none" xmlns="http://www.w3.org/2000/svg">
<g filter="url(#filter0_d_1472_25261)">
<rect x="4" y="3" width="36" height="36" rx="4" fill="white"/>
</g>
<path d="M27.5923 11C29.8751 11.0078 31.6153 12.4964 31.9358 14.467C32.1602 15.8485 31.7951 17.0628 30.8304 18.0529C29.0847 19.8438 27.3187 21.6152 25.5245 23.357C23.8351 24.9955 21.2763 24.84 19.7441 23.3374C19.4837 23.0819 19.404 22.7834 19.5056 22.4474C19.6002 22.1349 19.8387 21.9551 20.1529 21.8895C20.4625 21.8246 20.7119 21.9606 20.9292 22.1653C21.2795 22.4951 21.6883 22.7107 22.1597 22.8006C23.0471 22.9694 23.8069 22.7115 24.4464 22.0911C24.9702 21.5832 25.4799 21.062 25.9959 20.5463C27.1662 19.3773 28.335 18.206 29.5068 17.0386C29.954 16.5924 30.2347 16.0728 30.3183 15.4368C30.4817 14.1975 29.5584 12.9339 28.3201 12.7183C27.4156 12.5604 26.6487 12.8222 26.0045 13.459C25.1438 14.3115 24.2901 15.1711 23.4325 16.0267C23.3402 16.1189 23.2519 16.2158 23.1487 16.2947C22.8156 16.5502 22.3802 16.5252 22.0777 16.2408C21.7993 15.979 21.7368 15.5321 21.9416 15.2031C22.0026 15.1054 22.0855 15.0179 22.1676 14.9359C23.0603 14.0412 23.9523 13.1473 24.8483 12.2565C25.6824 11.4274 26.6917 11.0148 27.5923 11Z" fill="#2FB8FF"/>
<path d="M20.9347 17.9492C22.0276 17.9852 23.0064 18.3704 23.8139 19.1666C24.0641 19.4128 24.1149 19.7128 24.0203 20.0301C23.9265 20.3426 23.6841 20.5216 23.3707 20.5849C23.0619 20.6474 22.8133 20.5091 22.5959 20.3051C22.2457 19.9762 21.836 19.7613 21.3646 19.6722C20.4937 19.5089 19.744 19.7566 19.1069 20.3583C18.8418 20.6083 18.5893 20.8716 18.3313 21.1295C17.0508 22.4094 15.7718 23.6901 14.4897 24.9685C14.0418 25.4146 13.7642 25.9358 13.6806 26.5711C13.5195 27.8081 14.4467 29.0716 15.6843 29.2857C16.5731 29.4396 17.333 29.1911 17.9694 28.5676C18.6949 27.8565 19.4078 27.1329 20.1271 26.4156C20.2193 26.3242 20.31 26.2273 20.4148 26.1531C20.7322 25.9296 21.1317 25.9569 21.4233 26.2117C21.718 26.4687 21.7977 26.9016 21.6007 27.24C21.5366 27.3502 21.4467 27.4494 21.3552 27.5408C20.6204 28.2792 19.8863 29.0192 19.1444 29.7506C18.2665 30.6164 17.2056 31.0532 15.972 30.9954C13.8627 30.8961 12.3578 29.313 12.067 27.569C11.827 26.1288 12.2343 24.888 13.249 23.8589C14.7938 22.2914 16.3558 20.7404 17.9178 19.1893C18.7402 18.3727 19.7424 17.9688 20.9347 17.9492Z" fill="#2FB8FF"/>
<defs>
<filter id="filter0_d_1472_25261" x="0" y="0" width="44" height="44" filterUnits="userSpaceOnUse" color-interpolation-filters="sRGB">
<feFlood flood-opacity="0" result="BackgroundImageFix"/>
<feColorMatrix in="SourceAlpha" type="matrix" values="0 0 0 0 0 0 0 0 0 0 0 0 0 0 0 0 0 0 127 0" result="hardAlpha"/>
<feOffset dy="1"/>
<feGaussianBlur stdDeviation="2"/>
<feComposite in2="hardAlpha" operator="out"/>
<feColorMatrix type="matrix" values="0 0 0 0 0.0125 0 0 0 0 0.102911 0 0 0 0 0.15 0 0 0 0.13 0"/>
<feBlend mode="normal" in2="BackgroundImageFix" result="effect1_dropShadow_1472_25261"/>
<feBlend mode="normal" in="SourceGraphic" in2="effect1_dropShadow_1472_25261" result="shape"/>
</filter>
</defs>
</svg>
