<svg width="50" height="50" viewBox="0 0 50 50" fill="none" xmlns="http://www.w3.org/2000/svg">
<path d="M25 0.5C38.531 0.5 49.5 11.469 49.5 25C49.5 38.531 38.531 49.5 25 49.5C11.469 49.5 0.5 38.531 0.5 25C0.5 11.469 11.469 0.5 25 0.5Z" stroke="#031A26" stroke-opacity="0.2"/>
<path d="M16 21.7059C16 18.4118 17.8824 17 20.7059 17H30.1176C32.9412 17 34.8235 18.4118 34.8235 21.7059V28.2941C34.8235 31.5882 32.9412 33 30.1176 33H20.7059" stroke="#031A26" stroke-width="1.5" stroke-miterlimit="10" stroke-linecap="round" stroke-linejoin="round"/>
<path d="M30.1188 22.1758L27.1729 24.5284C26.2035 25.3001 24.6129 25.3001 23.6435 24.5284L20.707 22.1758" stroke="#031A26" stroke-width="1.5" stroke-miterlimit="10" stroke-linecap="round" stroke-linejoin="round"/>
<path d="M16 29.2344H21.6471" stroke="#031A26" stroke-width="1.5" stroke-miterlimit="10" stroke-linecap="round" stroke-linejoin="round"/>
<path d="M16 25.4688H18.8235" stroke="#031A26" stroke-width="1.5" stroke-miterlimit="10" stroke-linecap="round" stroke-linejoin="round"/>
</svg>
