<svg width="23" height="20" viewBox="0 0 23 20" fill="none" xmlns="http://www.w3.org/2000/svg">
<path d="M11.5092 2.6889C12.0779 1.96763 12.6833 1.36643 13.4222 0.907203C15.9316 -0.651011 19.3841 -0.147089 21.2783 2.12626C23.1993 4.43203 23.4626 7.01123 22.3181 9.7289C21.6759 11.2529 20.6039 12.5035 19.3886 13.6139C17.7425 15.1178 16.0346 16.5568 14.3482 18.0178C13.7455 18.5401 13.132 19.0519 12.5168 19.562C11.8236 20.136 11.1877 20.1509 10.5107 19.5769C8.42484 17.8083 6.33006 16.0485 4.27559 14.2458C2.98415 13.1126 1.80735 11.8638 0.991473 10.3432C-0.346532 7.84993 -0.358175 5.34172 1.12671 2.92114C3.18655 -0.438049 8.23318 -1.23644 11.1922 2.31468C11.2844 2.42598 11.3785 2.53553 11.5092 2.6889ZM11.4895 18.6304C11.6077 18.5427 11.7054 18.4796 11.7931 18.4042C13.587 16.8872 15.3943 15.3833 17.1684 13.8444C18.3855 12.7884 19.5453 11.6701 20.4436 10.3266C21.7261 8.40819 22.0046 6.3776 21.0669 4.25149C20.0881 2.03248 17.6109 0.871271 15.3182 1.5198C14.0652 1.87386 13.1759 2.68977 12.4541 3.71164C12.352 3.85537 12.2651 4.01136 12.1487 4.14282C11.7985 4.53895 11.2047 4.53895 10.8546 4.1437C10.748 4.02363 10.6674 3.88078 10.5751 3.74845C9.96077 2.86417 9.21385 2.121 8.19109 1.69595C5.81331 0.70914 3.00206 1.84406 1.93721 4.25062C0.996847 6.37585 1.27806 8.40731 2.55875 10.3266C3.30656 11.4475 4.23439 12.4194 5.2464 13.3063C7.01339 14.854 8.81173 16.3666 10.5984 17.8924C10.8886 18.1396 11.185 18.3797 11.4895 18.6312V18.6304Z" fill="#FF9916"/>
</svg>
