<svg width="50" height="50" viewBox="0 0 50 50" fill="none" xmlns="http://www.w3.org/2000/svg">
<rect x="0.5" y="0.5" width="49" height="49" rx="5.5" stroke="#031A26" stroke-opacity="0.12"/>
<path d="M15.2207 34.8986C15.2207 34.6003 15.2207 34.3716 15.2207 34.1418C15.2207 27.6819 15.2207 21.2209 15.2231 14.7609C15.2231 14.4713 15.2325 14.1794 15.2762 13.893C15.3541 13.3725 15.6786 13.0828 16.2345 13.0142C16.4091 12.9924 16.5873 13.0022 16.7644 13.0022C22.251 13.0022 27.7388 13.0022 33.2255 13.0022C33.4025 13.0022 33.5819 12.9924 33.7554 13.0142C34.3124 13.0828 34.6382 13.3714 34.7161 13.8908C34.7597 14.1772 34.7692 14.4691 34.7692 14.7587C34.7715 21.2187 34.7715 27.6797 34.7715 34.1396V34.8986C35.3781 34.8986 35.9033 34.8943 36.4297 34.9008C36.6645 34.9041 36.9053 34.9041 37.1319 34.9509C37.6878 35.0674 38.0076 35.4617 37.9958 35.9724C37.984 36.4962 37.6028 36.9035 37.0316 36.983C36.8581 37.0069 36.6787 36.9971 36.5017 36.9982C28.8317 36.9982 21.1617 36.9982 13.4917 36.9982C13.3348 36.9982 13.1754 37.0058 13.0197 36.9895C12.4142 36.9253 12.0106 36.5202 11.9965 35.9746C11.9835 35.4453 12.3257 35.0282 12.9158 34.9411C13.3005 34.8845 13.6994 34.9063 14.0913 34.9008C14.4394 34.8954 14.7888 34.8997 15.2207 34.8997V34.8986ZM32.4855 34.866V15.1682C31.8152 15.056 17.9457 15.0789 17.5173 15.1867V34.8649H32.4855V34.866Z" fill="#FF9916"/>
<path d="M19.5536 26.4686C19.5536 26.2878 19.537 26.1059 19.5559 25.9273C19.6149 25.3545 20.0292 24.9897 20.6216 24.9734C21.2483 24.956 21.7086 25.2543 21.7853 25.8184C21.8455 26.2617 21.8455 26.7234 21.7853 27.1655C21.7098 27.7166 21.2023 28.0585 20.6252 28.0335C20.0445 28.0084 19.6208 27.6305 19.5595 27.0632C19.5382 26.8671 19.5559 26.6668 19.5559 26.4675L19.5536 26.4686Z" fill="#FF9916"/>
</svg>
