<svg width="50" height="50" viewBox="0 0 50 50" fill="none" xmlns="http://www.w3.org/2000/svg">
<rect x="0.5" y="0.5" width="49" height="49" rx="5.5" stroke="#031A26" stroke-opacity="0.12"/>
<path d="M24.078 19.9419C24.078 21.5925 24.0827 23.243 24.0743 24.8936C24.0724 25.188 24.1472 25.4244 24.3332 25.6618C26.4623 28.3844 28.5811 31.1154 30.7017 33.8445C30.7784 33.9426 30.8587 34.0389 30.9204 34.1464C31.0971 34.4538 31.0634 34.6754 30.7653 34.9258C29.8998 35.6539 28.9586 36.281 27.8614 36.5726C21.6845 38.212 15.5645 35.0184 13.585 29.048C11.9793 24.2066 13.7813 18.6895 17.8684 15.7969C19.4872 14.651 21.2947 14.0585 23.2733 13.9762C23.8397 13.9529 24.0724 14.18 24.0752 14.8034C24.0827 16.5165 24.078 18.2297 24.078 19.9419ZM22.963 15.1268C22.7266 15.1268 22.5714 15.1081 22.4219 15.1296C20.2255 15.4464 18.3675 16.4324 16.9057 18.0867C14.5309 20.7728 13.6439 23.93 14.3019 27.4432C14.9561 30.9378 16.9964 33.4276 20.1937 34.966C21.906 35.7894 23.7341 36.025 25.6043 35.8745C26.3707 35.8128 27.138 35.6296 27.8792 35.4146C28.5605 35.2165 29.1661 34.8324 29.7176 34.3548C29.6213 34.2211 29.5531 34.1183 29.4774 34.0211C27.4427 31.4042 25.4127 28.7844 23.3649 26.1768C23.0771 25.8104 22.9574 25.4366 22.9593 24.9777C22.9696 21.9112 22.9649 18.8447 22.9649 15.7782C22.9649 15.5791 22.9649 15.38 22.9649 15.1268H22.963Z" fill="#FF9916"/>
<path d="M30.9992 25.0157C29.2552 25.0157 27.5103 25.0166 25.7663 25.0157C25.1429 25.0157 24.9887 24.8652 24.9877 24.2512C24.9859 20.7473 24.9859 17.2424 24.9877 13.7385C24.9877 13.1544 25.1504 12.9843 25.742 13.0011C29.3347 13.1011 32.2638 14.5713 34.5153 17.3546C36.1228 19.3416 36.9472 21.638 37.0023 24.1998C37.0163 24.8783 36.8696 25.0157 36.1845 25.0157C34.4555 25.0166 32.7274 25.0157 30.9983 25.0157H30.9992ZM35.9266 23.9119C35.7182 21.1809 34.6835 18.8734 32.7358 16.9929C30.8908 15.2115 28.6739 14.2675 26.0971 14.0797V23.9119H35.9266Z" fill="#FF9916"/>
<path d="M31.4638 25.9267C32.9424 25.9267 34.421 25.9267 35.8995 25.9267C36.0397 25.9267 36.1799 25.9221 36.3192 25.9333C36.8435 25.9763 37.0108 26.1445 37.0024 26.6688C36.9594 29.4718 35.9837 31.9196 34.1742 34.0449C33.963 34.2935 33.7378 34.5318 33.5004 34.7561C33.091 35.144 32.8013 35.1253 32.4442 34.687C31.4423 33.4551 30.4479 32.2186 29.4497 30.9849C28.4029 29.6895 27.3561 28.3951 26.3103 27.0997C26.115 26.8576 25.8738 26.6156 26.0355 26.2688C26.2047 25.9043 26.5598 25.9277 26.887 25.9277C28.4123 25.9249 29.9376 25.9267 31.4629 25.9267H31.4638ZM33.0331 33.6991C34.7948 31.7943 35.7407 29.6232 35.9108 27.0689H27.6777C29.4777 29.297 31.232 31.4691 33.0331 33.6991Z" fill="#FF9916"/>
</svg>
