<svg width="50" height="50" viewBox="0 0 50 50" fill="none" xmlns="http://www.w3.org/2000/svg">
<rect x="0.5" y="0.5" width="49" height="49" rx="5.5" stroke="#031A26" stroke-opacity="0.12"/>
<path d="M37 29.4587L34.172 32.2867L29.9427 28.0573L28.0573 29.9427L32.2867 34.172L29.4587 37H37V29.4587ZM13 20.5413L15.828 17.7133L20.0573 21.9427L21.9427 20.0573L17.7133 15.828L20.5413 13H13V20.5413ZM37 13H29.4587L32.2867 15.828L28.0573 20.0573L29.9427 21.9427L34.172 17.7133L37 20.5413V13ZM13 37H20.5413L17.7133 34.172L21.9427 29.9427L20.0573 28.0573L15.828 32.2867L13 29.4587V37Z" fill="#FF9916"/>
</svg>
