<svg width="50" height="50" viewBox="0 0 50 50" fill="none" xmlns="http://www.w3.org/2000/svg">
<rect x="0.5" y="0.5" width="49" height="49" rx="5.5" stroke="#031A26" stroke-opacity="0.12"/>
<path d="M24.9493 27.5178L23.4693 29.0615L24.9462 32.1422L26.3993 30.5424L24.9493 27.5178ZM25.8911 34.1134L27.2748 37L28.7279 35.4001L27.3442 32.5136L25.8911 34.1134ZM37.2434 21.6147L35.8084 23.1947L38.5649 24.5698L40 22.9898L37.2434 21.6147ZM31.2664 20.9289L33.926 22.2556L35.3611 20.6757L32.7554 19.3758L31.2664 20.9289ZM29.1058 30.574L30.8758 33.0354L32.2611 31.5102L30.4911 29.0488L29.1058 30.574ZM29.2826 27.368L27.487 24.8709L26.0687 26.3502L27.8973 28.8932L29.2826 27.368ZM28.6689 23.6382L30.9451 25.5376L32.3155 24.0287L30.0816 22.1646L28.6689 23.6382ZM32.5011 26.8359L34.7797 28.7373L36.1501 27.2284L33.8715 25.3271L32.5011 26.8359ZM31.6439 15.0173L30.0156 16.7156L28.4818 15.1158C27.8387 14.445 27.0753 13.9129 26.235 13.5499C25.3948 13.1868 24.4942 13 23.5847 13C22.6753 13 21.7747 13.1868 20.9344 13.5499C20.0942 13.9129 19.3307 14.445 18.6876 15.1158C18.6664 15.1378 18.6459 15.1603 18.625 15.1827C17.9004 14.6502 17.0496 14.3356 16.1652 14.2732C15.2809 14.2108 14.3972 14.4029 13.6104 14.8286C12.8236 15.2543 12.1641 15.8972 11.7038 16.6873C11.2434 17.4773 11 18.384 11 19.3085V34.9074H12.9857V19.3085C12.9857 18.7661 13.1278 18.234 13.3966 17.7698C13.6655 17.3055 14.0509 16.9268 14.5112 16.6744C14.9715 16.4221 15.4892 16.3058 16.0083 16.3381C16.5273 16.3703 17.0281 16.55 17.4564 16.8576C16.7694 18.2226 16.5184 19.7809 16.7399 21.3052C16.9613 22.8295 17.6437 24.2401 18.6876 25.3316L20.2214 26.9314L18.7371 28.4796L19.9781 29.774L32.8849 16.3118L31.6439 15.0173ZM21.4872 25.3227L20.0917 23.8671C19.1742 22.8989 18.6614 21.5914 18.6653 20.2301C18.6691 18.8688 19.1892 17.5644 20.1121 16.6018C21.0349 15.6392 22.2855 15.0966 23.5906 15.0926C24.8957 15.0885 26.1494 15.6234 27.0777 16.5802L28.4732 18.0358L21.4872 25.3227Z" fill="#FF9916"/>
</svg>
