<svg width="50" height="50" viewBox="0 0 50 50" fill="none" xmlns="http://www.w3.org/2000/svg">
<rect x="0.5" y="0.5" width="49" height="49" rx="5.5" stroke="#031A26" stroke-opacity="0.12"/>
<path d="M10.1979 21.0039C9.71666 20.9264 9.33876 20.9005 8.98508 20.7988C8.31972 20.6098 7.95797 20.1383 7.91437 19.4471C7.88853 19.0449 7.8853 18.6396 7.90952 18.2375C7.94828 17.606 8.29227 17.2572 8.93179 17.2168C10.3077 17.1296 11.6417 17.2007 12.6478 18.5152C13.0515 17.7174 13.402 17.0101 13.7653 16.3076C14.5454 14.8025 15.7211 13.7511 17.3635 13.2876C17.9255 13.1294 18.523 13.026 19.1044 13.0228C22.738 12.9985 26.3717 12.9889 30.0053 13.0179C32.3842 13.0373 34.1687 14.1242 35.3169 16.2155C35.7045 16.9197 36.0485 17.6496 36.4377 18.4167C36.617 18.2536 36.772 18.1196 36.9206 17.9791C37.4487 17.4784 38.0704 17.1926 38.8036 17.1748C39.2606 17.1635 39.7193 17.1458 40.1747 17.1684C40.8675 17.2055 41.197 17.5414 41.2325 18.2245C41.2503 18.5734 41.2486 18.9254 41.2325 19.2743C41.1824 20.2061 40.6317 20.7519 39.6967 20.8004C39.4367 20.8133 39.1767 20.802 38.7503 20.802C38.9635 20.9942 39.0426 21.0895 39.1444 21.1541C40.9483 22.3007 41.9931 23.9318 42.0771 26.07C42.1466 27.8416 42.0868 29.618 42.0416 31.3929C42.0222 32.1568 41.7234 32.8479 41.2809 33.4842C41.1404 33.6861 41.0807 33.9687 41.0532 34.2207C41.0145 34.5937 41.0645 34.9748 41.0306 35.3495C40.9434 36.3266 40.3346 36.9451 39.3575 36.9725C38.093 37.0081 36.8269 37.0097 35.564 36.9725C34.5191 36.9419 33.9426 36.3266 33.9071 35.2833C33.8877 34.7181 33.9022 34.1528 33.899 33.5876C33.8941 32.6364 33.8295 32.5653 32.8977 32.5605C30.2863 32.5476 27.6766 32.5427 25.0652 32.525C22.239 32.5056 19.4145 32.4733 16.5883 32.4474C16.346 32.4458 16.1006 32.4264 15.8632 32.4571C15.4691 32.5072 15.235 32.7123 15.243 33.1516C15.2559 33.8508 15.2592 34.5517 15.2398 35.251C15.2091 36.3427 14.631 36.9483 13.5328 36.9758C12.2957 37.0081 11.0555 37.0081 9.8184 36.9758C8.80259 36.9483 8.18729 36.3153 8.10816 35.2995C8.08878 35.0588 8.0904 34.815 8.10332 34.5727C8.12916 34.0785 8.04679 33.6554 7.71734 33.2291C7.23124 32.6009 7.0649 31.8079 7.0536 31.0231C7.02937 29.329 6.99869 27.6316 7.08105 25.9408C7.17633 23.9592 8.15338 22.4299 9.77156 21.3026C9.87977 21.2267 9.98635 21.1525 10.2028 21.0006L10.1979 21.0039ZM12.2247 21.2445C11.6062 21.6321 11.0522 21.9599 10.5177 22.3168C9.04322 23.3003 8.30196 24.694 8.27612 26.4576C8.25512 27.8561 8.24705 29.2563 8.28419 30.6532C8.29711 31.1522 8.415 31.6626 8.56842 32.1422C8.78967 32.8366 9.09167 33.0272 9.8184 33.0369C10.6259 33.0482 11.4334 33.066 12.2392 33.0272C12.5396 33.0127 12.8658 32.9012 13.121 32.7414C13.6878 32.3845 14.2337 31.9856 14.7585 31.5673C15.0751 31.3154 15.4013 31.2298 15.797 31.2314C21.6334 31.2508 27.4715 31.2653 33.3079 31.2653C33.7116 31.2653 34.0346 31.388 34.3447 31.619C34.9051 32.0356 35.4639 32.4571 36.0453 32.8447C36.2552 32.9852 36.5265 33.1096 36.7688 33.1096C37.6828 33.1144 38.5969 33.066 39.5109 33.0353C39.989 33.0191 40.3507 32.7834 40.5025 32.3425C40.6673 31.8644 40.8352 31.3622 40.8497 30.8648C40.8934 29.3322 40.8998 27.798 40.8562 26.2654C40.811 24.7296 40.1569 23.4586 38.9247 22.5316C38.3062 22.0665 37.6215 21.6854 36.9206 21.2364C35.866 22.9774 34.6758 24.5584 33.1674 25.9763C32.8751 25.663 32.6054 25.3756 32.3163 25.0639C33.5388 23.8607 34.6289 22.6124 35.4784 21.1444C34.6225 20.9651 14.2934 20.9942 13.6846 21.1767C14.526 22.6334 15.6225 23.872 16.8289 25.0736C16.5269 25.3949 16.2605 25.6792 15.9794 25.9763C14.4646 24.5568 13.2889 22.9951 12.2279 21.2429L12.2247 21.2445ZM35.6884 19.7394C35.1667 18.6945 34.721 17.7497 34.23 16.8324C33.3418 15.1755 31.9578 14.2954 30.057 14.2921C26.3975 14.2873 22.7396 14.2841 19.0802 14.2921C17.1471 14.297 15.7566 15.203 14.8716 16.9035C14.4743 17.6658 14.0948 18.4361 13.7153 19.208C13.6394 19.3631 13.599 19.5359 13.5312 19.7394H35.6884ZM14.0302 33.8218C13.9866 33.783 13.9446 33.7459 13.901 33.7071C13.2308 34.4096 12.3878 34.3595 11.5512 34.3482C11.0135 34.3402 10.4741 34.3402 9.93629 34.3499C9.76026 34.3531 9.58584 34.3983 9.38721 34.4274C9.38721 34.6938 9.37752 34.9086 9.38882 35.1234C9.41466 35.6467 9.49379 35.7533 10.0025 35.7629C11.133 35.7823 12.2634 35.7678 13.3923 35.7694C13.8348 35.7694 14.0221 35.5255 14.0286 35.1105C14.0334 34.6809 14.0286 34.2513 14.0286 33.8218H14.0302ZM35.2491 33.825C35.2006 33.8605 35.1522 33.8961 35.1054 33.93C35.1054 34.2756 35.0973 34.6212 35.107 34.9668C35.128 35.6354 35.2475 35.7597 35.9161 35.7678C36.7994 35.7791 37.6844 35.771 38.5678 35.771C39.7855 35.771 39.842 35.7064 39.716 34.4936C39.7112 34.4516 39.6498 34.4161 39.603 34.3644C38.9183 34.3644 38.2222 34.3466 37.5278 34.3692C36.7235 34.3951 35.9177 34.4629 35.2491 33.825ZM37.3824 19.5924C38.1269 19.5924 38.8407 19.5989 39.5546 19.5892C39.8356 19.5843 40.0067 19.418 40.018 19.1354C40.0261 18.9044 39.9971 18.6719 39.9857 18.4506C38.4806 18.2488 37.8492 18.5185 37.3841 19.5924H37.3824ZM9.19664 19.6005H11.7337C11.246 18.5427 10.3481 18.2197 9.09328 18.659C9.12558 18.9561 9.16111 19.263 9.19826 19.6005H9.19664Z" fill="#FF9916"/>
<path d="M31.3161 28.1129V29.1044C30.7396 29.3079 18.6048 29.3645 17.6035 29.1674C17.6035 28.838 17.6035 28.4972 17.6035 28.1581C18.1591 27.995 30.226 27.9465 31.3177 28.1145L31.3161 28.1129Z" fill="#FF9916"/>
<path d="M15.2988 30.0108C15.2051 30.0318 15.1033 30.0738 15.0016 30.0738C13.7936 30.0787 12.584 30.1077 11.376 30.069C10.0825 30.027 9.47846 29.3939 9.43001 28.102C9.41548 27.7273 9.41548 27.3462 9.472 26.9779C9.55921 26.4079 9.85636 26.0687 10.4167 26.0493C11.242 26.0203 12.1011 25.9783 12.8957 26.1608C14.5736 26.5451 15.5636 28.2118 15.2971 30.0092L15.2988 30.0108ZM14.0084 28.8319C13.4561 27.4431 12.3773 26.9828 10.6929 27.3655C10.6929 27.5658 10.6897 27.7773 10.6929 27.9873C10.7042 28.7124 10.8043 28.8206 11.5343 28.8303C12.3353 28.84 13.1379 28.8319 14.0084 28.8319Z" fill="#FF9916"/>
<path d="M33.8387 30.0067C33.54 27.9719 34.7964 26.2843 36.7925 26.0565C37.3755 25.9903 37.973 25.9839 38.5608 26.0194C39.2811 26.0646 39.6429 26.4183 39.6881 27.137C39.722 27.6683 39.701 28.2141 39.6106 28.7374C39.4894 29.4366 39.0243 29.955 38.3202 29.9857C36.828 30.0519 35.3309 30.0051 33.8387 30.0051V30.0067ZM38.4074 27.3178C36.4856 27.082 35.5619 27.5116 35.1662 28.831C35.8203 28.831 36.4614 28.831 37.1025 28.831C38.5076 28.831 38.5108 28.8278 38.4074 27.3178Z" fill="#FF9916"/>
</svg>
