<svg width="50" height="50" viewBox="0 0 50 50" fill="none" xmlns="http://www.w3.org/2000/svg">
<path d="M25 0.5C38.531 0.5 49.5 11.469 49.5 25C49.5 38.531 38.531 49.5 25 49.5C11.469 49.5 0.5 38.531 0.5 25C0.5 11.469 11.469 0.5 25 0.5Z" stroke="#031A26" stroke-opacity="0.2"/>
<path d="M33.973 30.697C33.973 31.021 33.901 31.354 33.748 31.678C33.595 32.002 33.397 32.308 33.136 32.596C32.695 33.082 32.209 33.433 31.66 33.658C31.12 33.883 30.535 34 29.905 34C28.987 34 28.006 33.784 26.971 33.343C25.936 32.902 24.901 32.308 23.875 31.561C22.84 30.805 21.859 29.968 20.923 29.041C19.996 28.105 19.159 27.124 18.412 26.098C17.674 25.072 17.08 24.046 16.648 23.029C16.216 22.003 16 21.022 16 20.086C16 19.474 16.108 18.889 16.324 18.349C16.54 17.8 16.882 17.296 17.359 16.846C17.935 16.279 18.565 16 19.231 16C19.483 16 19.735 16.054 19.96 16.162C20.194 16.27 20.401 16.432 20.563 16.666L22.651 19.609C22.813 19.834 22.93 20.041 23.011 20.239C23.092 20.428 23.137 20.617 23.137 20.788C23.137 21.004 23.074 21.22 22.948 21.427C22.831 21.634 22.66 21.85 22.444 22.066L21.76 22.777C21.661 22.876 21.616 22.993 21.616 23.137C21.616 23.209 21.625 23.272 21.643 23.344C21.67 23.416 21.697 23.47 21.715 23.524C21.877 23.821 22.156 24.208 22.552 24.676C22.957 25.144 23.389 25.621 23.857 26.098C24.343 26.575 24.811 27.016 25.288 27.421C25.756 27.817 26.143 28.087 26.449 28.249C26.494 28.267 26.548 28.294 26.611 28.321C26.683 28.348 26.755 28.357 26.836 28.357C26.989 28.357 27.106 28.303 27.205 28.204L27.889 27.529C28.114 27.304 28.33 27.133 28.537 27.025C28.744 26.899 28.951 26.836 29.176 26.836C29.347 26.836 29.527 26.872 29.725 26.953C29.923 27.034 30.13 27.151 30.355 27.304L33.334 29.419C33.568 29.581 33.73 29.77 33.829 29.995C33.919 30.22 33.973 30.445 33.973 30.697Z" stroke="#031A26" stroke-width="1.5" stroke-miterlimit="10"/>
<path d="M30.8531 22.3004C30.8531 21.7604 30.4301 20.9324 29.8001 20.2574C29.2241 19.6364 28.4591 19.1504 27.7031 19.1504" stroke="#031A26" stroke-width="1.5" stroke-linecap="round" stroke-linejoin="round"/>
<path d="M34.0031 22.3C34.0031 18.817 31.1861 16 27.7031 16" stroke="#031A26" stroke-width="1.5" stroke-linecap="round" stroke-linejoin="round"/>
</svg>
