<svg width="22" height="20" viewBox="0 0 22 20" fill="none" xmlns="http://www.w3.org/2000/svg">
<path d="M9.39997 10.6381C9.39997 10.6381 6.56988 8.65474 3.20898 7.93345L9.75384 15.5063L21.4284 -1.33514e-05C21.4284 -1.33514e-05 13.2917 4.50756 9.39997 10.6381Z" fill="#031A26"/>
<path d="M16.4897 10.4284C16.068 10.4284 15.7262 10.7768 15.7262 11.2067C15.7262 13.1403 14.9876 14.9573 13.646 16.3238C12.306 17.6907 10.5236 18.4436 8.62651 18.4436C4.71168 18.4436 1.52685 15.1972 1.52685 11.2067C1.52685 9.27287 2.26561 7.45585 3.60719 6.08958C4.94686 4.72261 6.72953 3.96972 8.62651 3.96972C9.02015 3.96972 9.41475 4.00274 9.79924 4.06783C10.2149 4.13835 10.6084 3.85166 10.6774 3.42755C10.7465 3.00358 10.4652 2.60288 10.0495 2.5325C9.58225 2.45333 9.10356 2.41333 8.62651 2.41333C6.32126 2.41333 4.15506 3.32832 2.52757 4.98909C0.897761 6.64875 0 8.85698 0 11.2067C0 16.0553 3.86984 20 8.62651 20C10.9318 20 13.0978 19.085 14.7254 17.4241C16.3555 15.7643 17.253 13.5565 17.253 11.2067C17.253 10.7768 16.9113 10.4284 16.4897 10.4284Z" fill="#031A26"/>
</svg>
