<svg width="22" height="25" viewBox="0 0 22 25" fill="none" xmlns="http://www.w3.org/2000/svg">
<path d="M5.59035 8.89275C5.38512 8.30629 5.1903 7.7825 5.01817 7.25122C4.67771 6.19896 4.78647 5.14857 5.15909 4.13934C5.9242 2.06475 7.39483 0.701017 9.57951 0.183772C11.5325 -0.278287 13.319 0.134199 14.8937 1.38475C16.1837 2.40895 16.9043 3.75678 17.1389 5.35622C17.2457 6.08485 17.1691 6.81535 16.9176 7.51873C16.8703 7.64968 16.8353 7.78437 16.7842 7.94992C16.963 8.01914 17.1322 8.09303 17.3072 8.15196C18.6322 8.59157 19.9591 9.02744 21.285 9.46518C21.4042 9.50447 21.5243 9.54281 21.6397 9.59052C21.8638 9.68405 21.9877 9.84961 21.9887 10.0956C21.9887 10.205 21.9896 10.3135 21.9896 10.423C21.9896 14.6769 21.9896 18.9318 21.9896 23.1857C21.9896 23.2484 21.9811 23.312 21.9905 23.3728C22.0624 23.8264 21.7172 24.1257 21.2037 23.948C20.4622 23.6908 19.7132 23.456 18.9679 23.2091C17.6117 22.7611 16.2536 22.3177 14.9022 21.8566C14.6156 21.7593 14.364 21.7706 14.0832 21.865C12.0451 22.5478 10.0004 23.2147 7.96228 23.9003C7.6464 24.007 7.36268 24.006 7.04775 23.9003C4.90563 23.182 2.75879 22.4758 0.613832 21.7659C0.5098 21.7313 0.40293 21.7013 0.304573 21.6536C0.121098 21.5648 0.0132828 21.4217 0.0132828 21.2112C0.0132828 21.1018 0.0123371 20.9933 0.0123371 20.8838C0.0123371 16.6299 0.0246318 12.375 4.23787e-05 8.12109C-0.00374061 7.41678 0.244991 7.11186 1.04982 7.39807C2.4098 7.88071 3.7906 8.30629 5.16193 8.75526C5.29244 8.79828 5.42295 8.83944 5.58846 8.89369L5.59035 8.89275ZM7.00992 22.8237V12.3582C7.00992 11.3854 7.00519 11.3873 6.52286 10.5661C6.37437 10.3135 6.18806 10.1527 5.89583 10.0601C4.41668 9.58865 2.94415 9.09385 1.46879 8.60934C1.32787 8.56258 1.18223 8.5289 1.02712 8.48494V20.8539C3.02265 21.5115 4.99831 22.1615 7.00992 22.8247V22.8237ZM16.4012 8.91894C15.9463 9.72427 15.5084 10.4782 15.0961 11.2461C15.0138 11.3995 14.9986 11.6034 14.9986 11.783C14.993 14.6788 14.9949 17.5746 14.9949 20.4704V20.8446C16.0096 21.1785 16.9894 21.5059 17.973 21.822C18.9632 22.1409 19.9373 22.5132 20.9795 22.7826V10.4305C19.4503 9.92537 17.9352 9.42496 16.4012 8.91894ZM11.0038 15.5646C11.1069 15.4196 11.1901 15.3092 11.2667 15.1951C11.9789 14.1316 12.6986 13.0719 13.3994 12.0009C14.2118 10.7597 14.9674 9.48482 15.5973 8.14074C16.0418 7.19043 16.2962 6.21206 16.0768 5.16073C15.4734 2.26959 12.7686 0.584099 10.0363 1.10602C8.24885 1.44742 6.97303 2.49126 6.23913 4.1515C5.97905 4.74076 5.84759 5.37118 5.83719 6.00815C5.82773 6.55159 5.97716 7.08099 6.17955 7.59262C6.58622 8.62524 7.10355 9.60548 7.69842 10.5399C8.71226 12.1328 9.76109 13.7042 10.7967 15.2839C10.8544 15.3719 10.9215 15.4523 11.0038 15.5636V15.5646ZM13.9886 13.0017C13.9318 13.0775 13.8855 13.1345 13.8448 13.1944C13.0892 14.3224 12.3354 15.4504 11.5798 16.5785C11.5192 16.6692 11.4597 16.7637 11.384 16.8404C11.1305 17.0966 10.8629 17.0901 10.6094 16.8282C10.5555 16.7721 10.5082 16.7085 10.4647 16.6439C9.73556 15.5552 9.00828 14.4646 8.27911 13.3758C8.20061 13.2589 8.11549 13.1448 8.02187 13.0129V22.8181C10.0268 22.1568 12.0044 21.5049 13.9886 20.8502V13.0017Z" fill="#031A26"/>
<path d="M11.0085 9.40124C9.28441 9.3975 7.59341 8.04312 7.60949 6.04336C7.62557 4.10813 9.06688 2.68828 10.9972 2.68361C12.9076 2.67893 14.3716 4.07727 14.3952 6.03213C14.4198 8.02254 12.7439 9.39095 11.0085 9.40124ZM10.9612 8.36207C12.4054 8.4369 13.3615 7.14706 13.3748 6.07516C13.3908 4.77036 12.2872 3.70968 11.0454 3.69003C9.73269 3.66852 8.65359 4.76381 8.63184 5.99191C8.61009 7.19196 9.64379 8.40229 10.9622 8.36301L10.9612 8.36207Z" fill="#031A26"/>
<path d="M7.50332 23.4685C7.50332 20.0545 7.50332 16.6405 7.50237 13.2265C7.50237 12.944 7.49953 12.669 7.69057 12.4295C7.80123 12.2911 7.78042 12.1237 7.73975 11.9637C7.52601 11.1229 7.06733 10.4064 6.55379 9.72172C6.38733 9.50005 6.20008 9.31578 5.84448 9.42522C5.57683 9.50846 5.3054 9.33823 5.04532 9.24937C3.80166 8.82379 2.53815 8.45527 1.30678 7.99508C1.12142 7.92586 0.901058 7.94831 0.692048 7.92773C0.532217 8.16718 0.501953 8.41972 0.501953 8.69004C0.505736 12.6811 0.50479 16.6713 0.50479 20.6624C0.50479 20.6783 0.50479 20.6933 0.50479 20.7092C0.488713 21.1965 0.531271 21.2133 0.978609 21.363C2.15985 21.7568 3.34203 22.1449 4.52516 22.5331C5.24866 22.7707 5.97499 23.0017 6.70038 23.2346C6.85643 23.2851 7.04463 23.4067 7.16758 23.3609C7.54398 23.2215 7.92228 23.3861 8.31382 23.2505C10.2091 22.593 12.1233 21.9887 14.0299 21.363C14.1907 21.3106 14.3458 21.2395 14.5037 21.1769C14.6929 21.2545 14.8782 21.3443 15.0721 21.4088C16.8208 21.9887 18.5695 22.5668 20.321 23.1383C20.6407 23.243 20.9707 23.3123 21.3131 23.2814" stroke="#031A26" stroke-linecap="round" stroke-linejoin="round"/>
<path d="M14.5003 21.1298C14.5003 18.4949 14.4993 15.861 14.5012 13.2261C14.5012 12.9437 14.5041 12.6687 14.313 12.4292C14.2024 12.2908 14.2232 12.1234 14.2638 11.9634C14.3896 11.4771 14.6005 11.0328 14.8701 10.6016C15.2181 10.045 15.5037 9.45017 15.8262 8.87774C15.9369 8.68225 16.1061 8.51482 16.1932 8.31185C16.2792 8.10982 16.2726 7.87131 16.3473 7.66179C17.0349 5.72563 16.5639 4.01395 15.2985 2.47344C14.6194 1.6466 13.7418 1.09101 12.7033 0.784214C11.8796 0.54009 11.0615 0.437202 10.1933 0.58218C9.54172 0.69068 8.92698 0.861847 8.35481 1.1649C7.1329 1.81216 6.25241 2.76153 5.74171 4.05604C5.50716 4.65186 5.36814 5.25702 5.33125 5.8837C5.28397 6.68997 5.57526 7.43263 5.84763 8.17436C5.89586 8.30437 5.96869 8.42597 6.03489 8.5485C6.17297 8.80197 6.2212 9.06481 6.12852 9.34354" stroke="#031A26" stroke-linecap="round" stroke-linejoin="round"/>
<path d="M16.2988 8.31641C17.2607 8.64378 18.2206 8.97489 19.1834 9.29758C19.764 9.49213 20.3514 9.66798 20.932 9.86159C21.4626 10.0384 21.4995 10.0973 21.4995 10.6548C21.4995 14.1155 21.4995 17.5763 21.4995 21.0371C21.4995 21.5206 21.4995 22.0033 21.4995 22.4869C21.4995 22.7095 21.5373 22.9424 21.4021 23.1397C21.2905 23.3025 21.4276 23.396 21.4758 23.5157" stroke="#031A26" stroke-linecap="round" stroke-linejoin="round"/>
<path d="M14.1705 12.1992C13.8801 12.361 13.6409 12.5584 13.4536 12.8493C12.8256 13.8277 12.174 14.7911 11.5167 15.7498C11.3881 15.9378 11.1914 16.0809 11.0022 16.268C10.797 16.065 10.5814 15.9088 10.4405 15.703C9.79641 14.7611 9.16749 13.8089 8.54708 12.8521C8.36266 12.5677 8.13757 12.347 7.83398 12.2002" stroke="#031A26" stroke-linecap="round" stroke-linejoin="round"/>
<path d="M10.9546 3.17188C10.8128 3.18778 10.67 3.19619 10.529 3.22051C10.4014 3.24203 10.2737 3.27196 10.1507 3.31311C9.09056 3.66854 8.39071 4.38689 8.17792 5.46534C7.95567 6.58775 8.32734 7.52964 9.24661 8.27511C10.2633 9.09914 11.8767 9.07482 12.8962 8.17877C13.354 7.77657 13.7096 7.28084 13.8165 6.7215C14.0264 5.62622 13.7815 4.62446 12.848 3.86964C12.3591 3.47399 11.8332 3.21209 11.1901 3.21677C11.1268 3.21677 11.0643 3.18778 11.001 3.17188" stroke="#031A26" stroke-linecap="round" stroke-linejoin="round"/>
</svg>
