<svg width="24" height="24" viewBox="0 0 24 24" fill="none" xmlns="http://www.w3.org/2000/svg">
<path fill-rule="evenodd" clip-rule="evenodd" d="M17.9067 1.01419C17.6683 0.633365 17.3172 0.336324 16.9021 0.164413C16.4871 -0.0074974 16.0287 -0.0457244 15.5909 0.0550546L12.4837 0.768788C12.1653 0.841978 11.8344 0.841978 11.5159 0.768788L8.40867 0.0550546C7.97086 -0.0457244 7.51253 -0.0074974 7.09747 0.164413C6.6824 0.336324 6.33126 0.633365 6.09293 1.01419L4.39932 3.71704C4.22651 3.99355 3.9932 4.22685 3.7167 4.4014L1.01384 6.095C0.633675 6.33313 0.337069 6.6837 0.165196 7.09805C-0.00667771 7.51241 -0.0452939 7.96999 0.0547075 8.40729L0.768441 11.518C0.841367 11.8359 0.841367 12.1662 0.768441 12.484L0.0547075 15.593C-0.0456825 16.0306 -0.00726071 16.4885 0.164631 16.9032C0.336524 17.3179 0.633346 17.6688 1.01384 17.907L3.7167 19.6006C3.9932 19.7735 4.22651 20.0068 4.40105 20.2833L6.09465 22.9861C6.582 23.7655 7.51175 24.1509 8.40867 23.9452L11.5159 23.2315C11.8344 23.1583 12.1653 23.1583 12.4837 23.2315L15.5927 23.9452C16.0302 24.0456 16.4882 24.0072 16.9029 23.8353C17.3176 23.6634 17.6685 23.3666 17.9067 22.9861L19.6003 20.2833C19.7731 20.0068 20.0064 19.7735 20.2829 19.6006L22.9875 17.907C23.368 17.6685 23.6647 17.3172 23.8363 16.9022C24.0079 16.4871 24.0458 16.0289 23.9449 15.5913L23.2329 12.484C23.1597 12.1656 23.1597 11.8347 23.2329 11.5163L23.9466 8.40729C24.0472 7.96992 24.009 7.51208 23.8375 7.09739C23.6659 6.6827 23.3694 6.33174 22.9892 6.09327L20.2846 4.39967C20.0085 4.22653 19.7752 3.99317 19.602 3.71704L17.9067 1.01419ZM17.0374 8.14634C17.1443 7.94979 17.1708 7.71944 17.1113 7.50376C17.0518 7.28807 16.911 7.10388 16.7184 6.98992C16.5259 6.87596 16.2967 6.84113 16.079 6.89275C15.8613 6.94438 15.6721 7.07842 15.5512 7.2667L11.032 14.9156L8.30325 12.3026C8.2223 12.2195 8.12543 12.1535 8.01844 12.1086C7.91144 12.0637 7.79649 12.0409 7.68047 12.0414C7.56444 12.0419 7.4497 12.0658 7.34309 12.1116C7.23649 12.1574 7.1402 12.2242 7.05998 12.308C6.97975 12.3918 6.91723 12.4909 6.87614 12.5995C6.83505 12.708 6.81624 12.8236 6.82082 12.9396C6.82541 13.0555 6.85329 13.1694 6.90282 13.2743C6.95234 13.3792 7.0225 13.4731 7.10909 13.5503L10.6242 16.9185C10.7183 17.0085 10.8314 17.076 10.9553 17.1161C11.0791 17.1562 11.2104 17.1678 11.3394 17.15C11.4683 17.1322 11.5916 17.0855 11.7 17.0134C11.8083 16.9413 11.899 16.8457 11.9652 16.7336L17.0374 8.14634Z" fill="black"/>
</svg>
