<svg width="26" height="26" viewBox="0 0 26 26" fill="none" xmlns="http://www.w3.org/2000/svg">
<path d="M9.4 25H16.6C22.6 25 25 22.6 25 16.6V9.4C25 3.4 22.6 1 16.6 1H9.4C3.4 1 1 3.4 1 9.4V16.6C1 22.6 3.4 25 9.4 25Z" stroke="#292D32" stroke-width="2" stroke-linecap="round" stroke-linejoin="round"/>
<path d="M9.4 10.6008C10.7255 10.6008 11.8 9.52626 11.8 8.20078C11.8 6.8753 10.7255 5.80078 9.4 5.80078C8.07452 5.80078 7 6.8753 7 8.20078C7 9.52626 8.07452 10.6008 9.4 10.6008Z" stroke="#292D32" stroke-width="2" stroke-linecap="round" stroke-linejoin="round"/>
<path d="M1.80273 21.3391L7.71873 17.3671C8.66673 16.7311 10.0347 16.8031 10.8867 17.5351L11.2827 17.8831C12.2187 18.6871 13.7307 18.6871 14.6667 17.8831L19.6587 13.5991C20.5947 12.7951 22.1067 12.7951 23.0427 13.5991L24.9987 15.2791" stroke="#292D32" stroke-width="2" stroke-linecap="round" stroke-linejoin="round"/>
</svg>
