<svg width="42" height="30" viewBox="0 0 42 30" fill="none" xmlns="http://www.w3.org/2000/svg">
<path d="M40.633 26.6266C40.633 27.4855 40.6449 28.278 40.6296 29.0687C40.6161 29.781 40.4214 29.9736 39.7189 29.9941C39.1839 30.0094 38.6473 29.989 38.1106 29.9992C37.6112 30.0077 37.3234 29.7896 37.2286 29.2834C37.0661 28.4194 36.8799 27.5605 36.692 26.6454H5.3022C5.12106 27.5145 4.92468 28.3683 4.77063 29.2272C4.67413 29.7708 4.38973 30.0145 3.848 29.9992C3.34013 29.9855 2.83226 30.006 2.32439 29.9941C1.55581 29.977 1.37128 29.7998 1.35774 29.038C1.3442 28.249 1.35436 27.4583 1.35436 26.6198C1.12581 26.6062 0.964988 26.5926 0.804163 26.5875C0.240427 26.5755 -0.00335104 26.2705 3.47623e-05 25.72C0.00511346 25.0946 3.47623e-05 24.4709 3.47623e-05 23.8455C3.47623e-05 22.6014 0.0423572 22.5554 1.35436 22.4497C1.35436 21.8158 1.35436 21.1716 1.35436 20.5275C1.35436 19.476 1.35097 18.4262 1.35436 17.3748C1.36113 15.6263 2.10262 14.7009 3.79552 14.3192C3.8717 14.3022 3.9428 14.2698 4.063 14.2272C4.063 13.9119 4.063 13.6035 4.063 13.2933C4.063 9.88498 4.05961 6.47836 4.063 3.07004C4.06807 1.09151 5.1346 0.00255624 7.08652 0.00255624C16.367 -0.00085208 25.6492 -0.00085208 34.9296 0.00255624C36.8342 0.00255624 37.9193 1.09833 37.9227 3.01551C37.9295 6.4511 37.9244 9.88839 37.9244 13.324C37.9244 13.6324 37.9244 13.9409 37.9244 14.0772C38.6303 14.4555 39.2686 14.6975 39.7815 15.0997C40.4096 15.5939 40.6381 16.3403 40.6347 17.1481C40.6296 18.6239 40.6347 20.1014 40.6347 21.5772C40.6347 21.855 40.6347 22.1345 40.6347 22.4583C40.9191 22.477 41.1375 22.477 41.3525 22.5077C41.7385 22.5639 41.9721 22.8008 41.9772 23.1911C41.9924 24.0994 42.0246 25.0111 41.967 25.916C41.9179 26.6931 41.2476 26.5568 40.633 26.6249V26.6266ZM21.6692 14.2783C21.6692 13.4399 21.6658 12.6781 21.6692 11.9146C21.6776 9.94122 22.7442 8.86589 24.7096 8.86248C27.1914 8.85737 29.6749 8.85737 32.1567 8.86248C34.1628 8.86589 35.209 9.93781 35.2141 11.9845C35.2157 12.7412 35.2141 13.4995 35.2141 14.2527H36.565V13.433C36.565 10.0247 36.565 6.6181 36.565 3.20979C36.565 1.80726 36.1333 1.36759 34.7604 1.36588C25.5933 1.36588 16.4246 1.36588 7.2575 1.36588C5.86424 1.36588 5.4224 1.80044 5.4207 3.17741C5.41901 6.61299 5.4207 10.0486 5.4207 13.4859V14.263H6.77164C6.77164 13.4245 6.76656 12.6338 6.77164 11.8448C6.78518 9.97871 7.87033 8.8693 9.7122 8.86248C12.2516 8.85396 14.7892 8.85567 17.3286 8.86248C19.228 8.86759 20.3047 9.96167 20.3165 11.8823C20.3216 12.6696 20.3165 13.4569 20.3165 14.2766H21.6675L21.6692 14.2783ZM39.2753 22.4651C39.2753 20.6757 39.2838 18.9767 39.2719 17.2776C39.2652 16.1819 38.7607 15.6859 37.6468 15.6842C26.5396 15.6808 15.4325 15.6808 4.3237 15.6842C3.21824 15.6842 2.72053 16.187 2.71375 17.2913C2.7036 18.8233 2.70868 20.357 2.71375 21.8891C2.71375 22.0765 2.75438 22.264 2.77639 22.4651H39.2753ZM40.5907 23.9187H1.39498V25.1781H40.5907V23.9187ZM18.9605 14.2868C18.9605 13.4092 18.969 12.6202 18.9588 11.8311C18.9436 10.7302 18.451 10.2394 17.3438 10.2309C16.1622 10.2207 14.9788 10.2292 13.7972 10.2292C12.4175 10.2292 11.0394 10.2207 9.65973 10.2326C8.80312 10.2411 8.20722 10.6655 8.15812 11.4085C8.09548 12.356 8.14289 13.3103 8.14289 14.2868H18.9588H18.9605ZM23.0303 14.2579H33.8563C33.8563 13.3274 33.8817 12.4514 33.8479 11.5789C33.8174 10.7814 33.2943 10.2446 32.4986 10.2377C29.7968 10.2156 27.0949 10.2156 24.393 10.2377C23.5974 10.2446 23.0692 10.7797 23.0387 11.5738C23.0049 12.448 23.0303 13.3223 23.0303 14.2579ZM3.89709 26.6471H2.76285V28.6495C3.05572 28.6171 3.29103 28.5898 3.51619 28.5643C3.64824 27.8945 3.76843 27.293 3.89709 26.6471ZM39.2347 26.6283H38.0852C38.2257 27.3168 38.3544 27.9576 38.4847 28.5932H39.2347V26.6283Z" fill="#FF9916"/>
</svg>
