<svg width="44" height="30" viewBox="0 0 44 30" fill="none" xmlns="http://www.w3.org/2000/svg">
<path d="M3.9766 10.0048C3.373 9.90795 2.89903 9.87565 2.45544 9.74847C1.62093 9.51228 1.16721 8.92282 1.11252 8.05882C1.08012 7.55617 1.07607 7.04948 1.10645 6.54682C1.15506 5.75751 1.58649 5.32148 2.3886 5.27101C4.11434 5.162 5.78741 5.25082 7.0493 6.89404C7.55568 5.89681 7.99522 5.01262 8.45096 4.13449C9.42928 2.25306 10.9039 0.938895 12.9638 0.35953C13.6687 0.161698 14.4181 0.0325021 15.1473 0.0284647C19.7047 -0.00181568 24.2621 -0.0139278 28.8195 0.0224086C31.8031 0.0466329 34.0413 1.40521 35.4814 4.01942C35.9676 4.89957 36.399 5.81202 36.8871 6.7709C37.112 6.56701 37.3064 6.39946 37.4928 6.22383C38.1551 5.59804 38.9349 5.24073 39.8545 5.21852C40.4277 5.20439 41.003 5.18219 41.5742 5.21045C42.4431 5.25688 42.8563 5.67677 42.9009 6.53067C42.9232 6.96671 42.9211 7.40679 42.9009 7.84282C42.8381 9.00761 42.1474 9.68993 40.9746 9.75049C40.6485 9.76664 40.3224 9.75251 39.7877 9.75251C40.055 9.99273 40.1543 10.1118 40.2819 10.1926C42.5444 11.6259 43.8549 13.6647 43.9602 16.3375C44.0473 18.552 43.9724 20.7726 43.9157 22.9911C43.8914 23.9459 43.5166 24.8099 42.9617 25.6053C42.7854 25.8576 42.7105 26.2109 42.6761 26.5258C42.6274 26.9921 42.6902 27.4686 42.6477 27.9369C42.5383 29.1582 41.7747 29.9314 40.5493 29.9657C38.9633 30.0101 37.3753 30.0121 35.7913 29.9657C34.4808 29.9273 33.7577 29.1582 33.7132 27.8541C33.6889 27.1476 33.7071 26.441 33.703 25.7345C33.697 24.5455 33.6159 24.4567 32.4472 24.4506C29.172 24.4345 25.8987 24.4284 22.6235 24.4062C19.0788 24.382 15.5362 24.3416 11.9916 24.3093C11.6877 24.3073 11.3799 24.2831 11.0821 24.3214C10.5879 24.384 10.2942 24.6404 10.3043 25.1895C10.3205 26.0635 10.3246 26.9397 10.3003 27.8138C10.2618 29.1784 9.53664 29.9354 8.15929 29.9697C6.60774 30.0101 5.05215 30.0101 3.5006 29.9697C2.22656 29.9354 1.45484 29.1441 1.35559 27.8743C1.33128 27.5735 1.33331 27.2687 1.34951 26.9659C1.38192 26.3482 1.27862 25.8193 0.865412 25.2864C0.255733 24.5011 0.0471046 23.5099 0.032926 22.5288C0.00254333 20.4112 -0.0359414 18.2896 0.0673598 16.176C0.186865 13.6991 1.4123 11.7874 3.44187 10.3783C3.57757 10.2834 3.71126 10.1906 3.98268 10.0008L3.9766 10.0048ZM6.51862 10.3056C5.74285 10.7901 5.0481 11.1999 4.37765 11.646C2.52836 12.8754 1.59865 14.6176 1.56624 16.822C1.53991 18.5702 1.52978 20.3204 1.57637 22.0665C1.59257 22.6903 1.74043 23.3282 1.93286 23.9278C2.21035 24.7958 2.58912 25.034 3.5006 25.0461C4.51336 25.0603 5.52612 25.0825 6.53685 25.034C6.91359 25.0158 7.32275 24.8766 7.64278 24.6767C8.35373 24.2306 9.03836 23.732 9.69665 23.2091C10.0937 22.8942 10.5028 22.7872 10.9991 22.7892C18.3193 22.8134 25.6415 22.8316 32.9617 22.8316C33.4681 22.8316 33.8732 22.985 34.2621 23.2737C34.9649 23.7945 35.6658 24.3214 36.3949 24.8059C36.6583 24.9815 36.9985 25.137 37.3024 25.137C38.4488 25.143 39.5952 25.0825 40.7417 25.0441C41.3412 25.0239 41.795 24.7292 41.9854 24.1781C42.192 23.5806 42.4026 22.9527 42.4208 22.331C42.4755 20.4152 42.4836 18.4975 42.4289 16.5817C42.3722 14.662 41.5519 13.0733 40.0064 11.9145C39.2307 11.3331 38.3718 10.8567 37.4928 10.2955C36.1701 12.4717 34.6773 14.448 32.7855 16.2204C32.4189 15.8288 32.0806 15.4694 31.718 15.0798C33.2513 13.5759 34.6186 12.0155 35.684 10.1805C34.6105 9.9564 9.1133 9.99273 8.34968 10.2208C9.40498 12.0417 10.7803 13.59 12.2934 15.092C11.9146 15.4937 11.5804 15.849 11.2279 16.2204C9.32801 14.446 7.85343 12.4939 6.52267 10.3036L6.51862 10.3056ZM35.9473 8.42421C35.2931 7.11811 34.734 5.93718 34.1183 4.79056C33.0042 2.71938 31.2684 1.61919 28.8843 1.61516C24.2945 1.6091 19.7067 1.60506 15.1169 1.61516C12.6924 1.62121 10.9484 2.7537 9.83844 4.87938C9.34016 5.83221 8.86416 6.79512 8.38817 7.76006C8.29297 7.95385 8.24233 8.16985 8.15726 8.42421H35.9473ZM8.78314 26.0272C8.72845 25.9788 8.67579 25.9323 8.6211 25.8839C7.78051 26.762 6.7232 26.6994 5.67398 26.6853C4.99949 26.6752 4.32296 26.6752 3.64847 26.6873C3.42769 26.6914 3.20893 26.7479 2.95979 26.7842C2.95979 27.1173 2.94764 27.3858 2.96182 27.6543C2.99423 28.3083 3.09348 28.4416 3.73151 28.4537C5.14937 28.4779 6.56723 28.4597 7.98307 28.4618C8.53806 28.4618 8.77302 28.1569 8.78112 27.6381C8.7872 27.1012 8.78112 26.5642 8.78112 26.0272H8.78314ZM35.3964 26.0312C35.3356 26.0757 35.2748 26.1201 35.2161 26.1625C35.2161 26.5945 35.206 27.0265 35.2181 27.4585C35.2444 28.2942 35.3943 28.4496 36.2329 28.4597C37.3409 28.4739 38.4508 28.4638 39.5588 28.4638C41.086 28.4638 41.1569 28.383 40.9989 26.867C40.9929 26.8145 40.9159 26.7701 40.8571 26.7055C39.9983 26.7055 39.1253 26.6833 38.2544 26.7115C37.2457 26.7438 36.2349 26.8286 35.3964 26.0312ZM38.0721 8.24051C39.0058 8.24051 39.9011 8.24858 40.7964 8.23647C41.1488 8.23041 41.3635 8.02249 41.3777 7.66922C41.3878 7.38054 41.3514 7.08985 41.3372 6.81329C39.4494 6.56096 38.6574 6.89808 38.0741 8.24051H38.0721ZM2.72078 8.2506H5.90286C5.29116 6.92836 4.16497 6.52462 2.59115 7.0737C2.63166 7.44514 2.67622 7.82869 2.72281 8.2506H2.72078Z" fill="#FF9916"/>
<path d="M30.4643 18.8906V20.1301C29.7411 20.3844 14.5214 20.4551 13.2656 20.2088C13.2656 19.797 13.2656 19.371 13.2656 18.9471C13.9624 18.7432 29.097 18.6827 30.4663 18.8926L30.4643 18.8906Z" fill="#FF9916"/>
<path d="M10.3729 21.2635C10.2554 21.2898 10.1278 21.3423 10.0002 21.3423C8.48509 21.3483 6.96798 21.3847 5.4529 21.3362C3.83046 21.2837 3.07292 20.4924 3.01216 18.8774C2.99393 18.4091 2.99393 17.9327 3.06482 17.4724C3.1742 16.7598 3.54689 16.3359 4.24975 16.3117C5.28478 16.2753 6.36236 16.2229 7.35891 16.451C9.46342 16.9314 10.7051 19.0147 10.3708 21.2615L10.3729 21.2635ZM8.75449 19.7899C8.06176 18.0538 6.70872 17.4785 4.59611 17.9569C4.59611 18.2072 4.59206 18.4717 4.59611 18.7341C4.61029 19.6405 4.73587 19.7758 5.6514 19.7879C6.65606 19.8 7.66274 19.7899 8.75449 19.7899Z" fill="#FF9916"/>
<path d="M33.6272 21.2589C33.2525 18.7153 34.8283 16.6058 37.3319 16.3212C38.0631 16.2384 38.8125 16.2303 39.5498 16.2747C40.4532 16.3313 40.9069 16.7734 40.9636 17.6717C41.0061 18.3358 40.9798 19.0181 40.8664 19.6722C40.7145 20.5463 40.1311 21.1943 39.248 21.2327C37.3764 21.3154 35.4988 21.2569 33.6272 21.2569V21.2589ZM39.3574 17.8978C36.947 17.603 35.7884 18.14 35.2922 19.7893C36.1125 19.7893 36.9166 19.7893 37.7208 19.7893C39.483 19.7893 39.487 19.7852 39.3574 17.8978Z" fill="#FF9916"/>
</svg>
