<svg width="30" height="30" viewBox="0 0 30 30" fill="none" xmlns="http://www.w3.org/2000/svg">
<path d="M13.8454 8.67789C13.8454 10.7411 13.8513 12.8042 13.8407 14.8674C13.8384 15.2354 13.9319 15.531 14.1644 15.8277C16.8258 19.2309 19.4743 22.6446 22.1252 26.056C22.221 26.1787 22.3215 26.299 22.3986 26.4334C22.6194 26.8177 22.5773 27.0946 22.2047 27.4077C21.1228 28.3178 19.9463 29.1017 18.5747 29.4662C10.8534 31.5154 3.20331 27.5234 0.728838 20.0604C-1.27831 14.0087 0.974182 7.1124 6.08319 3.49658C8.10669 2.06427 10.3662 1.32358 12.8395 1.22078C13.5475 1.19157 13.8384 1.47546 13.8419 2.2547C13.8513 4.39615 13.8454 6.53761 13.8454 8.67789ZM12.4516 2.65893C12.156 2.65893 11.9621 2.63556 11.7752 2.66243C9.02966 3.05848 6.70706 4.29101 4.87983 6.35886C1.91116 9.71649 0.802442 13.6629 1.62493 18.0545C2.44274 22.4227 4.99316 25.535 8.98993 27.458C11.1303 28.4872 13.4155 28.7816 15.7533 28.5935C16.7113 28.5164 17.6705 28.2874 18.5969 28.0187C19.4486 27.7711 20.2057 27.2909 20.895 26.6939C20.7746 26.5268 20.6894 26.3983 20.5947 26.2768C18.0513 23.0056 15.5138 19.731 12.954 16.4715C12.5942 16.0135 12.4446 15.5462 12.447 14.9726C12.4598 11.1395 12.454 7.30633 12.454 3.47321C12.454 3.22437 12.454 2.97553 12.454 2.65893H12.4516Z" fill="#FF9916"/>
<path d="M22.4968 15.0196C20.3167 15.0196 18.1355 15.0208 15.9554 15.0196C15.1762 15.0196 14.9834 14.8315 14.9822 14.064C14.9799 9.68408 14.9799 5.30304 14.9822 0.923166C14.9822 0.192992 15.1855 -0.0196344 15.925 0.00139459C20.416 0.1264 24.0775 1.9641 26.8919 5.44323C28.9014 7.92699 29.9319 10.7974 30.0008 13.9997C30.0183 14.8479 29.8349 15.0196 28.9785 15.0196C26.8172 15.0208 24.657 15.0196 22.4956 15.0196H22.4968ZM28.6561 13.6399C28.3956 10.2262 27.1022 7.34168 24.6675 4.99111C22.3612 2.76437 19.59 1.58441 16.369 1.34959V13.6399H28.6561Z" fill="#FF9916"/>
<path d="M23.0785 16.1575C24.9267 16.1575 26.775 16.1575 28.6232 16.1575C28.7985 16.1575 28.9737 16.1516 29.1478 16.1656C29.8032 16.2194 30.0124 16.4297 30.0018 17.0851C29.9481 20.5887 28.7284 23.6485 26.4665 26.3051C26.2025 26.6159 25.9209 26.9138 25.6242 27.1942C25.1125 27.679 24.7503 27.6556 24.304 27.1077C23.0516 25.5679 21.8085 24.0223 20.5608 22.4802C19.2523 20.8609 17.9438 19.2429 16.6364 17.6236C16.3922 17.3211 16.0908 17.0185 16.2929 16.585C16.5044 16.1294 16.9484 16.1586 17.3573 16.1586C19.2639 16.1551 21.1706 16.1575 23.0773 16.1575H23.0785ZM25.04 25.8729C27.2423 23.4919 28.4246 20.778 28.6373 17.5851H18.3456C20.5958 20.3703 22.7887 23.0853 25.04 25.8729Z" fill="#FF9916"/>
</svg>
