<svg width="32" height="30" viewBox="0 0 32 30" fill="none" xmlns="http://www.w3.org/2000/svg">
<path d="M3.96874 27.3733C3.96874 27.0003 3.96874 26.7145 3.96874 26.4272C3.96874 18.3523 3.96874 10.2761 3.97165 2.20116C3.97165 1.83907 3.98327 1.47425 4.03701 1.11625C4.13288 0.465572 4.53232 0.103481 5.21646 0.0177226C5.43144 -0.00950232 5.65077 0.00274889 5.86865 0.00274889C12.6214 0.00274889 19.3757 0.00274889 26.1285 0.00274889C26.3464 0.00274889 26.5672 -0.00950232 26.7807 0.0177226C27.4663 0.103481 27.8672 0.464211 27.963 1.11352C28.0168 1.47153 28.0284 1.83635 28.0284 2.19844C28.0313 10.2733 28.0313 18.3496 28.0313 26.4245V27.3733C28.7779 27.3733 29.4243 27.3679 30.0721 27.376C30.3612 27.3801 30.6575 27.3801 30.9364 27.4386C31.6205 27.5843 32.0141 28.0771 31.9996 28.7155C31.9851 29.3702 31.5159 29.8794 30.8129 29.9787C30.5994 30.0087 30.3786 29.9964 30.1607 29.9978C20.7207 29.9978 11.2808 29.9978 1.84079 29.9978C1.6476 29.9978 1.45151 30.0073 1.25978 29.9869C0.514633 29.9066 0.0178691 29.4002 0.000438739 28.7182C-0.0155391 28.0566 0.405694 27.5353 1.13196 27.4264C1.60548 27.3556 2.09644 27.3828 2.57867 27.376C3.00717 27.3692 3.43712 27.3747 3.96874 27.3747V27.3733ZM25.2178 27.3325V2.71027C24.3927 2.57006 7.32263 2.59864 6.79536 2.73341V27.3311H25.2178V27.3325Z" fill="#FF9916"/>
<path d="M9.3012 16.8347C9.3012 16.6088 9.28087 16.3814 9.30411 16.1582C9.37674 15.4422 9.88657 14.9862 10.6157 14.9657C11.387 14.944 11.9535 15.3169 12.0479 16.0221C12.122 16.5761 12.122 17.1533 12.0479 17.7059C11.955 18.3947 11.3304 18.8222 10.6201 18.7908C9.90545 18.7595 9.384 18.2872 9.30847 17.578C9.28232 17.333 9.30411 17.0825 9.30411 16.8334L9.3012 16.8347Z" fill="#FF9916"/>
</svg>
