<svg width="64" height="64" viewBox="0 0 64 64" fill="none" xmlns="http://www.w3.org/2000/svg">
<circle cx="32" cy="32" r="30" fill="#031A26" stroke="white" stroke-width="3"/>
<path d="M38.8889 24L41.7037 26.1481C40.3704 27.5309 39.5062 28.8148 39.1111 30C38.6667 31.2346 38.4444 32.4444 38.4444 33.6296L36.5926 32.4444H42V40H34.4444V34.6667C34.4444 32.6914 34.7654 30.8395 35.4074 29.1111C36.0494 27.3827 37.2099 25.679 38.8889 24ZM26.4444 24L29.2593 26.1481C27.9259 27.5309 27.0617 28.8148 26.6667 30C26.2222 31.2346 26 32.4444 26 33.6296L24.1481 32.4444H29.5556V40H22V34.6667C22 32.6914 22.321 30.8395 22.963 29.1111C23.6049 27.3827 24.7654 25.679 26.4444 24Z" fill="white"/>
</svg>
