<svg width="187" height="160" viewBox="0 0 187 160" fill="none" xmlns="http://www.w3.org/2000/svg">
<path d="M48.7446 143.746C46.7598 141.352 46.0496 137.997 46.7525 134.983C45.1277 136.829 43.2925 138.38 40.9599 138.724C37.1119 139.285 33.6422 136.194 31.925 132.877C28.0004 125.308 30.198 116.675 34.5786 113.374C37.0195 111.527 40.2533 111.192 42.6236 112.541C47.5126 115.32 46.8279 123.249 51.4457 125.79C51.6561 122.05 53.4196 118.408 56.2375 115.945C59.6391 112.96 62.7817 114.544 63.1903 118.427C63.3338 119.891 63.0954 121.472 63.3435 122.857C63.7716 125.227 65.7941 127.286 68.1523 127.754C70.553 128.231 73.1495 127.116 74.4642 125.049C75.1647 123.949 75.526 122.599 76.1268 121.353C76.584 120.413 77.608 118.791 79.3265 118.471C81.743 117.976 83.273 120.311 87.166 114.698C89.3174 111.612 91.7558 108.115 93.8354 104.553C94.0969 104.106 94.7694 104.502 94.5092 104.946C92.4125 108.536 89.9644 112.046 87.8057 115.142C86.3608 117.227 84.7044 119.176 82.4034 119.316C81.4037 119.371 80.3274 119.062 79.4749 119.236C78.086 119.494 77.2213 120.886 76.8273 121.693C76.2301 122.936 75.8835 124.268 75.1222 125.466C73.6385 127.798 70.7026 129.053 68.0003 128.517C65.2967 127.98 63.0662 125.708 62.5749 122.993C62.2988 121.449 62.5603 119.988 62.4132 118.504C62.069 115.235 59.6634 113.972 56.7495 116.53C53.9438 118.982 52.2448 122.672 52.2046 126.402C52.2022 126.673 51.9249 126.864 51.6659 126.758C46.0581 124.439 47.0152 115.933 42.2369 113.217C40.1633 112.039 37.208 112.358 35.0469 113.994C30.9204 117.104 28.904 125.356 32.6145 132.517C34.2053 135.589 37.3746 138.458 40.8444 137.95C43.6148 137.543 45.6981 135.147 47.5941 132.728C47.8884 132.356 48.4625 132.733 48.2472 133.148C46.6017 136.331 47.0517 140.484 49.343 143.247C49.6726 143.643 49.0705 144.143 48.7422 143.744L48.7446 143.746Z" fill="#0E2365"/>
<path d="M46.4498 157.306C46.0497 156.977 46.5507 156.374 46.9448 156.704C52.662 161.404 61.388 159.271 64.2837 152.417C64.392 152.163 64.7313 152.09 64.9295 152.304C67.2013 154.755 71.0371 155.511 74.0508 154.099C77.0754 152.698 78.9715 149.275 78.5592 145.961C78.5032 145.509 79.1393 145.347 79.3083 145.768C80.0222 147.545 82.0155 148.821 84.156 148.872C86.0727 148.938 88.0891 148.124 89.8465 146.612C94.3049 142.808 95.3399 135.461 92.1086 130.569C92.0015 130.409 92.0295 130.194 92.1718 130.065C97.3819 125.364 101.863 119.893 105.491 113.8C105.755 113.357 106.425 113.755 106.161 114.198C102.549 120.262 98.1019 125.718 92.9392 130.421C96.2156 135.702 95.0906 143.16 90.3524 147.204C86.249 150.735 81.6385 150.138 79.3764 147.385C79.1794 150.509 77.2384 153.48 74.378 154.805C71.2415 156.276 67.2925 155.609 64.7629 153.244C61.343 160.311 52.3008 162.119 46.4486 157.307L46.4498 157.306Z" fill="#0E2365"/>
<path d="M81.1113 135.383C81.0809 135.169 81.2305 134.972 81.4434 134.943C83.3856 134.67 85.042 132.854 85.1344 130.894C85.16 130.343 85.9371 130.441 85.914 130.931C85.8009 133.285 83.8854 135.387 81.5504 135.714C81.3521 135.747 81.1418 135.605 81.1101 135.382L81.1113 135.383Z" fill="#0E2365"/>
<path d="M141.696 135.679C142.902 127.892 145.018 112.523 144.869 110.813C141.544 108.962 138.232 107.094 134.936 105.212C134.7 105.077 134.675 104.751 134.874 104.579C158.164 84.4049 160.039 81.2404 160.595 82.5089C160.96 83.2994 165.587 92.8695 167.57 97.0713C167.971 97.9275 167.95 98.9175 167.516 99.8576C160.927 114.084 153.182 125.971 143.841 136.197C143.16 136.942 141.555 136.646 141.697 135.678L141.696 135.679ZM142.478 135.79C142.51 135.79 142.611 135.832 142.768 135.837C143.01 135.844 143.17 135.777 143.265 135.673C152.552 125.507 160.254 113.686 166.808 99.5317C167.145 98.8044 167.166 98.0479 166.864 97.4058C165.597 94.718 160.419 83.9585 160.107 83.2775C159.871 83.4867 159.609 83.7165 159.272 83.8248C151.616 90.8822 143.723 97.9397 135.802 104.809C138.982 106.622 142.177 108.422 145.387 110.208C145.718 110.397 145.955 110.533 144.563 121.076C143.879 126.264 142.974 132.533 142.468 135.796C142.468 135.792 142.473 135.79 142.479 135.79H142.478Z" fill="#0E2365"/>
<path d="M65.7071 78.4407C73.9406 68.524 84.0555 58.9843 96.6307 49.2805C97.4382 48.6566 98.3966 48.3793 99.3415 48.507C103.394 49.0713 115.208 50.6621 115.732 50.7144C116.003 50.7265 116.176 50.9953 116.083 51.241C115.929 51.6545 115.619 52.0546 115.633 52.344C115.661 52.856 114.882 52.9071 114.855 52.3854C114.836 52.0169 114.991 51.6922 115.142 51.4015C113.689 51.2896 109.82 50.752 99.237 49.278C98.5134 49.1832 97.7484 49.3997 97.1075 49.8959C84.5772 59.5645 74.5037 69.064 66.3067 78.9369C66.1413 79.1352 66.2957 79.5414 66.4039 79.5584C74.1351 77.0762 91.2333 70.8092 91.8998 71.3407C94.6666 73.8861 97.4297 76.4036 100.211 78.9102C100.593 79.2543 100.074 79.8357 99.6882 79.4903C96.9421 77.0154 94.2142 74.5307 91.5033 72.0351C89.6474 72.3307 72.0154 78.5757 66.6533 80.2978C65.7229 80.6079 65.0722 79.2008 65.7046 78.4395L65.7071 78.4407Z" fill="#0E2365"/>
<path d="M182.456 0.634559C168.362 6.23261 155.952 12.7197 145.038 20.0557C158.291 26.6486 172.446 33.4287 177.988 47.3454C178.182 47.8088 177.433 48.1286 177.265 47.6276C171.974 34.3749 158.122 27.3758 145.718 21.2585C144.545 20.6577 144.457 20.6966 144.379 20.5154C120.666 36.5044 100.975 58.9477 89.8736 86.1962C89.5489 86.8663 89.403 87.6081 89.4127 88.4035C89.6742 87.7237 89.9259 87.0329 90.1764 86.3531C102.084 99.0767 114.86 109.038 128.944 116.007C128.505 116.258 128.076 116.509 127.637 116.771C128.192 116.635 128.683 116.425 129.092 116.132C166.997 91.1582 184.34 50.2278 186.422 3.73094C186.526 1.27184 184.622 -0.224055 182.456 0.633349V0.634559ZM109.723 76.6845C107.264 73.1685 106.28 68.5543 107.096 64.3378C107.196 63.8429 107.958 63.9754 107.86 64.4947C107.085 68.502 108.016 72.8863 110.36 76.2345C110.66 76.6613 110.013 77.1016 109.722 76.6845H109.723ZM139.408 86.1755C127.458 88.4874 116.2 81.1113 114.305 69.9772C112.401 58.8444 120.155 48.2016 131.622 45.9736C143.07 43.7662 154.244 50.7446 156.631 61.7839C159.017 72.8231 151.335 83.8623 139.407 86.1743L139.408 86.1755ZM162.846 68.0423C162.728 68.5446 161.983 68.3719 162.083 67.8745C163.098 63.1971 162.491 58.2472 160.378 53.9468C160.284 53.7583 160.367 53.5175 160.555 53.4239C160.753 53.3302 160.984 53.4129 161.078 53.6014C163.265 58.0587 163.892 63.1861 162.846 68.0411V68.0423Z" fill="#558DFD"/>
<path d="M186.42 3.73239C185.5 24.2931 181.775 42.093 175.842 57.3487C163.035 43.6205 149.484 32.9583 135.117 27.2654C138.079 24.9315 141.165 22.6828 144.377 20.5168C144.458 20.7041 144.582 20.6786 145.716 21.2599C158.091 27.3615 171.969 34.3654 177.264 47.629C177.316 47.7859 177.462 47.8796 177.62 47.8796C177.882 47.8796 178.096 47.6047 177.986 47.3457C172.467 33.4898 158.114 26.5563 145.036 20.0559C155.95 12.7211 168.36 6.23284 182.454 0.634784C184.62 -0.223836 186.525 1.27328 186.42 3.73239Z" fill="#C3D7F9"/>
<path d="M119.465 121.622C115.109 121.622 102.404 112.336 95.7404 106.639C90.8186 102.431 85.2412 97.0337 86.4878 95.1085C87.603 92.1678 89.2619 87.7044 89.8067 86.2194C89.9076 85.9458 90.2603 85.8765 90.4573 86.0881C102.707 99.1766 115.351 108.85 129.113 115.659C129.391 115.796 129.408 116.191 129.134 116.348C128.53 116.693 125.622 118.408 120.562 121.284C120.305 121.515 119.932 121.622 119.464 121.624L119.465 121.622ZM90.3224 87.0817C90.2701 87.224 87.2369 95.4016 87.1518 95.5208C86.5559 96.3368 89.1475 99.9793 96.2475 106.047C106.71 114.991 118.505 122.25 120.055 120.693C120.181 120.568 121.561 119.863 128.12 116.034C114.685 109.282 102.309 99.8005 90.3236 87.0817H90.3224Z" fill="#0E2365"/>
<path d="M135.061 86.982C124.616 86.982 115.616 80.0097 113.922 70.0431C112.003 58.8227 119.91 47.8528 131.549 45.5907C143.194 43.3517 154.608 50.5746 157.013 61.7026C159.484 73.1346 151.425 84.2432 139.483 86.5588C138.017 86.8421 136.534 86.982 135.063 86.982H135.061ZM135.817 45.9616C122.779 45.9616 112.574 57.5457 114.689 69.9117C116.591 81.0799 127.874 88.0121 139.335 85.7926C145.137 84.6676 150.267 81.2915 153.41 76.5277C162.276 63.089 152.056 45.9616 135.817 45.9616Z" fill="#0E2365"/>
<path d="M104.858 58.78C123.974 30.9831 151.462 12.5155 182.316 0.268638C184.714 -0.677547 186.925 0.969155 186.813 3.74203C185.918 23.6156 182.347 41.6989 176.202 57.4921C176.012 57.9737 175.288 57.6879 175.476 57.2087C181.59 41.4958 185.142 23.4952 186.034 3.7092C186.119 1.58089 184.545 0.229716 182.603 0.993474C151.746 13.2416 124.456 31.6569 105.5 59.2215C105.208 59.646 104.565 59.2057 104.858 58.78Z" fill="#0E2365"/>
<path d="M128.467 115.544C144.088 105.605 156.774 92.2226 167.254 74.6318C167.515 74.1891 168.188 74.5856 167.924 75.0307C157.381 92.7297 144.611 106.196 128.886 116.202C128.448 116.478 128.032 115.82 128.467 115.544Z" fill="#0E2365"/>
<path d="M144.944 110.52C146.383 109.083 148.007 107.845 149.77 106.841C150.224 106.588 150.603 107.264 150.157 107.518C148.453 108.489 146.884 109.684 145.495 111.071C145.133 111.436 144.578 110.885 144.944 110.519V110.52Z" fill="#0E2365"/>
<path d="M91.1113 71.4149C91.9261 70.4736 92.4746 69.2757 92.6571 68.0425C92.7337 67.5353 93.5035 67.6448 93.4293 68.1568C93.225 69.5335 92.6108 70.8713 91.7011 71.9233C91.3606 72.3137 90.7744 71.8029 91.1101 71.4137L91.1113 71.4149Z" fill="#0E2365"/>
<path d="M34.3014 46.8311C23.4215 43.4684 11.4398 50.4018 7.38752 61.8254C3.31577 73.3061 8.51977 85.4873 19.3656 88.8415C30.0849 92.1556 42.1494 85.4143 46.2649 73.8144C50.3281 62.3605 45.1241 50.1781 34.3014 46.8324V46.8311ZM38.62 59.8077L34.6103 72.9692L37.236 73.3389C37.6897 73.4034 38.0752 73.6515 38.3221 74.0382C39.2354 75.4733 37.8003 77.7779 36.0855 77.5335C35.3899 77.435 31.2841 76.8561 31.5468 76.8938C30.4583 76.7393 29.9426 75.6083 30.288 74.4772L33.2555 64.7381L25.9183 70.6658C24.8834 71.5025 23.5504 71.2459 23.1345 70.1173L20.6353 63.3577L17.7481 72.8305C17.4015 73.9689 16.3397 74.746 15.3376 74.6074L11.0835 74.0078C10.6298 73.9433 10.2443 73.6952 9.99864 73.3097C9.08894 71.8807 10.507 69.5736 12.2352 69.8144L14.6979 70.1623L18.7441 56.884C19.3522 54.892 21.7797 54.4493 22.4024 56.1325L25.9852 65.8229L35.8277 57.8704C37.3637 56.6299 39.2135 57.8765 38.6237 59.809L38.62 59.8077Z" fill="#FBD072"/>
<path d="M36.3124 58.4747C25.5565 67.0816 26.0734 66.9393 25.6988 66.8408C25.334 66.7411 25.6478 66.9928 21.666 56.4011C21.2999 55.4051 19.8564 55.8928 19.4854 57.1102L15.3419 70.707C15.286 70.8919 15.106 71.0074 14.9138 70.9794L12.1215 70.5854C11.5171 70.4942 10.7959 71.0634 10.566 71.8174C10.3726 72.4522 10.566 73.1467 11.1887 73.2342L15.4429 73.8338C16.0424 73.9238 16.7685 73.3571 16.9983 72.603L20.2224 62.0223C20.3294 61.6684 20.8317 61.6477 20.9606 62.0004L23.8612 69.846C24.1057 70.5112 24.8548 70.5173 25.4228 70.0576L33.7487 63.3309C34.0503 63.0901 34.4784 63.3832 34.3665 63.7481L31.0281 74.7034C30.836 75.337 31.0281 76.0326 31.6508 76.1202L36.1883 76.7599C37.2245 76.9119 38.223 75.3406 37.6587 74.4565C37.3388 73.953 36.9971 74.1731 34.0454 73.6769C33.8119 73.6441 33.6563 73.4093 33.7268 73.1771L37.8703 59.579C38.2303 58.3945 37.2561 57.7097 36.3112 58.4747H36.3124Z" fill="#FBD072"/>
<path d="M48.4456 46.1732C34.5143 33.1078 10.2249 40.1506 2.26872 60.1847C-3.40229 74.4881 1.92332 89.5456 14.1763 95.427C28.5478 102.457 47.5602 94.2303 54.2941 77.2513C58.9083 65.6052 56.2303 53.4459 48.4443 46.1744L48.4456 46.1732ZM24.9759 90.4626C10.664 90.4626 1.53294 75.9938 6.65181 61.5638C10.8999 49.5894 23.4107 42.645 34.5301 46.0856C39.5845 47.6484 43.7025 51.1704 46.1275 56.0035C53.6836 71.0683 41.7724 90.4638 24.9759 90.4638V90.4626Z" fill="#FBD072"/>
<path d="M60.465 82.7228C53.0901 101.318 29.9366 107.628 14.1738 95.4258C28.5453 102.455 47.5578 94.229 54.2917 77.25C58.9059 65.6039 56.2279 53.4446 48.4419 46.1731C60.538 53.6866 65.9062 69.0153 60.465 82.7228Z" fill="#FBD072"/>
<path d="M44.0653 99.2168C42.9829 97.2867 41.6257 95.5208 40.0313 93.969C39.6603 93.6066 40.21 93.052 40.5761 93.4107C42.2228 95.0149 43.6263 96.8404 44.7452 98.8349C44.851 99.0234 44.7841 99.2606 44.5956 99.3664C44.4119 99.471 44.1723 99.4077 44.0653 99.2168Z" fill="#0E2365"/>
<path d="M57.8381 85.254C56.8676 83.0259 55.1892 81.0886 53.1132 79.7994C52.6742 79.5282 53.0865 78.8642 53.5243 79.1366C55.7341 80.5072 57.5207 82.5699 58.552 84.9414C58.7587 85.4133 58.0436 85.7258 57.8381 85.2528V85.254Z" fill="#0E2365"/>
<path d="M60.9924 64.9424C59.7471 63.4392 58.07 62.3495 56.1411 61.7925C55.6425 61.649 55.8626 60.8986 56.3564 61.0433C58.4373 61.6441 60.2469 62.8202 61.5932 64.4438C61.7307 64.6104 61.7075 64.856 61.5409 64.9935C61.3743 65.1321 61.1286 65.1066 60.9924 64.9424Z" fill="#0E2365"/>
<path d="M11.8623 94.6197C11.422 94.3522 11.8246 93.6857 12.2673 93.9533C26.8212 102.8 47.0048 94.5626 53.9297 77.1092C58.7421 64.9791 55.7017 52.0427 46.3615 44.9159C45.9504 44.6033 46.4235 43.9831 46.8345 44.2956C56.4557 51.6364 59.5995 64.9378 54.6545 77.3963C47.6165 95.1366 26.9392 103.79 11.8623 94.6185V94.6197Z" fill="#0E2365"/>
<path d="M125.082 77.1819C125.116 76.9569 125.105 77.025 126.761 74.9502C126.464 74.724 126.171 74.4893 125.888 74.2485C125.778 74.3956 125.778 74.3871 124.178 76.0606C123.929 76.3148 123.659 76.3136 123.418 76.1165C122.917 75.7006 122.445 75.2482 122.012 74.7715C121.783 74.5185 121.747 74.2631 121.939 73.9773L123.178 72.1384C122.681 71.8052 120.405 69.6672 120.289 69.1041C120.23 68.8487 120.354 68.6334 120.415 68.5288C120.63 68.1554 121.588 66.6425 121.979 66.4942C122.181 66.4127 122.372 66.4917 122.444 66.5197C122.991 66.7435 123.362 66.9855 123.689 67.3491C127.357 63.838 130.288 59.5121 133.748 55.7456C132.758 54.8335 131.896 54.3044 132.757 53.3485C134.07 51.8915 134.164 51.6811 134.575 51.7152C134.899 51.7371 134.816 51.7492 138.438 54.6948C138.721 54.0575 139.167 53.4981 139.728 53.0822C139.842 52.9995 139.992 52.9824 140.12 53.0396C140.826 53.3546 141.487 53.7669 142.081 54.2667C142.483 54.6036 142.511 54.949 142.243 55.3491C141.446 56.5203 141.163 56.5227 140.865 56.7879C140.853 56.8438 140.998 57.0883 141.333 57.3084C141.365 57.3291 142.011 57.7559 142.044 57.7754C142.051 57.7572 142.07 57.7268 142.097 57.6805C142.828 56.7319 143.015 54.994 144.841 56.1323C145.432 56.4996 146.168 56.9557 146.545 57.7158C146.725 58.0734 146.655 58.3458 146.393 58.6146C145.478 59.5583 145.703 59.3868 145.309 59.7128C145.184 59.8161 144.973 59.99 144.936 60.0764C144.921 60.2953 145.631 61.1734 145.81 61.537C146.815 63.5814 147.239 65.0372 146.495 67.1935C145.411 70.3227 142.755 71.7103 140.345 71.1217C140.919 73.177 140.376 75.4817 138.905 76.9642C137.246 78.6352 134.457 79.2068 132.12 78.3567C131.435 78.1062 129.716 77.2099 129.819 77.2622C129.871 77.3023 129.401 77.8958 129.353 77.9445C128.668 78.617 128.583 79.0402 128.165 79.1898C127.816 79.3151 124.913 78.1877 125.078 77.1807L125.082 77.1819ZM125.901 77.2792C126.417 77.8691 127.069 78.2631 127.777 78.4346C127.865 78.4565 127.902 78.4589 127.912 78.4552C127.925 78.4443 127.982 78.3701 128.002 78.3458C128.518 77.6295 128.73 77.5237 129 77.1418C129.937 75.8125 130.059 76.7757 132.392 77.627C134.452 78.3786 136.905 77.88 138.356 76.4181C139.801 74.9624 140.211 72.5884 139.352 70.645C139.206 70.3129 139.553 69.9834 139.876 70.1342C140.983 70.6571 142.417 70.5562 143.533 69.8824C145.273 68.8304 146.22 66.4747 146.082 64.7733C145.995 63.6836 145.35 62.1828 144.813 61.4166C144.42 60.8535 144.013 60.271 144.223 59.7748C144.382 59.399 144.846 59.1193 145.041 58.9186C145.139 58.8152 145.695 58.2229 145.837 58.0746C145.573 57.5054 144.942 57.1138 144.435 56.7988C144.078 56.5787 143.837 56.5008 143.711 56.5738C143.609 56.6334 143.56 56.7441 142.773 58.0806C142.463 58.6073 142.059 58.7252 141.567 58.3981C140.937 57.9639 140.076 57.5613 140.088 56.7818C140.09 56.6127 140.154 56.2904 140.549 56.0484C140.995 55.7736 141.277 55.3893 141.6 54.9162C141.777 54.9612 140.837 54.2497 140.017 53.8544C139.53 54.2716 139.17 54.8322 138.995 55.4525C138.917 55.7249 138.588 55.8234 138.373 55.6495L134.546 52.5373C134.453 52.6407 133.246 53.9785 133.339 53.8751C133.161 54.0734 133.103 54.0916 133.44 54.3993C134.503 55.4282 134.683 55.4343 134.694 55.714C134.708 56.0727 134.813 55.472 130.241 61.1114C128.275 63.5352 126.244 66.043 123.918 68.2138C123.738 68.3817 123.463 68.3391 123.333 68.153C123.027 67.7188 122.753 67.4987 122.225 67.2749C121.834 67.7663 121.437 68.3294 121.095 68.9229C121.761 69.8058 122.53 70.5939 123.362 71.2956C123.527 71.4355 123.69 71.5644 123.853 71.6057C124.111 71.6702 124.235 71.973 124.082 72.2017L122.658 74.3178C123.012 74.7021 123.377 75.0536 123.758 75.3807C125.172 73.8946 125.353 73.7596 125.361 73.5893C125.369 73.4397 125.462 73.3072 125.601 73.2488C125.974 73.0943 125.96 73.402 127.553 74.5659C127.73 74.6936 127.769 74.9466 127.628 75.1241L125.906 77.2804L125.901 77.2792Z" fill="#0E2365"/>
<path d="M131.194 75.309C130.213 74.8493 129.331 74.1354 128.394 73.4045C127.457 72.6991 125.381 71.1777 126.122 70.296C126.47 69.8812 126.175 70.4796 127.324 68.884C128.036 67.8989 129.616 65.9834 130.308 65.154C130.622 64.7757 131.031 64.282 131.734 64.7429C132.935 65.5322 134.073 66.4881 135.563 67.7091C137.25 69.0737 138.446 70.3714 137.867 72.4656C137.189 74.9138 134.118 76.6833 131.196 75.3115L131.194 75.309ZM131.189 65.3376C131.069 65.396 128.561 68.4997 127.956 69.34C126.832 70.9053 126.876 70.6073 126.719 70.7958C127.194 71.6191 129.01 72.8706 129.207 73.0482C129.943 73.6246 130.704 74.2193 131.524 74.6037C133.995 75.7627 136.558 74.2643 137.112 72.2552C137.701 70.1366 135.954 69.0773 134.274 67.6641C131.643 65.5042 131.293 65.4118 131.188 65.3376H131.189Z" fill="#0E2365"/>
<path d="M137.002 67.6435C135.425 66.8992 134.33 65.4009 133.161 64.5897C131.971 63.7639 131.735 63.1716 132.587 62.1111C133.965 60.3927 135.091 58.9807 136.149 57.7122C136.596 57.1783 137.018 56.9485 137.749 57.4471C139.254 58.476 140.733 59.8624 141.909 61.3535C142.66 62.3021 143.342 63.3468 143.263 64.5557C143.086 67.2604 139.58 68.8609 137.003 67.6435H137.002ZM137.043 57.9542C136.938 57.9542 136.913 57.9628 134.01 61.5845C133.052 62.8189 132.734 63.0366 132.908 63.3285C133.111 63.6727 133.67 63.9536 134.06 64.2856C135.116 65.1856 136.104 66.3568 137.335 66.9381C139.421 67.922 142.345 66.6463 142.484 64.5046C142.64 62.1245 137.43 57.9542 137.043 57.9542Z" fill="#0E2365"/>
</svg>
