<svg width="84" height="84" viewBox="0 0 84 84" fill="none" xmlns="http://www.w3.org/2000/svg">
<circle cx="42" cy="42" r="41.5" stroke="#031A26" stroke-opacity="0.14"/>
<path d="M47.3047 44.9929V49.3176C49.2097 49.7345 51.0866 50.0539 52.9069 50.5757C54.0803 50.9131 55.1823 51.5174 56.2872 52.0648C56.6739 52.2567 57.0026 52.6031 57.2985 52.933C58.2087 53.9497 58.2622 55.2783 57.2881 56.229C56.61 56.8918 55.7846 57.4601 54.9309 57.871C52.6511 58.9641 50.1824 59.3855 47.6958 59.6854C44.7348 60.0423 41.7649 60.1008 38.7935 59.8339C35.8043 59.5655 32.8374 59.1501 30.0831 57.868C29.2473 57.4781 28.4428 56.9218 27.7765 56.2815C26.7429 55.2873 26.734 53.8642 27.7929 52.894C28.5632 52.1877 29.4927 51.5939 30.4475 51.174C31.5703 50.6792 32.7838 50.3733 33.981 50.0854C35.1797 49.796 36.4081 49.628 37.6915 49.3956V44.9944C37.3049 44.9944 36.9167 45.0094 36.5286 44.9914C35.5411 44.948 34.793 44.2132 34.7841 43.2145C34.7648 40.8902 34.738 38.5644 34.793 36.2416C34.8466 33.9863 36.6341 31.893 38.8456 31.3576C39.0582 31.3067 39.2724 31.2527 39.4999 31.1972C37.8878 28.7515 37.9875 26.6446 39.7602 25.0431C41.2801 23.671 43.6715 23.65 45.2048 24.9951C47.0087 26.5771 47.1262 28.6825 45.52 31.2032C45.7981 31.2692 46.0629 31.3217 46.3216 31.3936C48.5866 32.0219 50.2255 34.1708 50.2374 36.5475C50.2478 38.6469 50.2418 40.7463 50.2389 42.8456C50.2389 44.3317 49.583 44.99 48.1107 44.9959C47.8653 44.9959 47.6185 44.9959 47.3032 44.9959L47.3047 44.9929ZM37.7525 43.7558C37.7525 43.4634 37.7525 43.2175 37.7525 42.9731C37.7525 40.8242 37.751 38.6769 37.754 36.5281C37.754 36.0662 37.6365 35.5159 38.3102 35.4124C38.7489 35.3449 38.9393 35.7033 38.9393 36.5296C38.9393 42.4497 38.9393 48.3684 38.9393 54.2886V55.1298H41.9166C41.9166 51.6959 41.9166 48.3249 41.9166 44.9525C41.9166 44.753 41.8512 44.5086 41.9404 44.3631C42.0772 44.1397 42.3241 43.8383 42.5189 43.8428C42.7152 43.8473 42.9502 44.1562 43.0811 44.3826C43.1673 44.5326 43.1019 44.7725 43.1019 44.972C43.1019 48.094 43.1019 51.216 43.1019 54.3381V55.1358H46.0792V54.2661C46.0792 48.3969 46.0792 42.5262 46.0792 36.657C46.0792 36.4576 46.0123 36.2206 46.0956 36.0662C46.2294 35.8173 46.4317 35.4919 46.6622 35.4349C47.0162 35.3479 47.2377 35.6433 47.2615 36.0242C47.2719 36.1982 47.266 36.3736 47.266 36.549C47.266 38.6979 47.266 40.8452 47.266 42.9941C47.266 43.237 47.266 43.4814 47.266 43.7963C47.5515 43.7963 47.7672 43.7963 47.9828 43.7963C48.9391 43.7963 49.0521 43.6868 49.0536 42.7241C49.0551 40.7253 49.061 38.7279 49.0536 36.729C49.0417 34.2383 47.2541 32.4163 44.8032 32.3983C43.2922 32.3878 41.7813 32.3893 40.2703 32.3983C37.7659 32.4118 35.9783 34.2203 35.9664 36.75C35.959 38.5734 35.9649 40.3969 35.9649 42.2203C35.9649 43.8548 35.9902 43.8773 37.7525 43.7558ZM37.7525 50.6987C37.5636 50.6987 37.4447 50.6852 37.3287 50.7002C35.1678 50.9836 33.0203 51.3525 31.0022 52.2192C30.2601 52.5371 29.5314 52.9525 28.8978 53.4533C27.9921 54.1686 27.9847 54.9709 28.8607 55.7131C29.4005 56.1705 30.0385 56.5394 30.6824 56.8378C32.7258 57.781 34.9179 58.1949 37.1279 58.4678C41.3307 58.9866 45.5305 58.9312 49.7065 58.1844C51.7052 57.8275 53.6832 57.3551 55.444 56.271C57.2435 55.1613 57.2613 53.9812 55.4113 52.9435C54.3212 52.3332 53.124 51.8653 51.9224 51.5279C50.4352 51.1111 48.893 50.8951 47.2675 50.5712C47.2675 50.9791 47.2675 51.222 47.2675 51.4665C47.2675 52.7905 47.2705 54.1146 47.2675 55.4387C47.2645 56.259 47.1351 56.3879 46.3097 56.3894C43.8321 56.3924 41.3545 56.3909 38.8753 56.3894C37.806 56.3894 37.754 56.3355 37.754 55.2288C37.754 53.7353 37.754 52.2417 37.754 50.6987H37.7525ZM45.4858 28.1786C45.4769 26.5381 44.1206 25.19 42.4907 25.199C40.8637 25.208 39.5252 26.5771 39.5356 28.2191C39.5475 29.8611 40.9009 31.2077 42.5308 31.1987C44.1548 31.1912 45.4948 29.8206 45.4858 28.1786Z" fill="#031A26"/>
</svg>
