<svg width="84" height="84" viewBox="0 0 84 84" fill="none" xmlns="http://www.w3.org/2000/svg">
<circle cx="42" cy="42" r="41.5" stroke="#031A26" stroke-opacity="0.14"/>
<path d="M34.5739 44.9595C34.3956 44.5858 34.2847 44.3338 34.1598 44.0902C33.2236 42.2591 32.4263 40.3721 31.8902 38.3842C31.5561 37.1453 31.2782 35.8867 31.3273 34.5988C31.4705 30.7659 33.1099 27.7155 36.3803 25.6786C39.6297 23.6558 43.1149 23.4612 46.5566 25.0949C50.0207 26.7384 52.0209 29.5648 52.5781 33.3893C52.8841 35.485 52.4532 37.4826 51.7851 39.4229C51.2334 41.0258 50.4853 42.5629 49.82 44.1266C49.7217 44.359 49.6038 44.5844 49.4607 44.8826C49.6838 44.9133 49.8551 44.9567 50.0263 44.9567C51.1717 44.9623 52.3184 44.9581 53.4638 44.9609C54.313 44.9623 54.4042 45.0169 54.7116 45.7925C56.1503 49.4337 57.5834 53.0762 59.0193 56.7188C59.3099 57.4565 59.6046 58.1915 59.8839 58.932C60.1647 59.6768 59.9541 59.982 59.1653 59.9988C59.0249 60.0016 58.8846 59.9988 58.7442 59.9988C47.591 59.9988 36.4379 59.9988 25.2847 59.9988C25.1205 59.9988 24.9577 60.0016 24.7935 59.9988C24.058 59.9792 23.8446 59.6656 24.1085 58.9586C24.3934 58.1943 24.6966 57.4369 24.9956 56.6782C26.3936 53.121 27.7902 49.5638 29.1924 46.0095C29.6051 44.9623 29.6191 44.9609 30.7195 44.9609C31.7245 44.9609 32.7309 44.9609 33.7359 44.9609H34.5725L34.5739 44.9595ZM41.9878 54.0169C42.2054 53.7496 42.3401 53.5942 42.4636 53.429C44.4526 50.7734 46.2941 48.0239 47.8998 45.1177C49.0873 42.9675 50.1386 40.7626 50.8362 38.4024C51.385 36.5461 51.6166 34.6604 51.225 32.744C50.4025 28.7164 46.9117 25.5358 42.5212 25.288C40.3021 25.1635 38.2514 25.743 36.466 27.0841C33.3569 29.422 32.1793 32.5704 32.7141 36.3697C33.0257 38.583 33.8623 40.638 34.8167 42.6427C36.5081 46.1943 38.6528 49.4729 40.9547 52.6534C41.2663 53.0832 41.5962 53.5004 41.9878 54.0155V54.0169ZM49.8382 55.687H34.157C33.9423 56.7174 33.7317 57.7281 33.517 58.7598H50.4909C50.2677 57.7071 50.0558 56.7118 49.8382 55.687ZM51.7514 58.7836H58.5126C57.4978 56.205 56.5054 53.6838 55.5061 51.1443C53.6968 51.1723 51.9577 51.0967 50.1667 51.1933C50.7043 53.7664 51.2222 56.2442 51.7514 58.7822V58.7836ZM55.005 49.8662C54.5769 48.7813 54.16 47.7972 53.8049 46.792C53.6533 46.3637 53.4259 46.2209 52.9866 46.2293C51.7486 46.2517 50.5106 46.2559 49.274 46.2279C48.8347 46.2181 48.6199 46.4029 48.3967 46.7542C47.1587 48.6987 45.8997 50.6306 44.6294 52.5554C44.2238 53.17 43.7634 53.7468 43.2735 54.4159H49.5645C49.4845 53.9806 49.42 53.597 49.3414 53.2176C49.1856 52.4673 49.0059 51.7197 48.8641 50.9666C48.7111 50.1518 48.9385 49.8872 49.754 49.869C49.8944 49.8662 50.0347 49.869 50.1737 49.869C51.5282 49.869 52.8827 49.869 54.2372 49.869H55.0064L55.005 49.8662ZM27.24 54.3837C27.4407 54.4215 27.5305 54.4537 27.619 54.4537C29.3005 54.4579 30.9806 54.4509 32.6622 54.4635C33.0327 54.4663 33.1969 54.3305 33.2713 53.961C33.6756 51.9563 34.1065 49.9572 34.522 47.9554C34.6328 47.4206 34.7269 46.883 34.8364 46.3049C34.5753 46.2741 34.4181 46.2419 34.2609 46.2405C33.1632 46.2363 32.0656 46.2545 30.9694 46.2293C30.5441 46.2195 30.356 46.3875 30.2086 46.771C29.5419 48.5097 28.8401 50.2344 28.1593 51.9661C27.8548 52.7402 27.567 53.5228 27.24 54.3837ZM40.6445 54.4117C39.0304 52.0375 37.4569 49.7248 35.8807 47.4094C35.3978 49.7262 34.915 52.0389 34.4195 54.4117H40.6431H40.6445ZM32.8643 55.7794C32.738 55.7136 32.6972 55.6744 32.6565 55.6744C30.7897 55.6646 28.9229 55.6604 27.0575 55.6506C26.7754 55.6492 26.6519 55.7934 26.5592 56.0412C26.2925 56.7608 26.0006 57.4705 25.7241 58.1873C25.6539 58.3707 25.6048 58.5625 25.5416 58.7612H32.2593C32.4685 57.7323 32.6692 56.7426 32.8643 55.7794Z" fill="#031A26"/>
<path d="M41.9629 39.9701C38.9283 39.8133 36.7751 37.8128 36.8411 34.7134C36.907 31.558 39.0111 29.6514 42.0359 29.6066C44.9989 29.5618 47.2433 32.0116 47.1998 34.8576C47.1549 37.803 44.7645 39.9841 41.9615 39.9701H41.9629ZM45.9155 34.866C46.0025 32.5912 44.2789 30.8861 42.0078 30.8371C39.9248 30.7923 38.0566 32.6346 38.0496 34.712C38.0426 36.7083 39.4322 38.713 41.9236 38.7382C44.5876 38.7648 45.9534 36.7727 45.9141 34.866H45.9155Z" fill="#031A26"/>
</svg>
