<svg width="84" height="84" viewBox="0 0 84 84" fill="none" xmlns="http://www.w3.org/2000/svg">
<circle cx="42" cy="42" r="41.5" stroke="#031A26" stroke-opacity="0.14"/>
<path d="M53.653 57.8159C53.653 58.3951 53.6646 58.8878 53.65 59.3804C53.6355 59.8313 53.5277 59.9387 53.0877 59.988C52.9201 60.0059 52.7482 59.9985 52.5777 59.9985C44.4219 59.9985 36.266 59.9985 28.1101 59.9985C28.062 59.9985 28.0125 59.9985 27.9644 59.9985C27.0742 59.9895 27.0043 59.9223 27.0028 59.0311C27.0014 55.6482 27.0028 52.2654 27.0028 48.8826C27.0028 41.7198 27.0028 34.5555 27.0028 27.3927C27.0028 27.2181 26.9956 27.0434 27.0043 26.8702C27.0305 26.3597 27.1675 26.2029 27.6599 26.1895C28.3155 26.1731 28.9712 26.185 29.6253 26.185C29.838 26.185 30.0522 26.185 30.3465 26.185C30.3465 25.6386 30.3363 25.1475 30.3494 24.6578C30.3625 24.1592 30.466 24.0547 30.9482 24.0099C31.1172 23.9935 31.2877 24.0024 31.4581 24.0024C39.5892 24.0024 47.7218 24.0024 55.8529 24.0024C55.8777 24.0024 55.901 24.0024 55.9258 24.0024C56.9675 24.0069 56.9981 24.0368 56.9981 25.0803C56.9981 35.6259 56.9981 46.173 56.9981 56.7186C56.9981 56.8425 57.0024 56.9679 56.9981 57.0918C56.9733 57.6562 56.848 57.7995 56.3046 57.8114C55.6009 57.8263 54.8972 57.8159 54.1935 57.8159C54.0492 57.8159 53.905 57.8159 53.6544 57.8159H53.653ZM52.706 59.0415C52.8444 58.116 52.8094 27.6555 52.6754 27.1225H27.9615C27.8129 28.0421 27.8493 58.5116 27.9979 59.0415H52.7074H52.706ZM31.2585 26.185C31.5965 26.185 31.8836 26.185 32.172 26.185C38.9205 26.185 45.669 26.1925 52.4175 26.179C53.7914 26.1761 53.6573 26.3253 53.6559 27.4599C53.653 36.9874 53.6544 46.5134 53.6559 56.0409C53.6559 56.326 53.6704 56.6126 53.6763 56.8664H56.0773V24.9534H31.2585V26.1865V26.185Z" fill="#031A26"/>
<path d="M30.9437 40.8614V45.1534H35.1498C35.1498 44.6413 35.1498 44.1741 35.1498 43.7068C35.1498 43.459 35.1513 43.2097 35.1542 42.9618C35.1571 42.6946 35.3188 42.52 35.5461 42.5065C35.8157 42.4916 36.008 42.6797 36.0109 42.9678C36.0225 43.862 36.0196 44.7563 36.0094 45.649C36.0065 45.9103 35.8317 46.0476 35.5898 46.0834C35.4471 46.1043 35.2999 46.1103 35.1557 46.1118C33.725 46.1133 32.2957 46.1193 30.865 46.1103C30.0958 46.1058 30.0287 46.0327 30.0273 45.2638C30.0229 43.7486 30.0215 42.2333 30.0273 40.7196C30.0302 40.0299 30.1162 39.9418 30.7791 39.9328C31.6518 39.9224 32.5245 39.9298 33.3972 39.9298C33.47 39.9298 33.5443 39.9254 33.6142 39.9373C33.9522 39.991 34.1562 40.1971 34.1154 40.4538C34.0659 40.7658 33.8386 40.8255 33.5764 40.8255C32.9455 40.8255 32.3161 40.8241 31.6853 40.8285C31.4492 40.83 31.2118 40.8494 30.9408 40.8614H30.9437Z" fill="#031A26"/>
<path d="M30.9553 54.7675H35.1483C35.1483 54.2315 35.1483 53.7195 35.1483 53.2074C35.1483 52.9581 35.1075 52.6954 35.1745 52.467C35.2197 52.3147 35.4164 52.1176 35.5548 52.1102C35.6947 52.1027 35.8622 52.2863 35.986 52.4177C36.0385 52.4729 36.0196 52.6073 36.0196 52.7058C36.0225 53.4761 36.0312 54.248 36.0181 55.0183C36.0094 55.5318 35.868 55.6901 35.3625 55.6945C33.7846 55.7095 32.2068 55.711 30.6304 55.6931C30.1481 55.6871 30.036 55.5557 30.033 55.0511C30.0228 53.4105 30.0228 51.7683 30.033 50.1276C30.036 49.6678 30.1511 49.529 30.5881 49.5186C31.5832 49.4947 32.5783 49.5081 33.5734 49.5141C33.6666 49.5141 33.789 49.5305 33.8473 49.5902C33.958 49.7022 34.127 49.8753 34.1022 49.9828C34.0673 50.1351 33.8983 50.3366 33.7569 50.3665C33.4539 50.4307 33.1305 50.4023 32.8158 50.4038C32.2126 50.4068 31.6109 50.4038 30.9582 50.4038V54.7675H30.9553Z" fill="#031A26"/>
<path d="M30.9318 31.2621V35.5645H35.1482C35.1482 35.042 35.1482 34.5285 35.1482 34.0149C35.1482 33.8164 35.1496 33.6178 35.1511 33.4193C35.154 33.1237 35.3084 32.9266 35.5838 32.9326C35.8562 32.9401 36.0136 33.1491 36.015 33.4342C36.0209 34.3031 36.0238 35.1719 36.015 36.0408C36.0121 36.3334 35.8402 36.4946 35.5517 36.5036C35.2123 36.5125 34.8728 36.514 34.5348 36.514C33.2746 36.514 32.0143 36.52 30.7541 36.511C30.1028 36.5065 30.0329 36.4394 30.03 35.793C30.0213 34.2284 30.0213 32.6639 30.03 31.0994C30.0329 30.4545 30.116 30.3753 30.7497 30.3679C31.6224 30.3589 32.4951 30.3649 33.3664 30.3664C33.4873 30.3664 33.6432 30.3305 33.7218 30.3918C33.8777 30.5142 34.0715 30.6784 34.1021 30.8531C34.1458 31.1024 33.9375 31.2487 33.6869 31.2546C33.2993 31.2636 32.9118 31.2621 32.5243 31.2621C32.0187 31.2621 31.5131 31.2621 30.9318 31.2621Z" fill="#031A26"/>
<path d="M44.0456 32.4449C42.0816 32.4449 40.1191 32.4464 38.1552 32.4449C37.5579 32.4449 37.3189 32.2941 37.3481 31.9567C37.3728 31.6551 37.5666 31.5536 38.1552 31.5536C42.0569 31.5521 45.96 31.5536 49.8616 31.5536C50.0073 31.5536 50.1836 31.5118 50.2899 31.5805C50.4313 31.673 50.6017 31.8552 50.6003 31.997C50.6003 32.1418 50.4327 32.3463 50.2885 32.4135C50.1253 32.4896 49.9082 32.4463 49.7145 32.4463C47.8234 32.4463 45.9337 32.4463 44.0426 32.4463L44.0456 32.4449Z" fill="#031A26"/>
<path d="M44.0413 42.0047C42.1269 42.0047 40.2125 42.0047 38.2966 42.0047C38.1028 42.0047 37.8901 42.0465 37.7211 41.9778C37.5711 41.9166 37.3787 41.736 37.3715 41.5986C37.3627 41.4523 37.5201 41.2448 37.6614 41.1567C37.7881 41.0761 37.9907 41.1119 38.1582 41.1119C42.0365 41.1104 45.9134 41.1119 49.7918 41.1119C49.8398 41.1119 49.8894 41.1119 49.9375 41.1119C50.4445 41.1284 50.6266 41.2493 50.6251 41.5673C50.6251 41.8852 50.4532 42.0032 49.9316 42.0047C47.9691 42.0092 46.0052 42.0062 44.0427 42.0062L44.0413 42.0047Z" fill="#031A26"/>
<path d="M43.9668 51.5728C42.0771 51.5728 40.1875 51.5728 38.2979 51.5728C38.1041 51.5728 37.8928 51.6132 37.7224 51.546C37.5723 51.4863 37.3756 51.3071 37.3713 51.1742C37.3654 51.0265 37.5242 50.8234 37.6656 50.7324C37.7923 50.6517 37.9934 50.6786 38.1609 50.6786C42.0611 50.6771 45.9613 50.6771 49.863 50.6771C49.8877 50.6771 49.911 50.6771 49.9358 50.6771C50.437 50.6965 50.6249 50.8234 50.6249 51.1384C50.6249 51.4564 50.4574 51.5699 49.9285 51.5713C47.9413 51.5758 45.9555 51.5728 43.9682 51.5728H43.9668Z" fill="#031A26"/>
<path d="M42.7387 35.3032C41.2599 35.3032 39.7811 35.3032 38.3023 35.3032C38.1086 35.3032 37.8973 35.342 37.7268 35.2749C37.5768 35.2152 37.3772 35.039 37.3713 34.9061C37.3641 34.7598 37.5243 34.5553 37.6656 34.4642C37.7924 34.3821 37.9935 34.4075 38.161 34.4075C41.2147 34.4045 44.2699 34.4045 47.3236 34.4075C47.4912 34.4075 47.6922 34.3821 47.819 34.4642C47.9574 34.5538 48.1118 34.7598 48.1031 34.9046C48.0943 35.0405 47.9006 35.2166 47.7505 35.2749C47.58 35.342 47.3688 35.3017 47.175 35.3017C45.6962 35.3017 44.2174 35.3017 42.7387 35.3017V35.3032Z" fill="#031A26"/>
<path d="M42.7029 44.8801C41.2504 44.8801 39.7963 44.8801 38.3438 44.8801C38.1748 44.8801 38.0043 44.8801 37.8353 44.8727C37.5687 44.8577 37.3473 44.7667 37.3516 44.4442C37.356 44.1322 37.5818 44.0292 37.8368 43.9948C38.0043 43.9725 38.1748 43.9829 38.3453 43.9829C41.2766 43.9829 44.2065 43.9829 47.1378 43.9829C47.3316 43.9829 47.5268 43.9769 47.7162 44.0068C47.9464 44.0441 48.13 44.1635 48.1256 44.4427C48.1212 44.7667 47.9114 44.8592 47.6434 44.8727C47.4744 44.8816 47.3039 44.8801 47.1349 44.8801C45.6576 44.8801 44.1802 44.8801 42.7029 44.8801Z" fill="#031A26"/>
<path d="M42.7505 53.5866C44.2278 53.5866 45.7037 53.5851 47.181 53.5881C47.3981 53.5881 47.6283 53.5717 47.8264 53.6418C47.9517 53.6866 48.1003 53.8717 48.1076 54.0016C48.1149 54.133 47.9896 54.3226 47.8687 54.3972C47.7361 54.4793 47.5438 54.4823 47.3777 54.4823C44.3036 54.4868 41.228 54.4868 38.1539 54.4823C37.9863 54.4823 37.7882 54.4957 37.66 54.4121C37.5216 54.3226 37.3861 54.133 37.3715 53.9747C37.3613 53.8672 37.542 53.6851 37.6746 53.6344C37.8465 53.5672 38.0548 53.5866 38.2471 53.5866C39.7478 53.5836 41.2484 53.5851 42.7505 53.5851V53.5866Z" fill="#031A26"/>
<path d="M32.9539 52.467C33.6635 51.7101 34.3147 51.0144 34.9689 50.3202C35.0869 50.1948 35.202 50.0679 35.3287 49.9545C35.5211 49.7828 35.7338 49.7768 35.913 49.9604C36.0907 50.1426 36.0805 50.3605 35.929 50.5621C35.8561 50.6606 35.7702 50.7487 35.6871 50.8382C34.9529 51.6265 34.2244 52.4207 33.4828 53.2015C33.0312 53.6762 32.8913 53.6687 32.4149 53.1955C32.2065 52.9895 32.0055 52.7745 31.8103 52.555C31.6602 52.3864 31.6558 52.2027 31.8044 52.0221C31.9734 51.8161 32.1832 51.7937 32.3814 51.937C32.5751 52.0773 32.7369 52.2624 32.9554 52.467H32.9539Z" fill="#031A26"/>
<path d="M32.8121 42.7666C33.5347 42.0933 34.2311 41.4454 34.9246 40.7945C35.0674 40.6601 35.1941 40.5094 35.3369 40.3765C35.4972 40.2272 35.6705 40.1929 35.86 40.3377C36.077 40.5049 36.0668 40.7154 35.9707 40.9333C35.9328 41.0199 35.8483 41.0856 35.7813 41.1573C35.0149 41.9843 34.2544 42.8158 33.4793 43.6339C33.0321 44.1057 32.8864 44.0952 32.4099 43.622C32.2016 43.4145 31.9976 43.2025 31.8039 42.983C31.6553 42.8144 31.6494 42.6263 31.798 42.4471C31.9685 42.2411 32.1856 42.2381 32.3794 42.3725C32.5731 42.5083 32.7334 42.6934 32.8106 42.7666H32.8121Z" fill="#031A26"/>
<path d="M32.8089 33.2003C33.5432 32.5166 34.2396 31.8687 34.9346 31.2178C35.0774 31.0834 35.2056 30.9342 35.3469 30.7998C35.5086 30.646 35.6864 30.6222 35.8699 30.767C36.0812 30.9342 36.0695 31.1491 35.9719 31.3671C35.9326 31.4537 35.8495 31.5194 35.784 31.591C35.0176 32.4181 34.2557 33.2511 33.482 34.0707C33.0537 34.523 32.892 34.5215 32.4636 34.1065C32.2524 33.902 32.0484 33.69 31.8503 33.4735C31.6856 33.2929 31.6143 33.0869 31.7978 32.8779C31.9945 32.6539 32.2247 32.6748 32.4403 32.848C32.5919 32.9704 32.723 33.1167 32.8104 33.2018L32.8089 33.2003Z" fill="#031A26"/>
</svg>
