<svg width="110" height="94" viewBox="0 0 110 94" fill="none" xmlns="http://www.w3.org/2000/svg">
<path d="M4.0109 87.117C4.0109 87.9879 3.1154 88.6866 1.99932 88.6866C0.883241 88.6866 4.19617e-05 87.9871 4.19617e-05 87.117C4.19617e-05 86.247 0.895542 85.5352 1.99932 85.5352C3.1031 85.5352 4.0109 86.247 4.0109 87.117Z" fill="#0E2365"/>
<path d="M24.7557 88.749C24.7007 88.749 24.645 88.7359 24.5941 88.7097L11.9876 82.2395C11.9449 82.2592 11.9015 82.2789 11.8572 82.2994C11.7768 82.3355 11.694 82.3691 11.6399 82.4052L2.78092 87.2943C2.61035 87.3902 2.39385 87.3263 2.30036 87.1557C2.20524 86.9843 2.26837 86.7694 2.43894 86.6751L11.2717 81.8016C11.3274 81.7631 11.448 81.7065 11.5702 81.6523C11.6505 81.6163 11.7333 81.5826 11.7875 81.5466C11.8932 81.4752 12.031 81.467 12.1466 81.5261L24.7302 87.9848L31.6523 83.2383C31.8122 83.1276 32.0328 83.1678 32.1443 83.3302C32.255 83.4917 32.214 83.7115 32.0532 83.8222L24.9574 88.6875C24.8975 88.7285 24.827 88.7499 24.7573 88.7499L24.7557 88.749Z" fill="#0E2365"/>
<path d="M86.4279 84.3357C86.3738 84.3357 86.3205 84.3234 86.2705 84.2988L78.2849 80.3421C78.1094 80.2552 78.038 80.0428 78.125 79.8681C78.2127 79.6926 78.4267 79.6213 78.599 79.7082L86.3886 83.5682L94.9564 77.1226C95.063 77.0422 95.2057 77.0299 95.3246 77.0873L107.451 83.0056C107.627 83.0909 107.699 83.3033 107.613 83.4788C107.527 83.6542 107.314 83.7264 107.14 83.642L95.209 77.8188L86.6395 84.2652C86.5772 84.312 86.5017 84.3365 86.4263 84.3365L86.4279 84.3357Z" fill="#0E2365"/>
<path d="M98.3479 57.4844C98.3479 57.7673 98.206 58.0363 97.9157 58.1921L52.5615 82.5155C52.5262 82.5368 52.491 82.5507 52.4549 82.5581V92.1641C52.4549 92.3626 52.2991 92.5184 52.1006 92.5184C51.9022 92.5184 51.7463 92.3626 51.7463 92.1641V82.4876L3.60232 58.2142C3.30547 58.0658 3.15622 57.7755 3.15622 57.4852V68.9388C3.17754 69.2078 3.32596 69.4628 3.59494 69.5973L51.8095 93.9067C52.0432 94.0338 52.3261 94.0273 52.5598 93.9067L97.9141 69.5768C98.1191 69.4702 98.2536 69.3004 98.3102 69.1028C98.3528 68.9544 98.3528 68.7846 98.3102 68.6354L98.3454 57.486L98.3479 57.4844ZM41.3769 82.6286C41.3203 82.7557 41.1932 82.8336 41.0579 82.8336C41.0087 82.8336 40.9513 82.8197 40.9095 82.7984L13.3018 69.6383C13.1247 69.553 13.0542 69.3406 13.146 69.1643C13.2313 68.9872 13.4437 68.9232 13.6208 69.0085L14.2932 69.348L41.2071 82.1612C41.3843 82.2465 41.4622 82.4515 41.3769 82.6286ZM89.0322 69.7736L65.5723 82.6573C65.5157 82.686 65.4591 82.7 65.4026 82.7C65.2755 82.7 65.1549 82.6294 65.0909 82.5163C64.9991 82.3465 65.0623 82.1267 65.2328 82.0349L88.6927 69.1512C88.8624 69.0593 89.0822 69.1159 89.174 69.293C89.2659 69.4628 89.2019 69.6752 89.0322 69.7744V69.7736Z" fill="#01B990"/>
<path d="M98.3476 57.2583V57.4707C98.3476 57.4002 98.3336 57.3288 98.3123 57.2583H98.3476Z" fill="#01B990"/>
<path d="M52.1746 82.9645C51.9925 82.9645 51.8121 82.9218 51.6489 82.8382L3.44501 58.5312C3.05057 58.3344 2.80457 57.9334 2.80457 57.4865C2.80457 57.0395 3.05057 56.6459 3.44583 56.4475L33.7162 41.3406C33.8892 41.2537 34.1032 41.3242 34.1902 41.4997C34.2779 41.6743 34.2065 41.8867 34.0319 41.9745L3.76238 57.0805C3.60657 57.1584 3.51308 57.3102 3.51308 57.4856C3.51308 57.6611 3.60657 57.8202 3.7632 57.8981L51.972 82.2076C52.1016 82.2748 52.2639 82.2724 52.4017 82.2018L97.751 57.8809C97.9093 57.7964 97.9954 57.6562 97.9954 57.4848C97.9954 57.4422 97.9888 57.4045 97.9749 57.3577C97.9429 57.2323 97.8634 57.133 97.7535 57.0724L66.4868 39.9629C66.3154 39.8694 66.2523 39.6546 66.3466 39.4824C66.4409 39.311 66.6574 39.2478 66.8271 39.3421L98.0946 56.4516C98.3767 56.6074 98.5817 56.869 98.658 57.1716C98.6875 57.2708 98.7039 57.3725 98.7039 57.4701C98.7039 57.9145 98.4727 58.2959 98.0856 58.5042L52.7314 82.8275C52.5551 82.9186 52.3648 82.9637 52.1762 82.9637L52.1746 82.9645Z" fill="#0E2365"/>
<path d="M109.999 83.4681C109.999 84.339 109.104 85.0377 107.988 85.0377C106.872 85.0377 105.988 84.3382 105.988 83.4681C105.988 82.598 106.884 81.8862 107.988 81.8862C109.091 81.8862 109.999 82.598 109.999 83.4681Z" fill="#0E2365"/>
<path d="M58.4558 72.7315C58.3295 72.7315 58.2073 72.6634 58.1433 72.5445C58.0515 72.3723 58.1163 72.1574 58.2893 72.0656L79.6802 60.6243C79.8524 60.5316 80.0664 60.5964 80.1591 60.7694C80.2509 60.9416 80.1862 61.1565 80.0131 61.2483L58.6222 72.6896C58.5689 72.7183 58.5124 72.7315 58.4558 72.7315Z" fill="#0E2365"/>
<path d="M47.7648 74.0017C47.7173 74.0017 47.6689 73.9919 47.6221 73.9714L20.5787 62.0799C20.3999 62.0012 20.3187 61.7929 20.3975 61.6133C20.4762 61.4337 20.6853 61.3533 20.8641 61.432L47.9075 73.3235C48.0863 73.4023 48.1675 73.6106 48.0887 73.7901C48.0305 73.923 47.901 74.0017 47.7648 74.0017Z" fill="#0E2365"/>
<path d="M74.3583 27.2933C75.4342 24.4617 75.335 21.2192 74.5141 18.2892C74.0114 16.5474 73.2898 14.8556 72.1852 13.4468C70.6984 11.5566 68.6811 10.2683 66.6425 9.11452C65.6519 8.55525 63.0745 8.05255 62.8129 6.94876C62.6571 6.26895 63.0466 5.1291 63.1097 4.4214C63.195 3.4726 63.2582 2.51725 63.3435 1.57584C63.3648 1.36345 63.3787 1.12973 63.3082 0.938664C63.2229 0.754974 63.0392 0.655742 62.876 0.542575C61.7509 -0.108541 53.8646 0.0398767 53.8646 0.0398767L53.8006 0.0185547C53.8006 0.0185547 53.7932 0.0259487 53.7793 0.0325091C53.6587 0.153056 52.8239 0.966535 52.5968 1.21501C52.3417 1.49136 52.1646 3.13311 52.158 3.31762C52.158 3.53739 53.2126 6.12791 54.3738 6.75114C54.5083 6.82166 54.6715 6.8717 54.8552 6.88564C54.9257 7.09065 55.0249 7.28909 55.1455 7.47279C54.7699 7.50149 54.3738 7.53675 53.9991 7.55807C52.8945 7.62204 51.1748 7.28909 51.6775 5.64654C52.1097 4.28772 52.0596 2.98466 51.9465 1.47742C51.9112 1.21583 51.8973 0.939478 51.7415 0.727086C51.4586 0.44417 50.969 0.465496 49.7807 0.465496C47.6076 0.458115 43.728 0.529462 43.728 0.529462C43.728 0.529462 43.7206 0.536829 43.714 0.536829C43.509 0.685258 41.4983 2.10805 41.0095 3.25529C40.6914 3.9917 40.7406 5.36445 40.9242 6.53302C40.4716 6.51169 40.0107 6.48381 39.5581 6.46905C38.4321 6.41247 37.2996 6.36326 36.1532 6.32062C35.9695 6.2993 35.7711 6.29931 35.6227 6.43379C35.5521 6.483 35.4956 6.55433 35.4595 6.64617C35.3816 6.81592 35.3676 7.03569 35.3676 7.24071C35.3676 8.66349 35.3389 10.0863 35.3184 11.4951C35.3324 11.906 35.3324 12.2947 35.5234 12.6415C35.8203 13.1795 36.4722 13.2861 37.0102 13.3632C38.0155 13.4624 38.9922 13.5616 39.9763 13.6814C39.9902 13.6461 40.0042 13.6174 40.0255 13.5895C40.0468 13.5543 40.0681 13.5116 40.096 13.4837C40.3084 13.2074 40.6766 13.0803 41.2924 13.0516C45.1508 12.8465 49.292 13.3845 53.065 14.4817C55.2595 15.1189 57.6663 16.0037 58.9972 18.1842C61.6657 22.5657 58.7848 28.6751 54.8986 30.4308C54.396 30.6645 53.8793 30.8269 53.3553 30.9474C51.6422 31.3369 49.8299 31.209 48.0603 31.0114C46.8925 30.8843 45.724 30.7137 44.5489 30.6366C43.5082 30.5661 42.2339 30.849 41.2359 30.4169C40.7332 30.1971 40.4781 29.8223 40.3371 29.3762C40.5068 36.222 40.67 42.8758 39.9902 49.2467C38.7232 48.8359 37.8802 48.8572 36.642 49.2115C36.5288 49.2402 36.3943 49.2754 36.3443 49.3886C36.309 49.4739 36.323 49.5584 36.2951 49.6149C36.323 51.1156 36.4583 52.595 36.7412 54.0604C36.7765 54.2654 36.8117 54.4991 36.9962 54.6336C37.0955 54.7189 37.23 54.7542 37.3505 54.8034C38.4125 55.0724 39.4744 55.2921 40.5364 55.4619C40.4298 55.6316 40.3592 55.8014 40.3314 55.9719C40.2108 56.8994 40.1116 58.4993 40.4519 59.2849C40.7848 60.0992 43.8854 61.9681 43.8854 61.9681L48.3235 61.6565C48.8262 61.7131 49.3355 61.7557 49.8381 61.7697C49.9161 61.7697 50.0079 61.7697 50.0505 61.7344C50.1498 61.6852 50.1563 61.5786 50.1563 61.4654C50.2695 60.0919 50.3687 58.7191 50.4753 57.3103C50.5032 56.815 50.5245 56.277 50.2416 55.8522C50.5745 55.8735 50.8927 55.9014 51.2257 55.9088C51.0772 57.3668 51.0272 59.5547 51.1617 59.8729C51.3741 60.3256 51.926 62.1879 51.926 62.1879H51.9473L54.956 62.2166C55.8761 62.4003 56.8036 62.4003 57.7024 62.2379C58.2895 62.1387 58.8636 61.9829 59.4081 61.7352C59.6131 61.636 59.8328 61.5302 59.946 61.3457C60.0805 61.1473 60.0666 60.8783 60.0944 60.6446C60.0452 59.8729 60.0657 59.0734 60.165 58.3017C60.2142 57.7777 60.0305 56.6944 60.2494 56.277C60.3626 56.072 60.6176 56.022 60.8513 55.9867C61.3327 55.9014 61.8215 55.8096 62.3094 55.7251C63.3287 55.534 64.3833 55.3569 65.3747 55.0387C69.7423 53.6652 73.2037 49.6305 73.8269 45.0932C74.492 40.4919 72.163 35.5864 68.1284 33.1369C70.96 32.5211 73.3103 30.1282 74.3575 27.2966L74.3583 27.2933ZM57.7516 49.4149C56.633 50.4268 55.3308 50.9934 53.9507 51.2977C52.0039 51.7225 49.8947 51.6446 47.9053 51.6093C46.9704 51.588 41.0177 51.7577 41.003 50.1726C40.9956 49.8683 41.1375 49.5354 41.1375 49.2025C41.1375 48.8343 41.1235 48.4661 41.1088 48.0979C41.0595 46.8661 40.9103 45.6344 40.8685 44.3954C40.7766 41.7122 40.7127 39.0085 40.6774 36.2687C40.6635 35.2633 40.5995 34.5696 41.6401 34.4991C44.8465 34.2793 48.1242 34.5277 51.3593 34.6475C53.9999 34.7467 56.9233 34.973 58.8135 36.969C59.4433 37.6341 59.9034 38.4558 60.2363 39.3119C61.6378 42.9152 60.3782 47.0211 57.7516 49.4132V49.4149ZM62.2536 48.4456C62.1831 48.5522 62.0699 48.6087 61.9559 48.6087C61.892 48.6087 61.8215 48.5874 61.7649 48.5522C61.6017 48.4456 61.5525 48.2266 61.6583 48.0634C63.7395 44.8775 63.6756 40.4821 61.5098 37.3602C61.3967 37.2044 61.4393 36.978 61.5951 36.8714C61.7583 36.7583 61.9773 36.7935 62.0904 36.9567C64.4194 40.305 64.4899 45.0333 62.2536 48.4456ZM63.514 26.5995C63.4501 26.7061 63.3369 26.7553 63.2237 26.7553C63.1532 26.7553 63.0819 26.734 63.0253 26.6914C62.8621 26.5848 62.8203 26.3658 62.9334 26.2026C64.1364 24.4404 64.4415 22.0188 63.7477 19.7325C63.1393 17.7217 61.7936 15.811 59.8542 14.1963C59.7057 14.0758 59.6844 13.8495 59.8115 13.701C59.9386 13.5526 60.1584 13.5313 60.3068 13.6518C62.3528 15.351 63.7756 17.3822 64.4267 19.5201C65.1845 22.0188 64.8441 24.6667 63.5132 26.5987L63.514 26.5995Z" fill="#0E2365"/>
<path d="M67.5967 27.3645C68.6374 24.5189 68.4816 21.2904 67.6181 18.3456C67.108 16.6039 66.3437 14.9121 65.2252 13.5033C63.7245 11.627 61.6719 10.3387 59.6046 9.17095C58.6279 8.61906 56.03 8.10244 55.761 7.0044C55.5979 6.33196 55.9595 5.18472 56.0087 4.4844C56.0866 3.5356 56.1358 2.58761 56.2211 1.63882C56.235 1.42643 56.2498 1.19273 56.1571 1.00166C56.0726 0.824534 55.9095 0.711354 55.7463 0.619509C55.1517 0.28001 54.5146 0.109434 53.8634 0.0389103C53.8356 0.0389103 53.8069 0.0315427 53.779 0.0315427C52.8515 -0.0603025 50.6161 0.0381047 49.7796 0.463709C48.8538 0.935235 48.8308 1.68475 48.9727 2.70734C49.1285 3.86115 49.2909 5.01495 49.4467 6.16875C49.5033 6.56484 49.5385 7.02571 49.2769 7.27992C49.1072 7.44967 48.8595 7.47838 48.6258 7.49232C48.0666 7.53496 47.5073 7.5776 46.948 7.61286C45.8368 7.69815 44.1303 7.3439 44.6117 5.71611C45.0225 4.34991 44.9512 3.04766 44.8102 1.5396C44.7519 0.819598 44.5682 0.599012 43.8761 0.541609C43.8195 0.541609 43.7695 0.534221 43.7129 0.534221C42.1696 0.463697 40.6337 0.619516 39.1543 1.0156C38.8 2.79264 38.9493 4.72466 39.5578 6.46644C39.6004 6.58699 39.643 6.70753 39.6922 6.82725C38.2834 6.77067 36.8746 6.70671 35.4592 6.64356C33.3426 6.55828 31.2261 6.46643 29.1096 6.37459C28.9185 6.36721 28.7135 6.36721 28.5642 6.4812C28.3518 6.65095 28.3379 6.99783 28.3379 7.30206V11.5565C28.3379 11.946 28.3518 12.3634 28.5503 12.7029C28.8693 13.2335 29.513 13.354 30.0649 13.418C31.1482 13.5385 32.2307 13.6591 33.3074 13.7788C33.0097 26.1738 34.5604 38.1653 33.5198 49.3007C32.2593 48.8833 31.3893 48.9112 30.1715 49.2581C30.0584 49.2868 29.9378 49.336 29.8812 49.4418C29.846 49.5123 29.846 49.5976 29.846 49.6755C29.8747 51.1622 30.037 52.6555 30.3347 54.1136C30.3774 54.326 30.4339 54.5523 30.5963 54.6942C30.7021 54.7795 30.8366 54.8147 30.9645 54.85C33.1097 55.4019 35.2829 55.7422 37.442 55.8619C37.9373 55.8906 38.4474 55.9046 38.8861 55.7061C39.0912 57.4684 39.297 59.2175 39.4946 60.9585C39.5086 61.0438 39.5225 61.1356 39.5725 61.2135C39.6578 61.3267 39.8062 61.3693 39.9407 61.3907C41.1372 61.6244 42.3476 61.7663 43.5506 61.8228C43.6211 61.8302 43.699 61.8302 43.7556 61.7876C43.8335 61.731 43.8474 61.6178 43.8548 61.5186C43.9393 60.1385 44.0245 58.7575 44.1098 57.3634C44.1451 56.8681 44.159 56.3228 43.8622 55.9054C44.3362 55.948 44.8175 55.9833 45.2989 56.0046C46.1271 56.0473 46.9554 56.0612 47.7763 56.0473C47.8115 57.9161 47.8402 59.7637 47.8755 61.6039C47.8755 61.717 47.8829 61.8376 47.9394 61.9434C48.0313 62.1066 48.2363 62.1697 48.4208 62.2124C49.5886 62.4813 50.8063 62.4674 51.9462 62.1836C52.3497 62.0844 52.7392 61.9499 53.1139 61.7802C53.3189 61.6883 53.5313 61.5817 53.6519 61.3841C53.7724 61.1856 53.7724 60.9314 53.765 60.6903C53.7224 59.9113 53.7298 59.1257 53.8143 58.354C53.8782 57.83 53.6511 56.7402 53.8848 56.3228C53.9979 56.1317 54.2456 56.0677 54.4727 56.0325C54.9615 55.9406 55.4429 55.8554 55.9242 55.7709C56.9575 55.5872 57.9981 55.4027 58.9961 55.0845C63.3284 53.7109 66.7267 49.6903 67.2999 45.1595C67.8879 40.5369 65.5089 35.6314 61.4316 33.1958C64.2633 32.566 66.5709 30.1805 67.5976 27.3629L67.5967 27.3645ZM61.594 36.8713C61.7572 36.7581 61.9762 36.7934 62.0893 36.9566C64.4183 40.3048 64.4888 45.0332 62.2525 48.4454C62.182 48.552 62.0688 48.6086 61.9548 48.6086C61.8909 48.6086 61.8204 48.5873 61.7638 48.552C61.6006 48.4454 61.5514 48.2265 61.6572 48.0633C63.7384 44.8774 63.6745 40.482 61.5087 37.36C61.3956 37.2042 61.4382 36.9779 61.594 36.8713ZM53.0639 14.4808C55.2583 15.1179 57.6652 16.0027 58.9961 18.1833C61.6645 22.5648 58.7837 28.6741 54.8975 30.4298C54.3948 30.6635 53.8782 30.8259 53.3542 30.9465C51.6411 31.336 49.8288 31.2081 48.0592 31.0104C46.8914 30.8833 45.7229 30.7127 44.5477 30.6357C43.5071 30.5651 42.2327 30.8481 41.2348 30.4159C40.7321 30.1961 40.477 29.8214 40.336 29.3753C40.1876 28.9078 40.1802 28.3559 40.1662 27.8319C40.0383 23.6128 39.8899 19.3157 39.8267 14.9482C39.8194 14.3815 39.8554 13.9715 39.9752 13.6812C39.9891 13.6459 40.003 13.6173 40.0244 13.5894C40.0457 13.5541 40.067 13.5115 40.0949 13.4836C40.3073 13.2072 40.6755 13.0801 41.2913 13.0514C45.1496 12.8464 49.2909 13.3843 53.0639 14.4816V14.4808ZM37.1148 22.1966C37.1148 21.9981 37.278 21.8423 37.4691 21.8423C37.6602 21.8423 37.8234 21.9981 37.8234 22.1966V39.0305C37.8234 39.2289 37.6676 39.3847 37.4691 39.3847C37.2707 39.3847 37.1148 39.2289 37.1148 39.0305V22.1966ZM57.7505 49.4147C56.6319 50.4267 55.3297 50.9933 53.9496 51.2975C52.0028 51.7223 49.8936 51.6444 47.9042 51.6092C46.9693 51.5878 41.0166 51.7576 41.0019 50.1724C40.9945 49.8682 41.1363 49.5353 41.1363 49.2023C41.1363 48.8341 41.1224 48.4659 41.1076 48.0977C41.0584 46.866 40.9092 45.6343 40.8674 44.3952C40.7755 41.712 40.7116 39.0083 40.6763 36.2686C40.6624 35.2632 40.5984 34.5694 41.639 34.4989C44.8454 34.2791 48.1231 34.5276 51.3582 34.6473C53.9987 34.7465 56.9222 34.9729 58.8124 36.9689C59.4422 37.6339 59.9023 38.4556 60.2352 39.3117C61.6367 42.915 60.3771 47.021 57.7505 49.4131V49.4147ZM63.5129 26.5994C63.4489 26.706 63.3358 26.7552 63.2226 26.7552C63.1521 26.7552 63.0807 26.7339 63.0242 26.6912C62.861 26.5846 62.8192 26.3657 62.9323 26.2025C64.1353 24.4402 64.4404 22.0186 63.7466 19.7323C63.1382 17.7216 61.7925 15.8109 59.8531 14.1962C59.7046 14.0757 59.6833 13.8493 59.8104 13.7009C59.9375 13.5525 60.1573 13.5311 60.3057 13.6517C62.3517 15.3508 63.7745 17.3821 64.4256 19.5199C65.1834 22.0186 64.843 24.6665 63.5121 26.5986L63.5129 26.5994Z" fill="#FBD072"/>
<path d="M43.6049 62.1802C43.577 62.1802 43.5515 62.1785 43.531 62.1777C42.3141 62.1203 41.0848 61.9735 39.8769 61.7423C39.7391 61.716 39.4513 61.6611 39.2807 61.4167C39.1758 61.2658 39.1569 61.0985 39.1454 60.9985L38.5821 56.1725C38.2016 56.2488 37.8047 56.2373 37.4225 56.216C35.2379 56.0913 33.0353 55.7485 30.8777 55.195C30.7351 55.1581 30.5415 55.1073 30.3726 54.9687C30.1167 54.7587 30.0372 54.4553 29.9839 54.188C29.6846 52.7012 29.5198 51.1858 29.4919 49.6835C29.4902 49.5908 29.4861 49.4326 29.564 49.2792C29.6936 49.025 29.9617 48.9487 30.0757 48.9167C31.2771 48.5781 32.1423 48.5485 33.2083 48.838C33.7569 42.5556 33.5019 36.074 33.2321 29.2201C33.0386 24.3022 32.8385 19.2212 32.9475 14.0968L30.0224 13.7704C29.5878 13.722 28.6841 13.622 28.247 12.888C27.9879 12.455 27.9871 11.9384 27.9863 11.5612L27.9805 7.30432C27.9805 7.02223 27.9789 6.49741 28.3454 6.20711C28.6021 6.00292 28.9162 6.01602 29.1245 6.02504L39.1799 6.45231C38.5796 4.68265 38.446 2.74897 38.8076 0.949789C38.8338 0.817761 38.9322 0.71279 39.0626 0.677528C40.6305 0.255204 42.2583 0.0895613 43.8984 0.192067C44.1141 0.205188 44.5635 0.233065 44.8595 0.577485C45.0883 0.844 45.1367 1.18351 45.1662 1.50824C45.3015 3.01713 45.3794 4.38251 44.953 5.81595C44.8341 6.21777 44.8653 6.52364 45.0498 6.75243C45.3901 7.17558 46.2323 7.31581 46.9219 7.26496C47.1146 7.25266 47.286 7.39699 47.3 7.59216C47.3147 7.78733 47.1679 7.95627 46.9728 7.97103C46.1265 8.0309 45.0334 7.86113 44.4979 7.19607C44.2666 6.90906 44.0403 6.40146 44.274 5.61422C44.6652 4.29887 44.5938 3.05731 44.4602 1.57221C44.4101 1.01622 44.3371 0.929279 43.855 0.899757C42.3649 0.807912 40.888 0.945697 39.4603 1.30652C39.1463 3.0852 39.3447 4.9918 40.0237 6.69914C40.068 6.81067 40.0524 6.93694 39.9835 7.03453C39.9138 7.13211 39.7998 7.1887 39.6801 7.18296L29.095 6.73358C28.9982 6.72865 28.8366 6.7229 28.7858 6.76309C28.6874 6.84017 28.6882 7.18952 28.689 7.30432L28.6948 11.5612C28.6948 11.9564 28.7079 12.2787 28.8555 12.5264C29.0695 12.8847 29.5083 13.002 30.1012 13.0684L33.3494 13.4309C33.5322 13.4514 33.6684 13.6072 33.6643 13.7909C33.5388 19.0031 33.743 24.1841 33.9406 29.1938C34.2178 36.229 34.4794 42.8738 33.8758 49.3374C33.866 49.4449 33.807 49.5416 33.7167 49.6007C33.6265 49.6597 33.5142 49.6745 33.4125 49.64C32.28 49.2661 31.4887 49.2562 30.2709 49.5998C30.2316 49.6113 30.2061 49.6195 30.1914 49.6261C30.2004 49.6318 30.2004 49.6581 30.2012 49.6704C30.2274 51.1325 30.3882 52.6053 30.6785 54.0502C30.7088 54.1978 30.7474 54.361 30.8236 54.4234C30.872 54.4635 30.9704 54.4881 31.0557 54.5111C33.1681 55.0531 35.3249 55.3894 37.4643 55.5116C37.931 55.537 38.3812 55.5485 38.742 55.3877C38.8445 55.341 38.9634 55.3467 39.0618 55.4033C39.1594 55.4591 39.225 55.5583 39.2381 55.6698L39.8499 60.9198C39.8531 60.9476 39.8589 61.0034 39.8671 61.0206C39.8671 61.0149 39.904 61.0297 40.0106 61.0493C41.1669 61.2707 42.342 61.4118 43.5064 61.4708L43.7598 57.3443C43.7885 56.8745 43.7959 56.4267 43.5753 56.1176C43.4622 55.9585 43.4991 55.7371 43.6582 55.6239C43.8181 55.5107 44.0387 55.5476 44.1518 55.7059C44.5364 56.2455 44.4946 56.9327 44.4667 57.387L44.2117 61.5446C44.2051 61.6586 44.1887 61.9284 43.955 62.0867C43.8336 62.1695 43.7032 62.1834 43.6073 62.1834L43.6049 62.1802Z" fill="#0E2365"/>
<path d="M49.9974 51.9916C49.4447 51.9916 48.8919 51.981 48.3458 51.9703L47.898 51.9621C47.7029 51.9588 47.5471 51.7973 47.5503 51.6021C47.5536 51.4086 47.7119 51.2544 47.9046 51.2544C47.9063 51.2544 47.9087 51.2544 47.9104 51.2544L48.3589 51.2626C50.2081 51.2979 52.1147 51.3348 53.8721 50.9493C55.3506 50.6246 56.5421 50.0366 57.5147 49.1502C60.1954 46.7089 61.1795 42.7161 59.9076 39.4417C59.5591 38.5412 59.1031 37.7909 58.5545 37.2111C56.7972 35.3553 54.0279 35.1028 51.3422 35.0027C50.6575 34.9773 49.9703 34.9461 49.2815 34.915C46.7689 34.801 44.1701 34.6829 41.6632 34.8551C41.4886 34.8764 41.3 34.7223 41.286 34.5263C41.2729 34.3311 41.4205 34.1622 41.6149 34.1491C44.1628 33.9736 46.7811 34.0925 49.3134 34.2073C49.9998 34.2385 50.6862 34.2696 51.3693 34.295C54.2009 34.4 57.1285 34.6747 59.0695 36.724C59.6813 37.3702 60.1856 38.1985 60.5677 39.185C61.9421 42.7259 60.8835 47.0385 57.992 49.6733C56.9243 50.6451 55.6261 51.2888 54.0238 51.6406C52.7166 51.9277 51.3537 51.9916 49.9974 51.9916Z" fill="#0E2365"/>
<path d="M50.8573 31.5501C49.9044 31.5501 48.9491 31.4657 48.0241 31.3623C47.6747 31.323 47.3246 31.2803 46.9752 31.2385C46.1716 31.1401 45.3401 31.0392 44.5266 30.9859C44.2084 30.9654 43.8599 30.9794 43.4933 30.995C42.6807 31.0286 41.8401 31.0638 41.0914 30.7358C40.9118 30.6579 40.8306 30.4488 40.9085 30.2692C40.9873 30.0896 41.1956 30.0084 41.3751 30.0872C41.9738 30.3488 42.7315 30.3184 43.4638 30.2872C43.8336 30.2725 44.2166 30.2561 44.5725 30.279C45.4073 30.3332 46.2479 30.4357 47.0622 30.5349C47.409 30.5775 47.7559 30.6194 48.1028 30.6579C50.075 30.8777 51.7102 30.9523 53.2748 30.5989C53.7964 30.4808 54.2933 30.316 54.7534 30.1077C56.7436 29.2064 58.5207 27.0333 59.2792 24.5707C59.9721 22.3246 59.7639 20.1195 58.6929 18.3638C57.4103 16.2595 55.065 15.4313 52.9681 14.8196C49.1705 13.7117 45.0301 13.2073 41.312 13.4009C41.1168 13.4074 40.9504 13.2606 40.9405 13.0663C40.9307 12.8711 41.0799 12.7046 41.2759 12.6948C45.0711 12.4955 49.2943 13.0105 53.1666 14.1414C55.5545 14.8376 57.9499 15.7872 59.2972 17.9964C60.4748 19.9284 60.7085 22.3377 59.9557 24.7806C59.1275 27.4696 57.2455 29.7583 55.0453 30.7547C54.5426 30.9818 53.9997 31.1622 53.4314 31.291C52.5925 31.4804 51.7266 31.5501 50.859 31.5501H50.8573Z" fill="#0E2365"/>
<path d="M47.3168 51.5681C47.2291 51.5468 47.0971 51.614 47.0036 51.614C46.9355 51.614 46.8642 51.5984 46.7945 51.5976C46.6559 51.596 46.5173 51.5952 46.3787 51.5927C46.0687 51.5878 45.758 51.5796 45.448 51.5665C44.7796 51.5386 44.1113 51.491 43.4487 51.3983C42.8804 51.3188 42.2949 51.2146 41.7643 50.9859C41.4371 50.8448 41.0402 50.6144 40.9935 50.2224C40.991 50.2027 40.9894 50.183 40.9894 50.1634C40.9935 49.8673 41.1362 49.527 41.1378 49.2088C41.1362 48.8267 41.1353 48.465 41.1107 48.1034C41.0517 46.8643 40.9221 45.6408 40.8623 44.3886C40.7794 41.7111 40.7196 39.0033 40.6835 36.2644C40.6655 35.2549 40.5966 34.5792 41.6413 34.5021C43.124 34.3988 44.614 34.4078 46.1294 34.439C45.8121 34.4414 45.4947 34.4447 45.179 34.4701C44.1334 34.5472 44.1974 35.2221 44.2089 36.2324C44.2253 38.9722 44.2646 41.68 44.3286 44.3583C44.3794 45.6105 44.5 46.834 44.55 48.073C44.5804 48.8168 44.4623 49.6033 44.8805 50.265C45.1331 50.6644 45.5333 50.9531 45.963 51.1499C46.3927 51.3467 46.856 51.4574 47.3152 51.5681H47.3168Z" fill="#0E2365"/>
<path d="M45.5721 30.7039C45.2605 30.7039 44.8332 30.6539 44.5438 30.6342C43.5064 30.5752 42.2189 30.8384 41.2324 30.412C40.1934 29.9626 40.1943 28.8564 40.1762 27.8387C40.0466 23.6081 39.8892 19.3037 39.8326 14.9476C39.8203 13.5773 40.0187 13.1082 41.289 13.0475C42.3813 12.9877 43.5039 13.0016 44.6545 13.0647C43.6663 13.1722 43.5171 13.665 43.5121 14.9131C43.5376 19.2692 43.663 23.5745 43.7614 27.8059C43.7754 28.4094 43.7557 29.0532 44.0181 29.6125C44.3133 30.2423 44.9899 30.4038 45.5713 30.7031L45.5721 30.7039Z" fill="#0E2365"/>
<path d="M55.4529 26.8012C55.411 26.8012 55.3684 26.7938 55.3266 26.7774C55.1437 26.7077 55.0527 26.5035 55.1224 26.3207C56.0121 23.9876 55.5029 21.1585 53.8554 19.2814C53.7267 19.1346 53.7414 18.9107 53.8874 18.782C54.0342 18.654 54.2581 18.6672 54.3876 18.8148C56.2032 20.8838 56.7649 24.0007 55.7842 26.5724C55.73 26.7135 55.5964 26.8004 55.4537 26.8004L55.4529 26.8012Z" fill="#0E2365"/>
<path d="M54.1671 49.2953C54.1073 49.2953 54.0474 49.2805 53.9925 49.2485C53.8227 49.1518 53.7629 48.9361 53.8596 48.7663C55.1405 46.5071 54.9774 43.4565 53.4611 41.3474C53.3471 41.1883 53.3832 40.9677 53.5423 40.8529C53.7005 40.7406 53.922 40.775 54.0359 40.9341C55.7343 43.2975 55.9106 46.585 54.4747 49.1157C54.4099 49.2305 54.2901 49.2953 54.1671 49.2953Z" fill="#0E2365"/>
<path d="M27.5196 57.3543C27.4695 57.3543 27.4195 57.3436 27.3711 57.3214C24.82 56.1422 23.3177 53.0728 23.9516 50.3347C23.995 50.1452 24.1853 50.0239 24.3763 50.0698C24.5666 50.1141 24.6855 50.3043 24.6412 50.4946C24.0803 52.9186 25.4096 55.6346 27.668 56.6794C27.8451 56.7614 27.923 56.9713 27.841 57.1493C27.7812 57.2788 27.6532 57.3551 27.5196 57.3551V57.3543Z" fill="#0E2365"/>
<path d="M78.2721 55.5037C78.1745 55.5037 78.0769 55.4635 78.0072 55.3848C77.8776 55.2388 77.8908 55.015 78.0367 54.8854C79.4923 53.5946 79.7146 51.1206 78.5132 49.5904C78.3926 49.4362 78.4189 49.214 78.5731 49.0934C78.7248 48.9729 78.9478 48.9999 79.0692 49.1533C80.4903 50.9623 80.2271 53.8882 78.5066 55.4151C78.4386 55.475 78.3557 55.5045 78.2713 55.5045L78.2721 55.5037Z" fill="#0E2365"/>
</svg>
