<svg width="84" height="84" viewBox="0 0 84 84" fill="none" xmlns="http://www.w3.org/2000/svg">
<circle cx="42" cy="42" r="41.5" stroke="#031A26" stroke-opacity="0.14"/>
<path d="M42.012 24C51.9383 24 60.0015 32.0842 59.9985 42.0315C59.9955 51.9488 51.9038 60.0045 41.949 60C32.0422 59.9955 23.994 51.8933 24 41.931C24.006 32.0647 32.1082 24 42.012 24ZM58.8029 41.991C58.7999 32.7547 51.2618 25.2076 42.0285 25.1971C32.7562 25.1866 25.1941 32.7397 25.1971 42.0075C25.2001 51.2408 32.7412 58.7909 41.9715 58.8014C51.2438 58.8119 58.8059 51.2573 58.8029 41.9895V41.991Z" fill="#031A26"/>
<path d="M56.6956 42.0255C56.6896 50.0991 50.0756 56.6982 41.9899 56.6967C33.8802 56.6952 27.2887 50.0706 27.3007 41.9355C27.3127 33.8768 33.9447 27.2942 42.0424 27.3032C50.1101 27.3107 56.7001 33.9338 56.6956 42.0255ZM55.497 41.9955C55.497 34.5833 49.423 28.5063 42.0139 28.5018C34.5973 28.4973 28.5113 34.5608 28.4993 41.9655C28.4873 49.4151 34.5748 55.5056 42.0214 55.4981C49.4275 55.4906 55.4985 49.4076 55.497 41.9955Z" fill="#031A26"/>
<path d="M43.0375 50.1318C43.0375 50.7573 43.042 51.3019 43.0375 51.8449C43.0315 52.3115 43.1351 52.9055 42.448 52.931C41.7249 52.958 41.8479 52.349 41.8389 51.8884C41.8284 51.3424 41.8359 50.7948 41.8359 50.1903H38.7382C38.7382 50.8683 38.7382 51.5119 38.7382 52.1539C38.7382 52.559 38.6737 52.9355 38.1606 52.943C37.6581 52.949 37.5501 52.5785 37.5411 52.1764C37.5276 51.5299 37.5381 50.8833 37.5381 50.1318C37.031 50.1318 36.5885 50.1318 36.1475 50.1318C34.8649 50.1318 34.5588 50.0193 34.6578 49.5197C34.8454 48.5716 35.6479 49.0187 36.1985 48.9392C36.608 48.8792 37.034 48.9272 37.4931 48.9272V35.6961C36.8465 35.6961 36.1835 35.6916 35.5219 35.6976C35.0974 35.7021 34.6668 35.6751 34.6533 35.126C34.6398 34.529 35.0914 34.493 35.5459 34.4975C36.1685 34.5035 36.791 34.4975 37.5366 34.4975C37.5366 33.9739 37.5366 33.4864 37.5366 33.0003C37.5366 32.6253 37.5216 32.2488 37.5486 31.8753C37.5756 31.4912 37.7586 31.1267 38.1831 31.2317C38.4067 31.2872 38.6782 31.6382 38.7112 31.8843C38.7892 32.4738 38.7367 33.0814 38.7412 33.6814C38.7442 33.9259 38.7622 34.1704 38.7757 34.454H41.8374C41.8374 33.6769 41.8419 32.8893 41.8359 32.1003C41.8329 31.6787 41.8479 31.2347 42.391 31.2137C42.9745 31.1912 43.0405 31.6427 43.0405 32.1003C43.0405 32.8698 43.0405 33.6394 43.0405 34.49C44.9742 34.382 46.5793 34.931 47.4779 36.6937C48.3615 38.4248 48.012 40.0299 46.6874 41.5031C46.8659 41.5976 47.0279 41.6861 47.1914 41.7686C48.678 42.5261 49.4536 43.7187 49.5361 45.4034C49.6231 47.1615 49.1131 48.6001 47.5679 49.5677C46.8434 50.0208 46.0408 50.1483 45.2007 50.1303C44.5077 50.1153 43.8146 50.1273 43.039 50.1273L43.0375 50.1318ZM38.7832 48.8417C38.8942 48.8762 38.9632 48.9182 39.0322 48.9182C41.2779 48.9182 43.5236 48.9572 45.7678 48.8972C46.9499 48.8657 47.7749 48.1666 48.1485 47.052C48.309 46.572 48.3195 46.0244 48.315 45.5084C48.3015 43.7817 47.1179 42.6131 45.3897 42.6011C43.5431 42.5891 41.6964 42.5981 39.8513 42.5981C39.5093 42.5981 39.1672 42.5981 38.7847 42.5981V48.8417H38.7832ZM38.7772 41.395C40.6013 41.395 42.349 41.4356 44.0936 41.3815C45.4963 41.3395 46.5673 40.2249 46.7309 38.7803C46.8764 37.4932 45.9928 36.2181 44.6877 35.8311C44.5917 35.8026 44.4972 35.7501 44.4012 35.7486C42.5395 35.7441 40.6763 35.7456 38.7757 35.7456V41.395H38.7772Z" fill="#031A26"/>
</svg>
