<svg width="84" height="84" viewBox="0 0 84 84" fill="none" xmlns="http://www.w3.org/2000/svg">
<circle cx="42" cy="42" r="41.5" stroke="#031A26" stroke-opacity="0.14"/>
<path d="M24.0127 42.0061C24.0127 39.1684 24.033 36.3322 23.9982 33.4945C23.9896 32.7741 24.262 32.4045 24.9025 32.1193C30.7931 29.4955 36.6749 26.8514 42.5496 24.1942C43.106 23.9424 43.5683 23.9308 44.1219 24.2058C49.4835 26.879 54.8524 29.5363 60.2286 32.179C60.785 32.4525 60.9951 32.8236 60.9937 33.4319C60.9807 39.1553 60.9778 44.8772 60.998 50.6006C60.9995 51.2016 60.7821 51.513 60.2576 51.7691C54.7887 54.4438 49.3299 57.136 43.8741 59.8369C43.4437 60.0493 43.0858 60.0581 42.6452 59.8587C36.9068 57.251 31.1597 54.6607 25.4155 52.066C25.1952 51.967 24.9822 51.8477 24.7561 51.7648C24.2026 51.5625 23.9982 51.1812 24.004 50.589C24.0272 48.4061 24.0127 46.2247 24.0127 44.0419C24.0127 43.3623 24.0127 42.6842 24.0127 42.0046V42.0061ZM42.4873 58.1939C42.5163 57.8505 42.551 57.638 42.551 57.427C42.5539 52.4837 42.5452 47.5403 42.5641 42.5954C42.567 42.025 42.3685 41.7208 41.8555 41.4909C36.6358 39.1509 31.4249 36.792 26.2096 34.4418C25.9995 34.3472 25.7734 34.289 25.4589 34.1813C25.4227 34.5568 25.3734 34.8347 25.3734 35.1141C25.3691 39.9615 25.3778 44.8074 25.3604 49.6547C25.3575 50.2674 25.5502 50.6137 26.127 50.8713C31.3278 53.1953 36.5141 55.5483 41.7062 57.8913C41.9207 57.9873 42.1438 58.0615 42.4858 58.1939H42.4873ZM44.0059 58.1619C44.4552 57.9655 44.7653 57.8447 45.0623 57.6977C49.656 55.4348 54.2452 53.1603 58.849 50.9178C59.3852 50.6559 59.5953 50.3299 59.5939 49.7478C59.5808 44.8743 59.5881 39.9993 59.5823 35.1258C59.5823 34.8493 59.5098 34.5743 59.4634 34.2308C59.1736 34.3472 58.9693 34.4156 58.778 34.5088C54.0743 36.8226 49.3763 39.148 44.6653 41.4458C44.103 41.7208 43.9103 42.0774 43.9132 42.6871C43.932 47.5126 43.9219 52.3381 43.9262 57.1636C43.9262 57.446 43.9712 57.7283 44.0074 58.1619H44.0059ZM50.0182 37.1937C49.6502 36.9841 49.4342 36.8429 49.2024 36.7323C44.3928 34.4302 39.5789 32.1368 34.7737 29.8259C34.3245 29.609 33.9376 29.5843 33.4753 29.7968C31.4147 30.7441 29.3411 31.6609 27.2732 32.5937C27.0674 32.6868 26.8762 32.8163 26.5733 32.9895C26.8993 33.1641 27.1008 33.2893 27.3152 33.3853C32.3943 35.6788 37.4763 37.9635 42.5481 40.27C43.0321 40.4897 43.4248 40.5086 43.9059 40.2642C45.6463 39.3765 47.4099 38.5325 49.1618 37.6681C49.3951 37.5531 49.6197 37.4163 50.0182 37.1951V37.1937ZM35.9446 28.781C36.2547 28.9615 36.4489 29.0939 36.659 29.1943C41.4744 31.4979 46.2941 33.7928 51.1051 36.1051C51.5369 36.3118 51.9006 36.3292 52.3339 36.111C54.1453 35.1971 55.9711 34.3138 57.7897 33.413C58.0115 33.3024 58.2158 33.1569 58.5172 32.9735C58.2158 32.7916 58.0419 32.6665 57.8521 32.5733C53.2222 30.2741 48.588 27.9821 43.961 25.677C43.5379 25.466 43.1698 25.434 42.7293 25.6363C40.7107 26.5647 38.679 27.4655 36.6547 28.3808C36.446 28.4754 36.2533 28.6064 35.9446 28.7825V28.781Z" fill="#031A26"/>
<path d="M32.8994 43.3361C32.9139 43.9502 32.54 44.2544 32.0893 44.1409C31.9502 44.1059 31.8198 44.0375 31.6894 43.975C30.5345 43.4307 29.3795 42.885 28.226 42.3349C28.0739 42.2622 27.913 42.1938 27.7884 42.0861C27.529 41.8634 27.3972 41.5797 27.5899 41.2523C27.7638 40.9583 28.0217 40.7997 28.3811 40.9074C28.4043 40.9146 28.4275 40.9205 28.4492 40.9307C29.7998 41.5695 31.1561 42.1967 32.4936 42.8603C32.698 42.9621 32.8168 43.2357 32.8994 43.3361Z" fill="#031A26"/>
<path d="M28.1086 37.7205C28.3984 37.834 28.581 37.8936 28.7534 37.9751C29.9069 38.5179 31.0575 39.0651 32.2095 39.6108C32.2747 39.6414 32.3414 39.669 32.4037 39.7054C32.8544 39.9673 33.0152 40.3486 32.8326 40.7168C32.666 41.0529 32.2936 41.165 31.8299 40.9569C30.93 40.5523 30.0431 40.1216 29.1534 39.6981C28.7186 39.4915 28.2796 39.2906 27.8622 39.0534C27.5666 38.8846 27.384 38.5878 27.5579 38.2618C27.6782 38.0362 27.9347 37.8834 28.1071 37.7205H28.1086Z" fill="#031A26"/>
</svg>
