<svg width="84" height="84" viewBox="0 0 84 84" fill="none" xmlns="http://www.w3.org/2000/svg">
<circle cx="42" cy="42" r="41.5" stroke="#031A26" stroke-opacity="0.14"/>
<path d="M53.2316 36.1492C53.0983 32.337 51.5335 29.2304 48.2991 27.1175C44.2795 24.4908 40.0607 24.4301 35.9694 26.9467C32.576 29.0342 30.928 32.1986 30.7632 36.2353C31.1945 36.2706 31.5385 36.3059 31.8853 36.3271C32.6175 36.3737 32.7795 36.5148 32.7809 37.2191C32.7866 41.452 32.7866 45.6849 32.7809 49.9178C32.7809 50.6164 32.586 50.8253 31.8953 50.8126C30.9208 50.7957 29.9306 50.8197 28.9762 50.6588C27.3784 50.3906 26.328 49.2233 26.1374 47.6228C26.0428 46.8324 26.0242 46.0307 26.0142 45.2332C25.9955 43.7046 25.9941 42.1761 26.017 40.6475C26.0256 40.1111 26.0729 39.5607 26.2047 39.0427C26.5472 37.6948 27.4457 36.862 28.8 36.4837C29.5509 36.2734 29.5408 36.2607 29.5767 35.5395C29.7099 32.8126 30.7087 30.4146 32.49 28.344C34.4461 26.0716 36.9238 24.6461 39.9174 24.1775C43.7937 23.5705 47.2516 24.5176 50.2251 27.061C52.2915 28.8295 53.6042 31.0526 54.1831 33.6863C54.3035 34.2339 54.3809 34.7971 54.4153 35.356C54.4697 36.248 54.4454 36.2551 55.298 36.5092C56.6193 36.9029 57.4777 37.7484 57.8058 39.0653C57.9291 39.5621 57.9792 40.0885 57.985 40.6023C58.005 42.5769 58.005 44.5529 57.985 46.5289C57.9792 47.0413 57.919 47.5649 57.7972 48.0631C57.4562 49.4548 56.4989 50.2622 55.1361 50.6489C54.4626 50.8408 54.4783 50.8408 54.4182 51.4929C54.3709 52.0053 54.3078 52.5204 54.2018 53.0243C53.6114 55.8147 51.8215 57.3828 49.0185 57.874C48.2232 58.0137 47.4135 58.09 46.6067 58.1549C46.2041 58.1874 46.0221 58.3257 45.9662 58.7378C45.853 59.5748 45.3915 59.9714 44.5217 59.9841C43.1603 60.0039 41.7989 60.0067 40.439 59.9841C39.5233 59.9686 39.0346 59.483 39.0017 58.5783C38.9759 57.874 38.9744 57.1669 39.006 56.4626C39.0418 55.6228 39.519 55.1655 40.3688 55.1556C41.7774 55.1387 43.1861 55.1387 44.5948 55.1556C45.4116 55.1655 45.8458 55.579 45.9705 56.3906C46.0522 56.9213 46.1052 56.9989 46.5766 56.9425C47.4737 56.8352 48.3837 56.7547 49.2593 56.5459C51.522 56.0053 52.7659 54.5938 53.0783 52.3228C53.1299 51.9516 53.17 51.5776 53.2029 51.205C53.2101 51.1175 53.1671 51.0271 53.1327 50.8719C52.8289 50.8535 52.528 50.8281 52.2271 50.8197C51.4088 50.7957 51.2225 50.6235 51.2211 49.8091C51.2168 46.5642 51.2182 43.3179 51.2182 40.073C51.2182 39.1556 51.2139 38.2382 51.2196 37.3221C51.2254 36.488 51.3586 36.3624 52.2285 36.3271C52.4434 36.3186 52.6584 36.3101 52.8705 36.2861C52.9608 36.2763 53.0467 36.2226 53.2302 36.1521L53.2316 36.1492ZM31.5729 43.5621C31.5729 42.7406 31.5729 41.9192 31.5729 41.0977C31.5729 40.1111 31.5815 39.1259 31.5657 38.1394C31.5571 37.5734 31.4711 37.4802 30.895 37.4703C30.4207 37.4619 29.9421 37.4915 29.472 37.555C28.2626 37.7202 27.3942 38.471 27.3483 39.6637C27.2537 42.1464 27.2924 44.6334 27.281 47.1189C27.281 47.2586 27.3125 47.3984 27.3397 47.5367C27.5174 48.44 28.0247 49.1048 28.9275 49.3546C29.5136 49.5169 30.1441 49.5649 30.7575 49.5861C31.4912 49.6115 31.5671 49.5099 31.57 48.7731C31.5772 47.0356 31.5729 45.2981 31.5729 43.5621ZM52.4893 37.5861C52.4649 37.9657 52.4334 38.2424 52.432 38.519C52.4291 41.8825 52.4291 45.2459 52.4305 48.6094C52.4305 48.7505 52.4262 48.8917 52.4363 49.0328C52.475 49.5127 52.5452 49.603 53.051 49.6115C53.5025 49.6185 53.9596 49.5988 54.4038 49.5296C55.8956 49.2967 56.6408 48.4696 56.6723 47.0088C56.7167 44.9636 56.7483 42.9171 56.7683 40.8719C56.7726 40.4513 56.7268 40.0264 56.6637 39.6101C56.5147 38.6305 55.9357 37.9996 54.9828 37.7018C54.1903 37.4534 53.3849 37.555 52.4879 37.5875L52.4893 37.5861ZM44.7596 58.7364C44.7596 58.0109 44.761 57.4068 44.7596 56.8027C44.7596 56.5176 44.5962 56.3624 44.3168 56.361C43.103 56.3539 41.8906 56.3553 40.6769 56.3595C40.3946 56.3595 40.2384 56.5077 40.2384 56.7985C40.2384 57.4026 40.2384 58.0081 40.2384 58.7209C41.7473 58.8056 43.1804 58.7816 44.761 58.7364H44.7596Z" fill="#031A26"/>
</svg>
