<svg width="82" height="14" viewBox="0 0 82 14" fill="none" xmlns="http://www.w3.org/2000/svg">
<path d="M7.00004 0L9.16305 4.60778L14.0001 5.35121L10.5001 8.93586L11.3261 14L7.00004 11.6078L2.67401 14L3.50002 8.93586L0 5.35121L4.83702 4.60778L7.00004 0Z" fill="white"/>
<path d="M24 0L26.163 4.60778L31.0001 5.35121L27.5001 8.93586L28.3261 14L24 11.6078L19.674 14L20.5 8.93586L17 5.35121L21.837 4.60778L24 0Z" fill="white"/>
<path d="M41 0L43.163 4.60778L48.0001 5.35121L44.5001 8.93586L45.3261 14L41 11.6078L36.674 14L37.5 8.93586L34 5.35121L38.837 4.60778L41 0Z" fill="white"/>
<path d="M58 0L60.163 4.60778L65.0001 5.35121L61.5001 8.93586L62.3261 14L58 11.6078L53.674 14L54.5 8.93586L51 5.35121L55.837 4.60778L58 0Z" fill="white"/>
<path d="M75 0L77.163 4.60778L82.0001 5.35121L78.5001 8.93586L79.3261 14L75 11.6078L70.674 14L71.5 8.93586L68 5.35121L72.837 4.60778L75 0Z" fill="white"/>
</svg>
