<svg width="80" height="80" viewBox="0 0 80 80" fill="none" xmlns="http://www.w3.org/2000/svg">
<path d="M40 80C62.0914 80 80 62.0914 80 40C80 17.9086 62.0914 0 40 0C17.9086 0 0 17.9086 0 40C0 62.0914 17.9086 80 40 80Z" fill="#FF9916"/>
<path d="M49.8945 38.0753L33.3942 28.3221C33.0533 28.1163 32.6636 28.0051 32.2653 28.0002C31.8671 27.9952 31.4748 28.0966 31.1288 28.2938C30.7829 28.4911 30.4959 28.777 30.2974 29.1222C30.099 29.4674 29.9964 29.8592 30.0001 30.2573V49.7536C30.0002 50.1501 30.1053 50.5396 30.3047 50.8824C30.5041 51.2252 30.7907 51.5092 31.1354 51.7054C31.4802 51.9017 31.8707 52.0033 32.2674 51.9999C32.6641 51.9965 33.0529 51.8882 33.3942 51.6861L49.8945 41.9403C50.2312 41.7416 50.5103 41.4587 50.7042 41.1193C50.898 40.7799 51 40.3959 51 40.0051C51 39.6143 50.898 39.2303 50.7042 38.8909C50.5103 38.5515 50.2312 38.2686 49.8945 38.0699V38.0753Z" fill="white"/>
</svg>
