<svg width="24" height="24" viewBox="0 0 24 24" fill="none" xmlns="http://www.w3.org/2000/svg">
<path d="M2.5 20.4794V19.4604C3.05667 19.3584 3.47 19.1761 3.74 18.9134C4.00933 18.6501 4.546 18.5184 5.35 18.5184C6.218 18.5184 6.81467 18.6851 7.14 19.0184C7.466 19.3517 7.97767 19.5184 8.675 19.5184C9.37233 19.5184 9.88367 19.3517 10.209 19.0184C10.5343 18.6851 11.1313 18.5184 12 18.5184C12.8473 18.5184 13.4483 18.6851 13.803 19.0184C14.157 19.3517 14.6727 19.5184 15.35 19.5184C16.0473 19.5184 16.559 19.3517 16.885 19.0184C17.211 18.6851 17.8077 18.5184 18.675 18.5184C19.479 18.5184 20.0117 18.6501 20.273 18.9134C20.535 19.1761 20.944 19.3584 21.5 19.4604V20.4804C20.8667 20.4031 20.3917 20.2234 20.075 19.9414C19.7583 19.6594 19.2917 19.5184 18.675 19.5184C17.9943 19.5184 17.4827 19.6851 17.14 20.0184C16.798 20.3517 16.2013 20.5184 15.35 20.5184C14.4987 20.5184 13.8977 20.3517 13.547 20.0184C13.1963 19.6851 12.6807 19.5184 12 19.5184C11.3027 19.5184 10.791 19.6851 10.465 20.0184C10.139 20.3517 9.54233 20.5184 8.675 20.5184C7.80767 20.5184 7.211 20.3517 6.885 20.0184C6.559 19.6851 6.04733 19.5184 5.35 19.5184C4.73333 19.5184 4.26667 19.6594 3.95 19.9414C3.63333 20.2241 3.15 20.4037 2.5 20.4804M8.675 16.9994C7.84033 16.9994 7.247 16.8327 6.895 16.4994C6.543 16.1661 6.028 15.9994 5.35 15.9994C4.76667 15.9994 4.30333 16.1404 3.96 16.4224C3.616 16.7044 3.12933 16.8841 2.5 16.9614V15.9414C3.05667 15.8394 3.469 15.6567 3.737 15.3934C4.005 15.1301 4.54067 14.9987 5.344 14.9994C5.63667 14.9994 5.91 15.0357 6.164 15.1084C6.41733 15.1804 6.759 15.3404 7.189 15.5884L5.739 10.1264L4.209 12.0414L3.423 11.4264L10.083 3.19141L19.973 6.97641L19.613 7.90841L17.341 7.02041L19.5 15.1224C19.8487 15.1657 20.1773 15.2941 20.486 15.5074C20.7947 15.7207 21.1327 15.8654 21.5 15.9414V16.9414C20.8707 16.8614 20.3957 16.6844 20.075 16.4104C19.755 16.1364 19.2883 15.9994 18.675 15.9994C17.9777 15.9994 17.466 16.1661 17.14 16.4994C16.814 16.8327 16.2173 16.9994 15.35 16.9994C14.5027 16.9994 13.9017 16.8327 13.547 16.4994C13.1923 16.1661 12.6767 15.9994 12 15.9994C11.3027 15.9994 10.791 16.1661 10.465 16.4994C10.139 16.8327 9.54233 16.9994 8.675 16.9994ZM8.675 15.9994C9.239 15.9994 9.67133 15.8794 9.972 15.6394C10.2727 15.3994 10.6937 15.2127 11.235 15.0794L10.175 11.1994L14.05 10.1744L15.585 15.9744C16.1523 15.9277 16.586 15.7641 16.886 15.4834C17.186 15.2021 17.696 15.0427 18.416 15.0054L16.169 6.57641L10.406 4.39941L6.519 9.15741L8.34 15.9684C8.40667 15.9851 8.468 15.9944 8.524 15.9964C8.58 15.9984 8.63033 15.9994 8.675 15.9994Z" fill="black"/>
</svg>
