<svg width="10" height="24" viewBox="0 0 10 24" fill="none" xmlns="http://www.w3.org/2000/svg">
<path d="M3.63487 11.6937C3.63493 10.247 3.63387 8.80029 3.63542 7.35359C3.63609 6.72458 4.06508 6.25528 4.68868 6.19432C5.2503 6.13942 5.79688 6.55504 5.91004 7.12943C5.93007 7.23109 5.92982 7.33781 5.92989 7.4422C5.93192 10.2884 5.93442 13.1346 5.92983 15.9808C5.92954 16.1592 5.97171 16.2529 6.14395 16.3351C7.40601 16.9372 8.12515 18.2791 7.93408 19.6439C7.73888 21.0384 6.66199 22.1443 5.27006 22.3799C3.53978 22.6727 1.85388 21.4329 1.61926 19.695C1.41688 18.1959 2.14671 16.8867 3.52561 16.2874C3.62489 16.2443 3.63652 16.1882 3.63639 16.0967C3.63415 14.629 3.63481 13.1614 3.63487 11.6937Z" fill="#031A26"/>
<path d="M7.60802 8.90165C7.60802 11.0032 7.60939 13.1048 7.60514 15.2063C7.60484 15.3563 7.64862 15.4506 7.77035 15.5459C10.1053 17.3737 10.1416 20.9667 7.84192 22.8422C6.418 24.0035 4.81347 24.3183 3.0981 23.6634C1.37981 23.0075 0.32611 21.7212 0.0584273 19.8918C-0.205586 18.0875 0.430548 16.5988 1.85707 15.4563C1.92644 15.4007 1.95022 15.3453 1.9502 15.2586C1.94894 11.1025 1.96208 6.94643 1.94416 2.79046C1.93792 1.34094 3.11076 -0.0770635 4.89963 0.00325821C6.28566 0.0654961 7.36077 1.0109 7.58055 2.34663C7.63338 2.66777 7.60879 2.99536 7.60918 3.31996C7.6115 5.18052 7.61031 7.04109 7.61031 8.90164C7.60955 8.90165 7.60879 8.90165 7.60802 8.90165ZM6.74875 9.19112C6.74791 9.19112 6.74706 9.19112 6.74621 9.19112C6.74621 7.0369 6.75052 4.88265 6.74418 2.72844C6.74149 1.81119 6.08694 1.06238 5.15854 0.883559C4.23983 0.706607 3.30546 1.19077 2.96115 2.017C2.83067 2.33012 2.81593 2.65685 2.81615 2.98871C2.81912 7.18185 2.81951 11.375 2.82626 15.5681C2.82655 15.7475 2.77843 15.8516 2.62413 15.9585C1.24195 16.9165 0.644735 18.2413 0.923858 19.8991C1.29358 22.095 3.40992 23.4941 5.59246 23.0364C7.1092 22.7184 8.34486 21.4485 8.625 19.92C8.91315 18.3478 8.2213 16.7745 6.86406 15.929C6.76886 15.8697 6.74679 15.8039 6.74689 15.701C6.74935 13.531 6.74875 11.3611 6.74875 9.19112Z" fill="#031A26"/>
</svg>
