<svg width="24" height="24" viewBox="0 0 24 24" fill="none" xmlns="http://www.w3.org/2000/svg">
<path d="M4 20V6.50001C4 5.80801 4.24333 5.21801 4.73 4.73001C5.21667 4.24201 5.80667 3.99867 6.5 4.00001H10C10.6927 4.00001 11.2827 4.24334 11.77 4.73001C12.2573 5.21667 12.5007 5.80667 12.5 6.50001V20H4ZM10.73 15.5H11.5V9.50001H10.73C10.5513 9.50001 10.4043 9.55767 10.289 9.67301C10.1737 9.78834 10.116 9.93601 10.116 10.116V14.885C10.116 15.0643 10.1737 15.2117 10.289 15.327C10.4043 15.4423 10.5517 15.5 10.731 15.5M5 19H11.5V16.5H10.73C10.2833 16.5 9.90267 16.3427 9.588 16.028C9.27333 15.7133 9.116 15.332 9.116 14.884V10.116C9.116 9.66801 9.27333 9.28667 9.588 8.97201C9.90267 8.65734 10.2833 8.50001 10.73 8.50001H11.499V6.50001C11.499 6.08867 11.352 5.73567 11.058 5.44101C10.764 5.14634 10.4113 4.99934 10 5.00001H6.5C6.08867 5.00001 5.73567 5.14701 5.441 5.44101C5.147 5.73567 5 6.08867 5 6.50001V19ZM16.7 13.075C16.382 13.075 16.066 13.036 15.752 12.958C15.438 12.88 15.126 12.781 14.816 12.661L15.133 11.723C15.415 11.8343 15.6897 11.921 15.957 11.983C16.2243 12.045 16.4803 12.0757 16.725 12.075C16.9763 12.075 17.2243 12.0383 17.469 11.965C17.7143 11.8917 17.9643 11.7693 18.219 11.598C18.5677 11.3533 18.923 11.184 19.285 11.09C19.6463 10.9967 19.9847 10.95 20.3 10.95C20.614 10.95 20.934 10.985 21.26 11.055C21.5867 11.125 21.9033 11.2197 22.21 11.339L21.873 12.315C21.515 12.195 21.2283 12.104 21.013 12.042C20.7977 11.98 20.56 11.9493 20.3 11.95C20.0487 11.95 19.783 11.9907 19.503 12.072C19.223 12.1533 18.924 12.305 18.606 12.527C18.3073 12.735 17.998 12.8783 17.678 12.957C17.358 13.0357 17.032 13.075 16.7 13.075ZM16.725 9.56001C16.407 9.56001 16.0857 9.52067 15.761 9.44201C15.4363 9.36334 15.121 9.26467 14.815 9.14601L15.133 8.188C15.4637 8.308 15.7563 8.39967 16.011 8.46301C16.2663 8.52767 16.5043 8.56001 16.725 8.56001C16.9763 8.56001 17.221 8.52434 17.459 8.45301C17.6977 8.38167 17.951 8.25834 18.219 8.08301C18.5843 7.83767 18.9403 7.66834 19.287 7.57501C19.6337 7.48167 19.9713 7.43501 20.3 7.43501C20.614 7.43501 20.928 7.46967 21.242 7.53901C21.556 7.60901 21.8783 7.70367 22.209 7.82301L21.873 8.80001C21.5423 8.68867 21.2523 8.60001 21.003 8.53401C20.755 8.46734 20.5207 8.43401 20.3 8.43401C20.032 8.43401 19.763 8.47401 19.493 8.55401C19.223 8.63401 18.921 8.79301 18.587 9.03101C18.3383 9.20901 18.0487 9.34167 17.718 9.42901C17.3873 9.51634 17.0563 9.55967 16.725 9.55901M16.725 16.591C16.407 16.591 16.087 16.5517 15.765 16.473C15.4423 16.395 15.1257 16.2963 14.815 16.177L15.133 15.219C15.4223 15.3217 15.703 15.4093 15.975 15.482C16.247 15.5547 16.497 15.5907 16.725 15.59C16.9763 15.59 17.2213 15.5547 17.46 15.484C17.698 15.4127 17.9513 15.2893 18.22 15.114C18.5647 14.8727 18.928 14.7043 19.31 14.609C19.692 14.5137 20.0303 14.4657 20.325 14.465C20.6263 14.465 20.9393 14.501 21.264 14.573C21.5887 14.645 21.904 14.7383 22.21 14.853L21.892 15.831C21.5613 15.719 21.2643 15.63 21.001 15.564C20.7377 15.498 20.504 15.4653 20.3 15.466C20.028 15.466 19.7457 15.5127 19.453 15.606C19.1597 15.7007 18.871 15.8527 18.587 16.062C18.3417 16.236 18.0573 16.3677 17.734 16.457C17.41 16.5457 17.0737 16.591 16.725 16.591Z" fill="#031A26"/>
</svg>
