<svg width="42" height="50" viewBox="0 0 42 50" fill="none" xmlns="http://www.w3.org/2000/svg">
<path d="M16.7012 6.7144C16.7012 6.30299 16.6796 5.78824 16.7071 5.27544C16.7404 4.59885 16.7326 3.90472 16.8818 3.24958C17.5257 0.426243 21.0514 -1.08876 23.6113 0.915647C24.8893 1.9159 25.2407 3.27687 25.2898 4.78018C25.3113 5.45482 25.2937 6.13336 25.2937 6.81774C25.541 6.91718 25.7138 6.99127 25.8924 7.05757C29.6086 8.42049 32.3746 10.8636 34.1689 14.3577C34.909 15.7986 35.4194 17.337 35.5529 18.9709C35.6294 19.9049 35.7099 20.8408 35.7237 21.7767C35.7512 23.6603 35.7139 25.5438 35.7374 27.4273C35.7865 31.1885 37.141 34.4232 39.7696 37.1296C40.2015 37.5741 40.6923 37.9622 41.0987 38.4262C42.4375 39.9549 42.2255 41.7311 40.8552 43.0083C40.2584 43.564 39.5125 43.7551 38.6938 43.7512C35.5882 43.7395 32.4806 43.7473 29.375 43.7473C29.0511 43.7473 28.7272 43.7473 28.3483 43.7473C27.8595 45.896 26.8288 47.6781 24.9325 48.8714C23.5367 49.7488 22.0094 50.0666 20.3643 49.9886C17.2391 49.8424 14.8323 47.6586 13.6564 43.798C13.4267 43.7824 13.1754 43.7492 12.9241 43.7492C9.75176 43.7453 6.57938 43.7102 3.40896 43.7629C1.85811 43.7882 0.480005 42.8893 0.0775685 41.2047C-0.183525 40.1109 0.246396 39.2432 0.890295 38.434C1.09053 38.1825 1.35359 37.9778 1.59505 37.7574C3.81925 35.7238 5.28177 33.2475 5.92763 30.3169C6.10038 29.5331 6.22798 28.7239 6.24172 27.9245C6.28491 25.5535 6.2535 23.1825 6.26725 20.8116C6.28099 18.5459 6.79728 16.3777 7.82399 14.3674C9.60845 10.8695 12.3823 8.42829 16.0985 7.06537C16.2496 7.01077 16.3969 6.95033 16.5441 6.88598C16.5716 6.87429 16.5893 6.84114 16.7012 6.7183V6.7144ZM21.0023 41.5596C26.658 41.5596 32.3138 41.5596 37.9695 41.5596C38.2306 41.5596 38.4936 41.5459 38.7547 41.5596C39.2573 41.5869 39.5498 41.2885 39.7461 40.8966C39.9542 40.4774 39.7225 40.1518 39.4281 39.8632C39.3338 39.7716 39.2337 39.6877 39.1454 39.5942C38.4995 38.9078 37.8105 38.2566 37.2196 37.5254C34.8579 34.6085 33.5937 31.2782 33.5407 27.5228C33.5171 25.8343 33.5485 24.1458 33.5309 22.4572C33.5191 21.3263 33.5466 20.2013 33.3758 19.0665C32.8988 15.9117 31.4578 13.2892 29 11.2887C25.9945 8.8397 22.512 7.92719 18.6662 8.64472C15.6018 9.21601 13.0949 10.7408 11.1554 13.18C9.28258 15.5334 8.46593 18.232 8.462 21.2015C8.45807 23.4087 8.48359 25.6179 8.44826 27.8251C8.43452 28.6615 8.35599 29.5097 8.1852 30.3267C7.42548 33.9494 5.67831 37.0301 2.92211 39.5376C2.72973 39.7131 2.53538 39.8925 2.37833 40.0972C2.09368 40.4677 2.13294 40.7777 2.40778 41.156C2.72776 41.6005 3.18517 41.5615 3.64453 41.5615C9.43177 41.5615 15.219 41.5615 21.0043 41.5615L21.0023 41.5596ZM15.9355 43.7726C16.497 46.3288 18.9411 48.0525 21.5913 47.7931C23.4719 47.6098 25.7668 45.9486 25.9808 43.7726H15.9355ZM22.9831 6.2367C22.9831 5.62445 22.987 5.04731 22.9831 4.47211C22.9811 4.21279 22.987 3.94956 22.9458 3.69413C22.8025 2.83427 21.9976 2.20837 21.0494 2.19668C20.0384 2.18498 19.1511 2.79917 19.0647 3.69413C18.9862 4.52086 19.0471 5.36123 19.0471 6.23475H22.9831V6.2367Z" fill="#FF9916"/>
</svg>
