<svg width="54" height="50" viewBox="0 0 54 50" fill="none" xmlns="http://www.w3.org/2000/svg">
<path d="M24.1143 0.544922C36.6195 -1.74174 49.3254 6.08528 52.4775 19.1699C55.8468 33.1543 46.8212 46.4437 33.6279 49.2334C26.2024 50.8029 19.4056 49.3993 13.335 44.7734C11.6259 43.4715 10.1571 41.923 8.89258 40.1846C8.54303 39.7031 8.43726 39.2118 8.52734 38.7939C8.61713 38.3779 8.90576 38.0132 9.38672 37.7871C9.73376 37.6241 10.0707 37.5961 10.3887 37.6875C10.7088 37.7796 11.0234 37.9961 11.3154 38.3447C11.9988 39.1602 12.6651 40.0309 13.4316 40.7891C16.7652 44.087 20.7651 46.066 25.4385 46.6113C32.3673 47.42 38.4226 45.445 43.4814 40.6523C46.7111 37.5933 48.7826 33.8378 49.6523 29.4814L49.7324 29.0576C51.0611 21.6704 49.0683 15.2244 43.9541 9.79785C40.8039 6.45675 36.8825 4.38784 32.3398 3.58496C24.9439 2.27522 18.5186 4.30489 13.0967 9.4209C9.88648 12.4508 7.93718 16.237 6.98633 20.5322V20.5332C6.96141 20.6478 6.96014 20.7631 6.96387 20.8799C6.96712 20.9819 6.97162 21.0825 6.97363 21.2012L6.90625 21.2627L7.27637 21.6328V21.335C7.51858 21.1214 7.73105 20.951 7.9082 20.7578L7.90918 20.7588C8.33772 20.294 8.79795 20.1284 9.20898 20.1377C9.62423 20.1472 10.0041 20.3352 10.2656 20.6016C10.5881 20.9309 10.7231 21.3114 10.6865 21.707C10.6541 22.057 10.4855 22.4324 10.167 22.8037L10.0215 22.9629C9.51174 23.483 8.99802 23.9991 8.48242 24.5137L6.93262 26.0557C6.60569 26.3826 6.31473 26.7114 5.9707 26.9785C5.59189 27.2716 5.18099 27.3894 4.80566 27.3457C4.43194 27.3021 4.07756 27.0962 3.80957 26.7129C2.64072 25.0386 1.50735 23.3393 0.40918 21.6172C-0.0735373 20.8608 0.157653 19.9883 0.862305 19.542C1.21841 19.3161 1.60018 19.2498 1.96094 19.3252C2.27746 19.3913 2.58607 19.5688 2.85156 19.8584L2.96289 19.9893C3.14744 20.2236 3.32171 20.4616 3.57812 20.7979L3.7793 21.0615L3.84375 20.7363C4.29714 18.4733 4.89513 16.39 5.84277 14.4453L6.03711 14.0586C9.87682 6.63598 15.8665 2.05208 24.1143 0.544922Z" fill="#FF9916" stroke="#FFEED8" stroke-width="0.3"/>
<path d="M27.5127 9.31445C28.3071 9.31445 29.0554 10.0939 29.0303 11.0342C28.9719 13.2522 29.0116 15.4764 29.0137 17.6904V17.6924C29.0137 19.8432 29.0365 21.9888 28.999 24.1357V24.1367C28.9936 24.4643 29.0454 24.7435 29.1709 24.9922C29.265 25.1785 29.3977 25.3411 29.5674 25.4922L29.749 25.6396C32.4155 27.6213 35.059 29.6341 37.71 31.6416C38.0163 31.8724 38.315 32.0978 38.5557 32.3643C39.0221 32.8804 39.0533 33.5879 38.6748 34.1475L38.5938 34.2578C38.1175 34.8492 37.3785 35.0272 36.7432 34.6572C36.1888 34.334 35.6806 33.926 35.1504 33.5283V33.5273C33.093 31.9882 31.041 30.4378 28.9814 28.8994L26.9189 27.3662C26.5811 27.1171 26.3463 26.8491 26.1953 26.5439C26.0442 26.2386 25.9726 25.8866 25.9746 25.4619C26.0017 20.7141 25.9863 15.9655 25.9863 11.2168C25.9863 11.1852 25.989 11.1584 25.9902 11.1172C25.9913 11.0802 25.9908 11.0367 25.9854 10.9912V10.9893C25.8836 10.2057 26.5211 9.41698 27.3457 9.32324L27.5127 9.31445Z" fill="#FF9916" stroke="#FFEED8" stroke-width="0.3"/>
</svg>
