<svg width="71" height="50" viewBox="0 0 71 50" fill="none" xmlns="http://www.w3.org/2000/svg">
<path d="M59.9531 2.57227C58.9511 3.57576 57.9587 4.57235 56.9648 5.56836C55.9141 6.62138 54.8621 7.67541 53.7988 8.74023L53.5947 8.94434L53.8271 9.11719C54.921 9.92811 55.9712 10.6907 57.001 11.458L58.0244 12.2285C62.5392 15.673 66.4461 19.733 69.9277 24.2188H69.9287C70.0901 24.4262 70.2029 24.5788 70.2783 24.7041C70.3532 24.8286 70.3775 24.9063 70.3818 24.9639C70.3857 25.0164 70.3751 25.0788 70.3232 25.1777C70.2686 25.282 70.1779 25.4089 70.0381 25.5879C64.3431 32.8752 57.693 39.0357 49.3955 43.248C45.968 44.9884 42.3547 46.2242 38.5508 46.6084C35.0942 46.9585 31.6294 46.8046 28.2305 45.9072C25.8119 45.2665 23.5074 44.3491 21.248 43.2754H21.249C20.8932 43.105 20.5273 42.9472 20.0469 42.7305L19.8896 42.6602L19.7676 42.7812C17.4447 45.0927 15.2003 47.3258 12.876 49.6387C12.179 48.875 11.5256 48.1554 10.8584 47.4238C10.867 47.4142 10.8762 47.4041 10.8857 47.3936C10.9826 47.2862 11.1206 47.1387 11.2969 46.9521C11.6495 46.5791 12.153 46.0553 12.7871 45.4023C14.0552 44.0966 15.8428 42.2748 17.9814 40.1064C22.2586 35.7698 27.9393 30.047 33.6768 24.291C39.4142 18.535 45.2085 12.7459 49.7129 8.27637C53.8817 4.13986 56.9336 1.14795 57.8213 0.34668C58.5067 1.06099 59.2027 1.78852 59.9531 2.57227ZM51.0742 11.5C48.9271 13.6472 46.8324 15.7368 44.7412 17.8311C44.5931 17.9792 44.4596 18.1759 44.3232 18.3457L44.2139 18.4814L44.3037 18.6309C45.5566 20.7135 46.3859 22.8591 46.2451 25.2627L46.2041 25.7471C45.9105 28.3897 44.9246 30.653 43.0566 32.5645C41.4425 34.2163 39.5229 35.2916 37.2988 35.6436C34.3471 36.1107 31.5174 35.7441 29.207 33.9912L29.0332 33.8594L28.8789 34.0137C26.8582 36.0373 24.9506 37.9466 22.9346 39.9629L22.7393 39.8779V40.8662L23.0459 40.5586C23.3774 40.7041 23.7172 40.8532 24.0615 41.0039L25.2734 41.5273C29.1928 43.1806 33.2978 43.866 37.5225 43.501C41.0136 43.1985 44.325 42.1237 47.4756 40.6064C54.442 37.2512 60.0695 32.2281 65.1377 26.5332C65.5299 26.093 65.8977 25.6165 66.3145 25.1094L66.4463 24.9492L66.3125 24.79C61.9631 19.627 57.2062 14.9932 51.3809 11.4639L51.2129 11.3623L51.0742 11.5ZM41.5088 21.1934C38.1735 24.5347 34.8353 27.8793 31.5029 31.2207L31.3047 31.4199L31.5254 31.5938C32.6466 32.4764 34.349 32.7875 36.0498 32.5879C37.7556 32.3876 39.507 31.6678 40.7422 30.4297L40.7432 30.4307C41.9581 29.2142 42.6917 27.4734 42.9023 25.7686C43.1123 24.0685 42.8072 22.356 41.8838 21.2129L41.8086 21.1201H41.582L41.5088 21.1934Z" fill="#FF9916" stroke="#FFEED8" stroke-width="0.5"/>
<path d="M32 3.33887C36.5912 2.8641 41.1183 3.27977 45.6055 5.12207C45.2562 6.10096 44.9238 7.03345 44.5654 8.03516C44.2142 7.95283 43.9336 7.89845 43.6514 7.79883L43.6504 7.79785L43.0654 7.60254C37.0222 5.65907 31.0695 6.06963 25.1807 8.4541C20.8596 10.2047 17.0075 12.6991 13.4414 15.6377C10.4245 18.1221 7.66458 20.8727 5.125 23.8369L4.62012 24.4326C4.55889 24.5057 4.51271 24.5831 4.47168 24.6562C4.42795 24.7342 4.39162 24.8032 4.33887 24.8916L4.25 25.042L4.35938 25.1777C7.58999 29.1671 11.2957 32.6596 15.4258 35.9102C14.7737 36.7586 14.1548 37.5628 13.4873 38.4287C12.6327 37.7483 11.832 37.1317 11.0635 36.5068L10.2471 35.8262C6.73269 32.8074 3.57498 29.4486 0.741211 25.7822C0.561161 25.5489 0.436376 25.3836 0.354492 25.248C0.27394 25.1146 0.251191 25.0359 0.25 24.9756C0.24885 24.9166 0.266873 24.8393 0.342773 24.709C0.4203 24.5759 0.541768 24.4121 0.72168 24.1807L0.722656 24.1816C5.95763 17.456 12.0882 11.7562 19.5186 7.58398L20.2422 7.18457C23.9235 5.18777 27.8462 3.76721 32 3.33887Z" fill="#FF9916" stroke="#FFEED8" stroke-width="0.5"/>
<path d="M35.4854 13.9795C35.7006 13.9688 35.8503 13.9766 35.9541 13.999C36.054 14.0206 36.092 14.0515 36.1104 14.0742C36.1312 14.1 36.1563 14.1521 36.165 14.2676C36.1738 14.3839 36.1645 14.5396 36.1377 14.75C36.0692 15.2862 36.0232 15.8353 35.9678 16.3633C35.9402 16.6258 35.9165 16.8117 35.8818 16.9492C35.8478 17.084 35.8099 17.1455 35.7734 17.1807C35.7375 17.2153 35.6754 17.2505 35.54 17.2773C35.471 17.291 35.3896 17.3016 35.292 17.3096L34.9463 17.3281C32.7845 17.4017 31.0252 18.3006 29.6064 19.875C28.4449 21.1623 27.8194 22.6937 27.7031 24.418C27.6822 24.7169 27.6923 25.0291 27.6963 25.4541C26.5969 25.601 25.6116 25.7347 24.5107 25.8838C24.4757 25.7269 24.4391 25.5756 24.4102 25.4453C24.3644 25.2394 24.3371 25.0622 24.3457 24.8955C24.616 19.644 27.6726 15.7357 32.4951 14.3975C33.449 14.1323 34.47 14.0295 35.4854 13.9795Z" fill="#FF9916" stroke="#FFEED8" stroke-width="0.5"/>
</svg>
