<svg width="49" height="44" viewBox="0 0 49 44" fill="none" xmlns="http://www.w3.org/2000/svg">
<path d="M32.5137 0.44043C36.5157 -0.435998 40.1706 0.379717 43.4053 2.89941C46.5417 5.34136 48.1731 8.65772 48.7324 12.5908C49.4334 17.5186 47.8799 21.7755 45.002 25.6582C42.897 28.4991 40.3826 30.9507 37.7422 33.2803C34.1478 36.4518 30.4979 39.5742 26.917 42.7666C26.06 43.53 25.281 43.9011 24.5117 43.9004C23.7426 43.8995 22.9592 43.5268 22.0938 42.7529C19.86 40.7543 17.5794 38.803 15.3145 36.8389L13.0566 34.8682L11.1016 33.1318C9.15999 31.3828 7.27292 29.5801 5.56738 27.5898C3.62213 25.3182 1.90216 22.9045 0.996094 20.0244C-0.769113 14.4098 0.0317815 9.21639 3.78125 4.64746C5.80438 2.18255 8.48901 0.764701 11.6504 0.287109C16.7286 -0.481206 20.7126 1.42901 23.9102 5.33691C24.0686 5.5302 24.243 5.71315 24.4502 5.94531L24.4805 5.97852H24.5742L24.6045 5.94141L25.1807 5.23926C27.1465 2.87854 29.4846 1.10459 32.5137 0.44043ZM20.9883 6.125C17.1534 1.99556 11.6544 1.94061 7.67285 4.75391C4.46206 7.02413 3.089 10.3355 2.84473 14.1582C2.64034 17.3507 3.64122 20.2159 5.36523 22.8428C7.14371 25.5537 9.38144 27.8426 11.7314 30.0088L12.7441 30.9297C15.8846 33.7543 19.0906 36.5044 22.2695 39.2812C22.938 39.8638 23.616 40.4363 24.3467 41.0615L24.2227 41.1641H24.7744L24.6582 41.0654C24.9468 40.8306 25.1781 40.6516 25.3955 40.4619C29.0567 37.2656 32.7386 34.0874 36.3721 30.8574C38.4319 29.0281 40.3997 27.0901 42.1367 24.9307C44.1116 22.4727 45.6848 19.8089 46.0781 16.5605C46.4919 13.1407 45.8044 9.98434 43.8115 7.17676C41.201 3.49818 36.5447 2.06443 32.6191 3.22168C30.4753 3.85443 28.7788 5.15261 27.3848 6.8623C26.8764 7.48478 26.4274 8.15865 25.9844 8.82422V8.8252C25.7615 9.16041 25.5001 9.37782 25.2041 9.5C24.9814 9.59187 24.7347 9.63192 24.4639 9.62402L24.1846 9.59961C23.6437 9.52617 23.3013 9.1826 22.9727 8.72656H22.9717C22.3402 7.84849 21.7278 6.92264 20.9883 6.125Z" fill="#FF9916" stroke="#FFEED8" stroke-width="0.2"/>
</svg>
