<svg width="14" height="18" viewBox="0 0 14 18" fill="none" xmlns="http://www.w3.org/2000/svg">
<path d="M1.6899 7.25678C1.6899 6.5029 1.68246 5.77284 1.69139 5.04352C1.70478 3.93242 2.01586 2.9084 2.70648 2.03545C4.0587 0.326017 5.8418 -0.338556 7.95088 0.163036C10.0198 0.654954 11.273 2.04364 11.7329 4.11922C11.82 4.51364 11.817 4.93114 11.8267 5.33897C11.8416 5.96931 11.8304 6.60039 11.8304 7.24561C11.9711 7.28208 12.0872 7.31482 12.2047 7.3431C12.8968 7.50683 13.3798 8.02851 13.4766 8.72806C13.5019 8.91188 13.516 9.09793 13.516 9.28324C13.519 11.527 13.5205 13.7708 13.5138 16.0153C13.513 16.2728 13.493 16.54 13.426 16.787C13.2332 17.4992 12.6222 17.9458 11.8185 17.9956C11.7076 18.0023 11.5952 17.9993 11.4836 17.9993C8.33488 17.9993 5.18616 17.9993 2.0367 17.9993C1.94962 17.9993 1.8633 18.0008 1.77623 17.9986C0.761133 17.9673 0.112933 17.3638 0.0117212 16.3532C0.000558151 16.2423 0.000558152 16.1306 0.000558152 16.019C0.000558152 13.7626 -0.00167446 11.5062 0.00279076 9.24975C0.00279076 9.01533 0.0117212 8.77346 0.0720016 8.54946C0.239447 7.92581 0.648014 7.52394 1.27389 7.35129C1.39296 7.31854 1.51501 7.29622 1.68767 7.25752L1.6899 7.25678ZM6.76164 16.8086C8.39814 16.8086 10.0346 16.8101 11.6704 16.8079C12.1854 16.8071 12.332 16.6605 12.332 16.1448C12.3335 13.8139 12.3335 11.4838 12.332 9.153C12.332 8.61122 12.1958 8.47429 11.6473 8.47429C8.38698 8.47206 5.12663 8.47206 1.86627 8.47429C1.32152 8.47429 1.18682 8.61271 1.18607 9.15672C1.18384 10.2849 1.18607 11.4131 1.18607 12.5406C1.18607 13.7552 1.18756 14.9704 1.18533 16.185C1.18533 16.3904 1.19426 16.6032 1.39296 16.7067C1.52766 16.7766 1.69808 16.8034 1.85213 16.8041C3.48864 16.8108 5.12514 16.8086 6.7609 16.8086H6.76164ZM10.6166 7.26347C10.6307 7.14812 10.6471 7.07593 10.6479 7.003C10.6486 6.32131 10.6516 5.63962 10.6427 4.95868C10.6397 4.73691 10.6196 4.51216 10.5779 4.29485C10.2214 2.45667 8.56261 1.10445 6.57112 1.18334C4.66224 1.25925 3.0049 2.80123 2.89625 4.70565C2.85234 5.48409 2.8769 6.26624 2.87467 7.04691C2.87467 7.11612 2.90369 7.18533 2.92081 7.26422H10.6159L10.6166 7.26347Z" fill="white"/>
<path d="M6.68846 10.1006C7.53387 10.0984 8.19621 10.5836 8.39715 11.3047C8.61445 12.0839 8.319 12.8564 7.62094 13.2493C7.41703 13.3639 7.34038 13.4875 7.35229 13.7137C7.36791 14.0099 7.37015 14.3091 7.34633 14.6045C7.31359 15.0146 7.00623 15.2483 6.63859 15.1724C6.36101 15.115 6.19282 14.9163 6.17272 14.5807C6.15635 14.3091 6.1571 14.0352 6.169 13.7636C6.17942 13.5225 6.12733 13.3662 5.88249 13.2337C5.26629 12.9003 4.95744 12.1955 5.07875 11.5354C5.21866 10.7771 5.73662 10.242 6.4585 10.1162C6.55524 10.0991 6.65571 10.1014 6.68846 10.0991V10.1006ZM7.28159 11.7847C7.27638 11.4655 7.04716 11.2452 6.73683 11.2608C6.43692 11.2757 6.24193 11.4863 6.24119 11.7959C6.24045 12.1293 6.44213 12.3355 6.76734 12.3317C7.09107 12.3288 7.28754 12.1189 7.28159 11.784V11.7847Z" fill="white"/>
</svg>
