<svg width="54" height="50" viewBox="0 0 54 50" fill="none" xmlns="http://www.w3.org/2000/svg">
<path d="M6.22461 3.33301C5.94824 3.33301 5.62161 3.31517 5.31152 3.34082C5.07667 3.3602 4.82704 3.4092 4.59668 3.50391C4.13563 3.69357 3.80786 3.97895 3.60059 4.34863C3.3959 4.71378 3.31993 5.14128 3.32227 5.59863C3.33342 7.97603 3.32617 10.3553 3.32617 12.7344V33.5928C3.33431 34.3497 3.50623 34.954 3.91309 35.3672C4.32102 35.7814 4.9184 35.9564 5.66992 35.96C7.85655 35.9689 10.0621 36.02 12.2598 35.9395C13.2725 35.9025 14.1122 36.7419 14.0576 37.7646C13.9657 39.4776 14.0352 41.21 14.0352 42.9072V44.9131L14.4297 44.6348C14.7901 44.3801 15.0869 44.1881 15.3525 43.9775L15.3535 43.9766C18.3956 41.5433 21.4499 39.1193 24.4697 36.6553C25.0687 36.1665 25.6642 35.9481 26.4346 35.9502C33.3869 35.9725 40.3397 35.9639 47.291 35.9639C47.5069 35.9639 47.739 35.9684 47.9648 35.9639C48.6616 35.9497 49.23 35.7691 49.6279 35.3818C50.0266 34.9937 50.2155 34.4359 50.2334 33.751V5.40234L50.2148 5.18164C50.1524 4.67646 49.9604 4.24745 49.6416 3.92773C49.2772 3.5624 48.7705 3.364 48.1709 3.33594H48.1719C47.905 3.32214 47.6241 3.333 47.3779 3.33301H6.22461ZM10.9746 39.1777L10.9014 39.1045L10.8965 39.1006L10.8232 39.0273H10.7197C8.92114 39.0273 7.23866 38.9754 5.56641 39.0381C3.20022 39.1266 0.986464 37.4135 0.442383 35.2373L0.394531 35.0254C0.318395 34.6382 0.267578 34.2467 0.267578 33.8643L0.266602 19.6455C0.26688 14.9054 0.264502 10.1648 0.25 5.4248C0.241663 2.62842 2.67648 0.24557 5.46582 0.251953C16.1162 0.275379 26.7679 0.28379 37.4199 0.270508L48.0723 0.25C50.8948 0.241492 53.3332 2.6552 53.3184 5.51172C53.2715 14.9183 53.2652 24.3254 53.3232 33.7324C53.3401 36.609 50.9056 39.0765 48.0156 39.0488C41.1749 38.9841 34.3294 39.0354 27.4932 39.0176C26.863 39.0176 26.3493 39.1561 25.8428 39.5068L25.626 39.6699C22.4591 42.2436 19.257 44.7744 16.0654 47.3232C15.2556 47.9706 14.4431 48.6317 13.6377 49.2773C13.3451 49.5122 13.0595 49.6668 12.7715 49.7246C12.489 49.7812 12.1856 49.7491 11.8457 49.5811C11.5071 49.4137 11.2942 49.197 11.1621 48.9424C11.028 48.6837 10.9677 48.3671 10.9697 47.9863V47.9854C10.9809 45.4949 10.9746 43.0015 10.9746 40.5127V39.1777Z" fill="#FF9916" stroke="#FFEED8" stroke-width="0.5"/>
<path d="M13.0615 14.5459H40.501C40.7443 14.5459 40.9418 14.5321 41.1494 14.5488C41.9924 14.6189 42.5812 15.2469 42.5908 16.0518V16.0527C42.6021 16.9028 42.0012 17.5475 41.0986 17.6064H41.0977C40.8496 17.6236 40.6157 17.6084 40.334 17.6084H26.4746V17.6104C21.9842 17.6105 17.4946 17.6147 13.0049 17.6016H13.0039C12.5832 17.6016 12.1565 17.5569 11.8096 17.4111C11.2004 17.1541 10.8852 16.5413 10.9648 15.8945L10.9863 15.7646C11.1165 15.1333 11.6525 14.6314 12.3096 14.5547H12.3115C12.548 14.526 12.7747 14.5459 13.0615 14.5459Z" fill="#FF9916" stroke="#FFEED8" stroke-width="0.5"/>
<path d="M13.0996 21.6836H19.4307V21.6855H19.6807C21.9508 21.6855 24.2159 21.6765 26.4834 21.6943H26.4844C26.8236 21.6965 27.1746 21.7472 27.4561 21.8691V21.8701C28.0664 22.1371 28.3905 22.7485 28.3174 23.3877L28.2979 23.5156C28.1737 24.1423 27.63 24.6568 26.9834 24.7393H26.9814C26.7845 24.7654 26.5949 24.749 26.3447 24.749H12.9609C12.711 24.749 12.5233 24.7656 12.3223 24.7412C11.5465 24.6469 10.9841 24.0208 10.9688 23.251C10.9514 22.4325 11.5241 21.7783 12.3447 21.6914C12.5843 21.6664 12.8153 21.6836 13.0996 21.6836Z" fill="#FF9916" stroke="#FFEED8" stroke-width="0.5"/>
</svg>
