<svg width="50" height="50" viewBox="0 0 50 50" fill="none" xmlns="http://www.w3.org/2000/svg">
<path d="M24.9951 0.200195C38.7008 0.200195 49.7998 11.2935 49.7998 24.9951C49.7998 38.7008 38.7065 49.7998 25.0049 49.7998L24.3623 49.792C10.9153 49.4539 0.184935 38.4721 0.200195 24.9072C0.215814 11.2841 11.3359 0.200199 24.9951 0.200195ZM39.0586 40.3125C37.3788 33.0855 30.3671 28.0424 22.5635 29.3477C16.8354 30.3055 12.1906 34.7864 10.8975 40.4062L10.7832 40.9541C10.72 41.2907 10.7168 41.5979 10.8184 41.8848C10.9205 42.1734 11.1204 42.4175 11.4199 42.6445V42.6455C15.4249 45.6689 19.9339 47.1847 25.3115 47.293L25.3965 47.2949L25.4062 47.2842C25.9076 47.2402 26.7488 47.1784 27.5811 47.0889C31.4454 46.6689 34.9426 45.2843 38.0684 42.9902C38.3909 42.7537 38.6062 42.6205 38.8047 42.4795C38.9862 42.3505 39.1411 42.2225 39.2275 42.0391C39.3152 41.853 39.3187 41.6427 39.2832 41.3838C39.2477 41.1248 39.1675 40.7809 39.0586 40.3125ZM24.9492 10.9307C20.8235 10.9869 17.2079 14.2332 17.2139 18.749C17.2201 22.9931 20.5394 26.5117 24.999 26.5098C29.5188 26.5098 32.8381 22.9069 32.7861 18.6484C32.73 14.0888 29.0342 10.9268 24.9521 10.9307H24.9492ZM19.1963 27.3779L19.1191 27.3184C12.9682 22.5149 13.9353 15.135 17.7129 11.4072C21.7486 7.42724 28.2355 7.4269 32.2812 11.3994C35.9744 15.0255 37.1175 22.4111 30.9053 27.3047L30.6348 27.5176L30.9541 27.6475C36.3557 29.8469 39.8399 33.7703 41.4932 39.3896L41.5947 39.7373L41.835 39.4648C49.3693 30.9014 49.4246 16.8603 39.6621 8.2627C30.473 0.173622 16.4376 0.931065 8.18164 10.4326C-0.0212781 19.8735 1.89379 32.7534 8.20508 39.4199L8.44824 39.6758L8.54297 39.3359C9.28755 36.6709 10.5243 34.3023 12.3574 32.2607C14.2117 30.1961 16.4643 28.7039 19.0703 27.6631L19.1963 27.6133V27.3779Z" fill="#FF9916" stroke="#FFEED8" stroke-width="0.4"/>
</svg>
